<svg id="Capa_1" data-name="Capa 1" xmlns="http://www.w3.org/2000/svg" viewBox="0 0 989.86 257.3"><title>Logo-Hor-Neg</title><path d="M224.19,188.66a94.14,94.14,0,1,1,0-94.15l29.89-17.26a128.66,128.66,0,1,0,0,128.67Z" transform="translate(-14 -12.93)" fill="#fff"/><path d="M142.65,82a59.62,59.62,0,0,0-36.26,106.94v0a27.05,27.05,0,0,1,22.2-26.52,25.09,25.09,0,1,1,28.15,0A27,27,0,0,1,179,188.81,59.62,59.62,0,0,0,142.65,82Z" transform="translate(-14 -12.93)" fill="#fff"/><path d="M296.8,172.16a34.84,34.84,0,0,1-13.59-13,38.12,38.12,0,0,1,.05-37.52,35.25,35.25,0,0,1,13.64-13,40,40,0,0,1,19.42-4.71,40.48,40.48,0,0,1,15.92,3,32.47,32.47,0,0,1,12.16,8.82l-8.51,8a24.85,24.85,0,0,0-19-8.31,26.56,26.56,0,0,0-13.08,3.19,23.06,23.06,0,0,0-9,8.87,27.22,27.22,0,0,0,0,25.76,23.06,23.06,0,0,0,9,8.87,26.56,26.56,0,0,0,13.08,3.19,24.71,24.71,0,0,0,19-8.41L344.4,165a32.41,32.41,0,0,1-12.21,8.82,40.87,40.87,0,0,1-16,3A40,40,0,0,1,296.8,172.16Z" transform="translate(-14 -12.93)" fill="#fff"/><path d="M406.76,121.71v54.15H394.69V169a20.07,20.07,0,0,1-7.6,5.63,24.44,24.44,0,0,1-9.84,2q-10.85,0-17.08-6t-6.24-17.89V121.71h12.68v29.21c0,4.86,1.1,8.5,3.29,10.89s5.33,3.6,9.38,3.6q6.8,0,10.8-4.2t4-12.12V121.71Z" transform="translate(-14 -12.93)" fill="#fff"/><path d="M454.72,121.1v12.07a16.28,16.28,0,0,0-2.94-.3q-7.41,0-11.56,4.31t-4.16,12.42v26.26H423.39V121.71h12.07v7.91Q440.94,121.1,454.72,121.1Z" transform="translate(-14 -12.93)" fill="#fff"/><path d="M466.08,110.61a7.46,7.46,0,0,1,0-10.85,8.15,8.15,0,0,1,5.78-2.18,8.42,8.42,0,0,1,5.78,2.08,6.72,6.72,0,0,1,2.33,5.22,7.65,7.65,0,0,1-2.28,5.63,7.91,7.91,0,0,1-5.83,2.28A8.15,8.15,0,0,1,466.08,110.61Zm-.61,11.1h12.67v54.15H465.47Z" transform="translate(-14 -12.93)" fill="#fff"/><path d="M545.47,152.84H503a14.75,14.75,0,0,0,5.83,9.48,19.14,19.14,0,0,0,11.71,3.5,19.76,19.76,0,0,0,14.71-5.88l6.79,7.81a23,23,0,0,1-9.23,6.59A36.56,36.56,0,0,1,504.5,173,25.56,25.56,0,0,1,494,163.13a27.85,27.85,0,0,1-3.7-14.34,28.31,28.31,0,0,1,3.6-14.25,25.6,25.6,0,0,1,10-9.89,29.15,29.15,0,0,1,14.39-3.55,28.44,28.44,0,0,1,14.15,3.5,24.83,24.83,0,0,1,9.73,9.84,29.84,29.84,0,0,1,3.5,14.65C545.67,150,545.6,151.22,545.47,152.84Zm-37.47-18a15.19,15.19,0,0,0-5.12,9.59H533.6a14.94,14.94,0,0,0-5-9.54,15.11,15.11,0,0,0-10.34-3.65A15.35,15.35,0,0,0,508,134.84Z" transform="translate(-14 -12.93)" fill="#fff"/><path d="M628.2,126a24.68,24.68,0,0,1,9.38,9.53,28.08,28.08,0,0,1,3.4,13.89,28.36,28.36,0,0,1-3.4,14,24.22,24.22,0,0,1-9.38,9.53,26.67,26.67,0,0,1-13.38,3.39A24.77,24.77,0,0,1,602.14,173a22.93,22.93,0,0,1-8.82-9.18v31.74h-5.07v-72.6h4.87V135.4a23.12,23.12,0,0,1,8.87-9.48,24.71,24.71,0,0,1,12.83-3.4A26.3,26.3,0,0,1,628.2,126Zm-2.74,42.89a20.24,20.24,0,0,0,7.66-7.91,25.34,25.34,0,0,0,0-23.12,20.28,20.28,0,0,0-7.66-7.9,21.23,21.23,0,0,0-11-2.84,21,21,0,0,0-10.9,2.84,20.41,20.41,0,0,0-7.6,7.9A25.34,25.34,0,0,0,596,161a20.37,20.37,0,0,0,7.6,7.91,21,21,0,0,0,10.9,2.84A21.23,21.23,0,0,0,625.46,168.86Z" transform="translate(-14 -12.93)" fill="#fff"/><path d="M656.69,100.62h5.07v75.24h-5.07Z" transform="translate(-14 -12.93)" fill="#fff"/><path d="M716.11,127.54q5.26,5,5.27,14.76v33.56h-4.87v-9.43a17.61,17.61,0,0,1-7.4,7.25,24.57,24.57,0,0,1-11.66,2.58q-8.82,0-13.94-4.15a14.39,14.39,0,0,1-.41-21.65q4.73-4.11,15.06-4.11h18.15v-4.26q0-7.4-4-11.25T700.59,127a28.18,28.18,0,0,0-10.09,1.82,25.33,25.33,0,0,0-8.16,4.87L679.81,130a28.06,28.06,0,0,1,9.53-5.53,34.58,34.58,0,0,1,11.66-2Q710.83,122.52,716.11,127.54Zm-6.75,41.52a18.44,18.44,0,0,0,6.95-8.82v-9.93h-18q-7.8,0-11.3,2.84a9.47,9.47,0,0,0-3.5,7.8,9.79,9.79,0,0,0,3.85,8.17q3.86,3,10.85,3A19.87,19.87,0,0,0,709.36,169.06Z" transform="translate(-14 -12.93)" fill="#fff"/><path d="M768.53,172.51a12.71,12.71,0,0,1-4.82,2.79,19,19,0,0,1-6,1q-6.9,0-10.65-3.8t-3.75-10.59V127.29h-9.73v-4.36h9.73V111.37h5.07v11.56h16.83v4.36H748.35v34.07q0,5.17,2.48,7.86t7.35,2.68A11.78,11.78,0,0,0,766.4,169Z" transform="translate(-14 -12.93)" fill="#fff"/><path d="M788.6,115.22v7.71h16.94v4.36H788.7v48.57h-5.07V127.29H773.9v-4.36h9.73v-8.11q0-6.69,3.86-10.65t10.85-4a19.82,19.82,0,0,1,5.83.86,11.58,11.58,0,0,1,4.61,2.59l-2,3.85a11.76,11.76,0,0,0-8.21-2.94Q788.6,104.58,788.6,115.22Z" transform="translate(-14 -12.93)" fill="#fff"/><path d="M822.11,172.82a24.89,24.89,0,0,1-9.48-9.59,29.56,29.56,0,0,1,0-27.68,24.86,24.86,0,0,1,9.48-9.58,28.28,28.28,0,0,1,27.07,0,24.82,24.82,0,0,1,9.49,9.58,29.56,29.56,0,0,1,0,27.68,24.85,24.85,0,0,1-9.49,9.59,28.35,28.35,0,0,1-27.07,0Zm24.44-4a20.37,20.37,0,0,0,7.6-7.91,25.34,25.34,0,0,0,0-23.12,20.41,20.41,0,0,0-7.6-7.9,22.34,22.34,0,0,0-21.8,0,20.44,20.44,0,0,0-7.61,7.9,25.42,25.42,0,0,0,0,23.12,20.4,20.4,0,0,0,7.61,7.91,22.34,22.34,0,0,0,21.8,0Z" transform="translate(-14 -12.93)" fill="#fff"/><path d="M890.3,125.62a24.1,24.1,0,0,1,12.57-3.1v5l-1.21-.1q-8.83,0-13.79,5.53t-5,15.36v27.58h-5.07V122.93h4.86v11.56A18.35,18.35,0,0,1,890.3,125.62Z" transform="translate(-14 -12.93)" fill="#fff"/><path d="M998.23,128.3q5.63,5.79,5.63,16.63v30.93h-5.07V145.34q0-8.93-4.36-13.59t-12.17-4.66q-8.93,0-14.14,5.57t-5.22,15v28.19h-5.07V145.34q0-8.93-4.36-13.59t-12.17-4.66q-8.92,0-14.14,5.57t-5.23,15v28.19h-5.06V122.93h4.86v11.36a19.55,19.55,0,0,1,7.86-8.67,24,24,0,0,1,12.42-3.1,22.07,22.07,0,0,1,12.22,3.25,17.68,17.68,0,0,1,7.15,9.53,20.61,20.61,0,0,1,8.26-9.33,24.61,24.61,0,0,1,13.13-3.45Q992.61,122.52,998.23,128.3Z" transform="translate(-14 -12.93)" fill="#fff"/></svg>