<svg id="Capa_1" data-name="Capa 1" xmlns="http://www.w3.org/2000/svg" viewBox="0 0 263.22 89.1"><title>Arrastra una estructura</title><circle cx="131.61" cy="61.6" r="27.5" fill="#ffb643"/><path d="M136.91,55.33V65.69h10v2.64h-10V78.78h-2.82V68.33h-10V65.69h10V55.33Z" transform="translate(-3.89 -5.45)" fill="#fff"/><path d="M16.48,19.05h-1.4a.62.62,0,0,1-.4-.13.7.7,0,0,1-.22-.31L13.2,15.37h-6L5.91,18.61a.59.59,0,0,1-.22.3.58.58,0,0,1-.39.14H3.89L9.27,5.6h1.84Zm-3.79-5L10.58,8.58c-.06-.16-.13-.35-.2-.57s-.13-.44-.19-.69a9.55,9.55,0,0,1-.41,1.27L7.67,14.05Z" transform="translate(-3.89 -5.45)" fill="#b3b3b3"/><path d="M28.2,19.05H26.58a.8.8,0,0,1-.73-.39l-3.49-4.8a1.17,1.17,0,0,0-.34-.33,1.39,1.39,0,0,0-.57-.1H20.07v5.62H18.26V5.6h3.8a8,8,0,0,1,2.2.26,4.33,4.33,0,0,1,1.54.74,3,3,0,0,1,.89,1.18A3.81,3.81,0,0,1,27,9.32a3.92,3.92,0,0,1-.22,1.34,3.64,3.64,0,0,1-.65,1.11,3.92,3.92,0,0,1-1,.84,5.28,5.28,0,0,1-1.4.52,1.84,1.84,0,0,1,.6.58ZM22,12.11a4.6,4.6,0,0,0,1.4-.19,2.8,2.8,0,0,0,1-.55,2.12,2.12,0,0,0,.61-.84,2.67,2.67,0,0,0,.21-1.08,2.14,2.14,0,0,0-.79-1.81A3.85,3.85,0,0,0,22.06,7h-2v5.08Z" transform="translate(-3.89 -5.45)" fill="#b3b3b3"/><path d="M40,19.05H38.34a.79.79,0,0,1-.73-.39l-3.49-4.8a1.08,1.08,0,0,0-.35-.33,1.3,1.3,0,0,0-.56-.1H31.83v5.62H30V5.6h3.8a8,8,0,0,1,2.2.26,4.33,4.33,0,0,1,1.54.74,3,3,0,0,1,.89,1.18,3.81,3.81,0,0,1,.29,1.54,3.92,3.92,0,0,1-.22,1.34,3.64,3.64,0,0,1-.65,1.11,4,4,0,0,1-1,.84,5.21,5.21,0,0,1-1.39.52,1.84,1.84,0,0,1,.6.58Zm-6.21-6.94a4.6,4.6,0,0,0,1.4-.19,2.8,2.8,0,0,0,1-.55,2.12,2.12,0,0,0,.61-.84A2.67,2.67,0,0,0,37,9.45a2.14,2.14,0,0,0-.79-1.81A3.85,3.85,0,0,0,33.82,7h-2v5.08Z" transform="translate(-3.89 -5.45)" fill="#b3b3b3"/><path d="M52.71,19.05H51.3a.61.61,0,0,1-.39-.13.65.65,0,0,1-.23-.31l-1.26-3.24h-6l-1.26,3.24a.59.59,0,0,1-.22.3.56.56,0,0,1-.39.14H40.11L45.49,5.6h1.84Zm-3.79-5L46.8,8.58c-.06-.16-.12-.35-.19-.57s-.14-.44-.2-.69A11.48,11.48,0,0,1,46,8.59L43.9,14.05Z" transform="translate(-3.89 -5.45)" fill="#b3b3b3"/><path d="M61.36,7.7a1,1,0,0,1-.18.21.4.4,0,0,1-.24.07.66.66,0,0,1-.38-.16c-.14-.1-.32-.22-.54-.35a3.56,3.56,0,0,0-.78-.35A3.23,3.23,0,0,0,58.14,7a3.17,3.17,0,0,0-1.07.16,2.29,2.29,0,0,0-.78.45,1.93,1.93,0,0,0-.48.66,2.22,2.22,0,0,0-.16.82,1.51,1.51,0,0,0,.28.93,2.41,2.41,0,0,0,.73.64,6.25,6.25,0,0,0,1,.45l1.18.4c.4.14.8.3,1.18.47a4.18,4.18,0,0,1,1,.65,2.73,2.73,0,0,1,.73,1A3.12,3.12,0,0,1,62.1,15a4.57,4.57,0,0,1-.3,1.66A3.8,3.8,0,0,1,60.92,18a4.07,4.07,0,0,1-1.41.9,5.2,5.2,0,0,1-1.91.33,5.8,5.8,0,0,1-2.39-.48,5.54,5.54,0,0,1-1.83-1.28l.53-.86a.77.77,0,0,1,.18-.18.48.48,0,0,1,.24-.07.63.63,0,0,1,.28.1l.35.25.45.33a3.53,3.53,0,0,0,.58.33,4.15,4.15,0,0,0,.73.25,4.42,4.42,0,0,0,.93.1,3.49,3.49,0,0,0,1.16-.18,2.55,2.55,0,0,0,.86-.51,2.23,2.23,0,0,0,.54-.77,2.66,2.66,0,0,0,.18-1,1.71,1.71,0,0,0-.27-1,2.45,2.45,0,0,0-.73-.66,5.41,5.41,0,0,0-1-.44l-1.19-.38A10.51,10.51,0,0,1,56,12.31a3.78,3.78,0,0,1-1-.66,3.05,3.05,0,0,1-.73-1A3.64,3.64,0,0,1,54,9.15a3.61,3.61,0,0,1,.27-1.38A3.7,3.7,0,0,1,55,6.58a3.9,3.9,0,0,1,1.3-.82,4.71,4.71,0,0,1,1.78-.31,5.8,5.8,0,0,1,2.05.35,4.88,4.88,0,0,1,1.63,1Z" transform="translate(-3.89 -5.45)" fill="#b3b3b3"/><path d="M73.76,7.13H69.4V19.05H67.59V7.13H63.23V5.6H73.76Z" transform="translate(-3.89 -5.45)" fill="#b3b3b3"/><path d="M85.68,19.05H84.07a.79.79,0,0,1-.73-.39l-3.49-4.8a1.08,1.08,0,0,0-.35-.33,1.3,1.3,0,0,0-.56-.1H77.56v5.62H75.75V5.6h3.8a8,8,0,0,1,2.2.26,4.33,4.33,0,0,1,1.54.74,3,3,0,0,1,.89,1.18,3.81,3.81,0,0,1,.29,1.54,3.92,3.92,0,0,1-.22,1.34,3.64,3.64,0,0,1-.65,1.11,4,4,0,0,1-1,.84,5.21,5.21,0,0,1-1.39.52,1.84,1.84,0,0,1,.6.58Zm-6.21-6.94a4.49,4.49,0,0,0,1.39-.19,2.77,2.77,0,0,0,1-.55,2.12,2.12,0,0,0,.61-.84,2.67,2.67,0,0,0,.21-1.08,2.14,2.14,0,0,0-.79-1.81A3.85,3.85,0,0,0,79.55,7h-2v5.08Z" transform="translate(-3.89 -5.45)" fill="#b3b3b3"/><path d="M98.44,19.05H97a.61.61,0,0,1-.39-.13.65.65,0,0,1-.23-.31l-1.26-3.24h-6l-1.26,3.24a.59.59,0,0,1-.22.3.56.56,0,0,1-.39.14H85.84L91.22,5.6h1.84Zm-3.79-5L92.53,8.58c-.06-.16-.12-.35-.19-.57s-.14-.44-.2-.69a11.48,11.48,0,0,1-.4,1.27l-2.11,5.46Z" transform="translate(-3.89 -5.45)" fill="#b3b3b3"/><path d="M109.58,17.6a3.73,3.73,0,0,0,1.49-.28,3.08,3.08,0,0,0,1.11-.79,3.51,3.51,0,0,0,.69-1.21,4.8,4.8,0,0,0,.24-1.55V5.6h1.81v8.17a6,6,0,0,1-.37,2.16,4.88,4.88,0,0,1-1.06,1.72,4.72,4.72,0,0,1-1.68,1.14,6.3,6.3,0,0,1-4.47,0,4.81,4.81,0,0,1-2.75-2.86,6,6,0,0,1-.37-2.16V5.6H106v8.16a4.8,4.8,0,0,0,.24,1.55,3.51,3.51,0,0,0,.69,1.21,3.21,3.21,0,0,0,1.12.79A3.59,3.59,0,0,0,109.58,17.6Z" transform="translate(-3.89 -5.45)" fill="#b3b3b3"/><path d="M129.09,5.6V19.05h-.91a.81.81,0,0,1-.37-.08.9.9,0,0,1-.28-.25L119.75,8.58l0,.46c0,.15,0,.29,0,.42v9.59h-1.6V5.6h1.15l.15,0,.13.09.14.16L127.54,16c0-.16,0-.32,0-.47s0-.3,0-.44V5.6Z" transform="translate(-3.89 -5.45)" fill="#b3b3b3"/><path d="M143.45,19.05h-1.4a.62.62,0,0,1-.4-.13.7.7,0,0,1-.22-.31l-1.26-3.24h-6l-1.25,3.24a.59.59,0,0,1-.22.3.6.6,0,0,1-.39.14h-1.41L136.24,5.6h1.84Zm-3.79-5-2.11-5.47c-.06-.16-.13-.35-.2-.57s-.13-.44-.19-.69a11.28,11.28,0,0,1-.41,1.27l-2.11,5.46Z" transform="translate(-3.89 -5.45)" fill="#b3b3b3"/><path d="M157.7,17.56v1.49H149.4V5.6h8.29V7.08h-6.47v4.47h5.24V13h-5.24v4.59Z" transform="translate(-3.89 -5.45)" fill="#b3b3b3"/><path d="M167.12,7.7a1,1,0,0,1-.18.21.4.4,0,0,1-.24.07.66.66,0,0,1-.38-.16c-.14-.1-.32-.22-.54-.35a3.56,3.56,0,0,0-.78-.35A3.23,3.23,0,0,0,163.9,7a3.17,3.17,0,0,0-1.07.16,2.29,2.29,0,0,0-.78.45,1.93,1.93,0,0,0-.48.66,2.22,2.22,0,0,0-.16.82,1.51,1.51,0,0,0,.28.93,2.53,2.53,0,0,0,.73.64,6.25,6.25,0,0,0,1,.45l1.18.4c.4.14.8.3,1.18.47a4.18,4.18,0,0,1,1,.65,2.73,2.73,0,0,1,.73,1,3.12,3.12,0,0,1,.28,1.4,4.57,4.57,0,0,1-.3,1.66,3.8,3.8,0,0,1-.88,1.35,4.07,4.07,0,0,1-1.41.9,5.2,5.2,0,0,1-1.91.33,5.8,5.8,0,0,1-2.39-.48,5.54,5.54,0,0,1-1.83-1.28l.53-.86a.77.77,0,0,1,.18-.18.48.48,0,0,1,.24-.07.6.6,0,0,1,.28.1l.35.25.45.33a3.53,3.53,0,0,0,.58.33,4.15,4.15,0,0,0,.73.25,4.42,4.42,0,0,0,.93.1,3.45,3.45,0,0,0,1.16-.18,2.46,2.46,0,0,0,.86-.51,2.23,2.23,0,0,0,.54-.77,2.66,2.66,0,0,0,.18-1,1.71,1.71,0,0,0-.27-1,2.45,2.45,0,0,0-.73-.66,5.41,5.41,0,0,0-1-.44l-1.18-.38a10,10,0,0,1-1.19-.44,3.78,3.78,0,0,1-1-.66,3.05,3.05,0,0,1-.73-1,3.64,3.64,0,0,1-.27-1.49A3.61,3.61,0,0,1,160,7.77a3.7,3.7,0,0,1,.81-1.19,3.9,3.9,0,0,1,1.3-.82,4.71,4.71,0,0,1,1.78-.31,5.8,5.8,0,0,1,2.05.35,4.88,4.88,0,0,1,1.63,1Z" transform="translate(-3.89 -5.45)" fill="#b3b3b3"/><path d="M179.52,7.13h-4.36V19.05h-1.81V7.13H169V5.6h10.53Z" transform="translate(-3.89 -5.45)" fill="#b3b3b3"/><path d="M191.44,19.05h-1.61a.79.79,0,0,1-.73-.39l-3.49-4.8a1.08,1.08,0,0,0-.35-.33,1.3,1.3,0,0,0-.56-.1h-1.38v5.62h-1.81V5.6h3.8a8,8,0,0,1,2.2.26,4.33,4.33,0,0,1,1.54.74,3,3,0,0,1,.89,1.18,3.81,3.81,0,0,1,.29,1.54,3.92,3.92,0,0,1-.22,1.34,3.64,3.64,0,0,1-.65,1.11,4,4,0,0,1-1.05.84,5.08,5.08,0,0,1-1.39.52,1.84,1.84,0,0,1,.6.58Zm-6.21-6.94a4.6,4.6,0,0,0,1.4-.19,2.8,2.8,0,0,0,1-.55,2.12,2.12,0,0,0,.61-.84,2.67,2.67,0,0,0,.21-1.08,2.14,2.14,0,0,0-.79-1.81A3.85,3.85,0,0,0,185.31,7h-2v5.08Z" transform="translate(-3.89 -5.45)" fill="#b3b3b3"/><path d="M198.38,17.6a3.7,3.7,0,0,0,1.49-.28,3.08,3.08,0,0,0,1.11-.79,3.38,3.38,0,0,0,.7-1.21,4.8,4.8,0,0,0,.24-1.55V5.6h1.81v8.17a6,6,0,0,1-.37,2.16,5,5,0,0,1-1.06,1.72,4.67,4.67,0,0,1-1.69,1.14,6.27,6.27,0,0,1-4.46,0,4.67,4.67,0,0,1-1.69-1.14,4.9,4.9,0,0,1-1.07-1.72,6,6,0,0,1-.37-2.16V5.6h1.81v8.16a4.8,4.8,0,0,0,.24,1.55,3.38,3.38,0,0,0,.7,1.21,3.08,3.08,0,0,0,1.11.79A3.59,3.59,0,0,0,198.38,17.6Z" transform="translate(-3.89 -5.45)" fill="#b3b3b3"/><path d="M216.44,16.27a.37.37,0,0,1,.26.12l.72.78a5.8,5.8,0,0,1-2,1.49,6.84,6.84,0,0,1-2.85.54,6.6,6.6,0,0,1-2.63-.51,5.77,5.77,0,0,1-2-1.4,6.56,6.56,0,0,1-1.29-2.18,8,8,0,0,1-.46-2.78,7.78,7.78,0,0,1,.48-2.79A6.35,6.35,0,0,1,208,7.36,6.13,6.13,0,0,1,210.07,6a6.84,6.84,0,0,1,2.68-.5,6.45,6.45,0,0,1,2.53.46,6.11,6.11,0,0,1,1.93,1.25l-.6.83a.52.52,0,0,1-.14.16.43.43,0,0,1-.24.06.7.7,0,0,1-.41-.19c-.17-.12-.38-.25-.64-.4a4.93,4.93,0,0,0-1-.41A5,5,0,0,0,212.74,7a4.93,4.93,0,0,0-1.91.37,4.18,4.18,0,0,0-1.48,1,4.92,4.92,0,0,0-1,1.67,6.74,6.74,0,0,0-.34,2.23,6.54,6.54,0,0,0,.36,2.24,4.93,4.93,0,0,0,1,1.66,4.15,4.15,0,0,0,1.48,1,4.6,4.6,0,0,0,1.83.36,8.94,8.94,0,0,0,1.09-.07,4.83,4.83,0,0,0,.89-.22,4.15,4.15,0,0,0,.76-.38,8,8,0,0,0,.7-.55A.44.44,0,0,1,216.44,16.27Z" transform="translate(-3.89 -5.45)" fill="#b3b3b3"/><path d="M228.62,7.13h-4.35V19.05h-1.81V7.13H218.1V5.6h10.52Z" transform="translate(-3.89 -5.45)" fill="#b3b3b3"/><path d="M235.8,17.6a3.75,3.75,0,0,0,1.5-.28,3.17,3.17,0,0,0,1.11-.79,3.51,3.51,0,0,0,.69-1.21,4.8,4.8,0,0,0,.24-1.55V5.6h1.81v8.17a6,6,0,0,1-.37,2.16,5,5,0,0,1-1.06,1.72A4.72,4.72,0,0,1,238,18.79a6.3,6.3,0,0,1-4.47,0,4.76,4.76,0,0,1-1.69-1.14,4.88,4.88,0,0,1-1.06-1.72,6,6,0,0,1-.37-2.16V5.6h1.81v8.16a4.8,4.8,0,0,0,.24,1.55,3.51,3.51,0,0,0,.69,1.21,3.12,3.12,0,0,0,1.12.79A3.57,3.57,0,0,0,235.8,17.6Z" transform="translate(-3.89 -5.45)" fill="#b3b3b3"/><path d="M254.36,19.05h-1.62a.8.8,0,0,1-.73-.39l-3.49-4.8a1.17,1.17,0,0,0-.34-.33,1.39,1.39,0,0,0-.57-.1h-1.38v5.62h-1.81V5.6h3.8a8,8,0,0,1,2.2.26A4.25,4.25,0,0,1,252,6.6a3.13,3.13,0,0,1,.9,1.18,4,4,0,0,1,.29,1.54,3.93,3.93,0,0,1-.23,1.34,3.64,3.64,0,0,1-.65,1.11,3.92,3.92,0,0,1-1,.84,5.28,5.28,0,0,1-1.4.52,1.84,1.84,0,0,1,.6.58Zm-6.22-6.94a4.6,4.6,0,0,0,1.4-.19,2.8,2.8,0,0,0,1-.55,2.25,2.25,0,0,0,.62-.84,2.85,2.85,0,0,0,.2-1.08,2.14,2.14,0,0,0-.79-1.81A3.85,3.85,0,0,0,248.22,7h-2v5.08Z" transform="translate(-3.89 -5.45)" fill="#b3b3b3"/><path d="M267.11,19.05H265.7a.61.61,0,0,1-.39-.13.72.72,0,0,1-.23-.31l-1.26-3.24h-6l-1.26,3.24a.57.57,0,0,1-.21.3.61.61,0,0,1-.4.14h-1.4L259.89,5.6h1.84Zm-3.79-5-2.11-5.47c-.07-.16-.13-.35-.2-.57s-.13-.44-.2-.69a9.68,9.68,0,0,1-.4,1.27l-2.11,5.46Z" transform="translate(-3.89 -5.45)" fill="#b3b3b3"/></svg>