<svg id="Capa_1" data-name="Capa 1" xmlns="http://www.w3.org/2000/svg" viewBox="0 0 131.09 111.25"><title>Botón</title><rect width="131.09" height="111.25" rx="3.1" fill="#fff"/><text transform="translate(48.14 90.57)" font-size="13" fill="#666" font-family="Lato-Regular, Lato" letter-spacing="-0.01em">B<tspan x="8.31" y="0" letter-spacing="-0.01em">o</tspan><tspan x="15.56" y="0" letter-spacing="0em">t</tspan><tspan x="20.19" y="0" letter-spacing="0em">ón</tspan></text><path d="M93,34.84H41.08a4,4,0,0,0-4,4V51.15a4,4,0,0,0,4,4H77.16l-.21-1H41.08a3,3,0,0,1-3-3V38.87a3,3,0,0,1,3-3H93a3,3,0,0,1,3,3V51.15a3,3,0,0,1-3,3H85.48l2.19,1H93a4,4,0,0,0,4-4V38.87A4,4,0,0,0,93,34.84Z" transform="translate(-1 -1)" fill="#666"/><path d="M92.43,64,88,58.51l2.62-2.12a1,1,0,0,0,.37-.9.8.8,0,0,0-.09-.31,1,1,0,0,0-.49-.49l-1.12-.51-13.07-6a1,1,0,0,0-.44-.1,1,1,0,0,0-1,1.22l1.06,4.85.22,1,2,9.42a1,1,0,0,0,.65.73,1,1,0,0,0,1-.17l2.62-2.11,4.39,5.45a1,1,0,0,0,.73.37h0a.94.94,0,0,0,.63-.22l4.08-3.29a.9.9,0,0,0,.36-.65A1,1,0,0,0,92.43,64Zm-4.71,2.51L83.33,61a1,1,0,0,0-.79-.39,1,1,0,0,0-.62.22l-2.14,1.72-1.62-7.4-.21-1-.73-3.32,7.26,3.32,2.19,1,1.46.67L86,57.56A1,1,0,0,0,85.84,59l4.4,5.45Z" transform="translate(-1 -1)" fill="#fff"/><path d="M92,64.26l-4.71-5.83,3-2.43a.47.47,0,0,0,.18-.45.51.51,0,0,0-.29-.4L76,48.66a.46.46,0,0,0-.21,0,.51.51,0,0,0-.49.61l3.33,15.27a.52.52,0,0,0,.32.37.51.51,0,0,0,.17,0,.47.47,0,0,0,.32-.12l3-2.42,4.7,5.84a.48.48,0,0,0,.34.18h0a.46.46,0,0,0,.32-.11L92,65a.48.48,0,0,0,.18-.34A.5.5,0,0,0,92,64.26Zm-4.4,2.9-4.71-5.83a.48.48,0,0,0-.39-.19.51.51,0,0,0-.31.11l-2.77,2.23L76.52,50l12.55,5.74L86.31,58a.51.51,0,0,0-.08.71l4.71,5.83Z" transform="translate(-1 -1)" fill="#666"/></svg>