<svg id="Capa_1" data-name="Capa 1" xmlns="http://www.w3.org/2000/svg" viewBox="0 0 131.09 111.25"><title>Encabezado</title><rect width="131.09" height="111.25" rx="3.1" fill="#fff"/><path d="M39.29,90.87v1H33.54V82.58h5.74v1H34.81V86.7h3.62v1H34.81v3.18Z" transform="translate(-1 -1)" fill="#666"/><path d="M41.69,86.27a3.73,3.73,0,0,1,.45-.44,2.78,2.78,0,0,1,.51-.33,2.39,2.39,0,0,1,.58-.22,2.7,2.7,0,0,1,.65-.07,2.33,2.33,0,0,1,.95.18,1.76,1.76,0,0,1,.69.5,2.14,2.14,0,0,1,.42.79,3.31,3.31,0,0,1,.14,1v4.2H44.92V87.7a1.78,1.78,0,0,0-.34-1.16,1.28,1.28,0,0,0-1-.41,1.91,1.91,0,0,0-1,.25,3.18,3.18,0,0,0-.82.67V91.9H40.6V85.31h.69a.29.29,0,0,1,.31.24Z" transform="translate(-1 -1)" fill="#666"/><path d="M52.43,86.48a.36.36,0,0,1-.1.11.2.2,0,0,1-.14,0,.42.42,0,0,1-.22-.08l-.29-.18a2.93,2.93,0,0,0-.42-.18,2.15,2.15,0,0,0-.61-.08,2.09,2.09,0,0,0-.86.17,1.6,1.6,0,0,0-.62.5,2.32,2.32,0,0,0-.38.79,4,4,0,0,0-.13,1,3.78,3.78,0,0,0,.14,1.06,2.2,2.2,0,0,0,.39.78,1.64,1.64,0,0,0,.6.48,1.88,1.88,0,0,0,.8.17,1.94,1.94,0,0,0,.69-.1,2.2,2.2,0,0,0,.46-.22l.29-.23a.36.36,0,0,1,.24-.1.25.25,0,0,1,.22.11l.33.42a2.65,2.65,0,0,1-.49.46,3,3,0,0,1-.59.31,2.94,2.94,0,0,1-.66.19,4,4,0,0,1-.7.06,3,3,0,0,1-1.15-.23,2.6,2.6,0,0,1-.92-.66A3.14,3.14,0,0,1,47.7,90a4.66,4.66,0,0,1,0-2.8,3,3,0,0,1,.59-1.07,2.74,2.74,0,0,1,1-.71,3.29,3.29,0,0,1,1.33-.25,3.09,3.09,0,0,1,1.22.22,2.86,2.86,0,0,1,.94.64Z" transform="translate(-1 -1)" fill="#666"/><path d="M53.89,86.24a3.88,3.88,0,0,1,1.18-.79,3.66,3.66,0,0,1,1.39-.26,2.57,2.57,0,0,1,1,.19,2.16,2.16,0,0,1,.72.5,2.25,2.25,0,0,1,.44.79,3.29,3.29,0,0,1,.15,1V91.9h-.52a.5.5,0,0,1-.26-.06.42.42,0,0,1-.14-.22L57.71,91a4.71,4.71,0,0,1-.51.42,2.51,2.51,0,0,1-.52.32,2.63,2.63,0,0,1-.58.19,2.84,2.84,0,0,1-.68.07,2.36,2.36,0,0,1-.72-.11,1.6,1.6,0,0,1-.59-.32,1.47,1.47,0,0,1-.4-.54,1.87,1.87,0,0,1-.15-.78,1.48,1.48,0,0,1,.22-.75,1.87,1.87,0,0,1,.69-.64,4.57,4.57,0,0,1,1.26-.46,9.71,9.71,0,0,1,1.9-.2v-.52a1.78,1.78,0,0,0-.33-1.16,1.21,1.21,0,0,0-1-.39,2.1,2.1,0,0,0-.72.11,2.59,2.59,0,0,0-.5.24l-.37.24a.53.53,0,0,1-.3.11.29.29,0,0,1-.2-.07.5.5,0,0,1-.14-.15Zm3.74,2.69a9.37,9.37,0,0,0-1.36.13,4,4,0,0,0-.92.26,1.19,1.19,0,0,0-.51.39.78.78,0,0,0-.16.49,1.06,1.06,0,0,0,.08.45A.9.9,0,0,0,55,91a.82.82,0,0,0,.35.17,1.42,1.42,0,0,0,.42.06,2.4,2.4,0,0,0,.56-.06A3.41,3.41,0,0,0,56.8,91a2.87,2.87,0,0,0,.43-.28,4.49,4.49,0,0,0,.4-.37Z" transform="translate(-1 -1)" fill="#666"/><path d="M61.68,86.26a3.42,3.42,0,0,1,.94-.77,2.49,2.49,0,0,1,1.21-.28,2.36,2.36,0,0,1,1,.22,2.21,2.21,0,0,1,.79.64,3,3,0,0,1,.5,1,5,5,0,0,1,.17,1.34,5.16,5.16,0,0,1-.19,1.46A3.2,3.2,0,0,1,65.57,91a2.49,2.49,0,0,1-.89.72A2.69,2.69,0,0,1,63.5,92a2.18,2.18,0,0,1-1.1-.25,2.42,2.42,0,0,1-.78-.69l0,.6a.29.29,0,0,1-.3.25h-.75V82.32h1.16Zm0,4a1.83,1.83,0,0,0,.7.6,2,2,0,0,0,.84.18,1.66,1.66,0,0,0,1.42-.66,3.2,3.2,0,0,0,.5-2,2.93,2.93,0,0,0-.44-1.78,1.5,1.5,0,0,0-1.26-.57,1.86,1.86,0,0,0-1,.26,3,3,0,0,0-.78.73Z" transform="translate(-1 -1)" fill="#666"/><path d="M73.14,91a1.84,1.84,0,0,1-.51.45,3,3,0,0,1-.64.32,5.28,5.28,0,0,1-.71.19,4.37,4.37,0,0,1-.72.06,3.48,3.48,0,0,1-1.26-.23,2.83,2.83,0,0,1-1-.68,3,3,0,0,1-.65-1.1,4.39,4.39,0,0,1-.24-1.51,3.88,3.88,0,0,1,.21-1.29,3,3,0,0,1,.61-1,2.69,2.69,0,0,1,1-.69,3.13,3.13,0,0,1,1.29-.25,2.78,2.78,0,0,1,1.09.2,2.35,2.35,0,0,1,.87.57,2.54,2.54,0,0,1,.58.92,3.49,3.49,0,0,1,.21,1.25.77.77,0,0,1-.06.37.24.24,0,0,1-.22.09h-4.4a3.76,3.76,0,0,0,.17,1.08,2.1,2.1,0,0,0,.42.77,1.68,1.68,0,0,0,.66.46,2.06,2.06,0,0,0,.84.16,2.72,2.72,0,0,0,.75-.1,3.54,3.54,0,0,0,.54-.22,3.9,3.9,0,0,0,.38-.22.5.5,0,0,1,.27-.1.27.27,0,0,1,.22.11Zm-.93-3.08a2.17,2.17,0,0,0-.12-.74,1.44,1.44,0,0,0-.33-.58,1.47,1.47,0,0,0-.53-.38,2,2,0,0,0-2,.35,2.2,2.2,0,0,0-.6,1.35Z" transform="translate(-1 -1)" fill="#666"/><path d="M79.21,85.81a.69.69,0,0,1,0,.24.56.56,0,0,1-.11.2L75.48,91h3.6v.91h-5v-.49a.81.81,0,0,1,0-.19.94.94,0,0,1,.12-.22l3.59-4.78H74.33v-.91h4.88Z" transform="translate(-1 -1)" fill="#666"/><path d="M80.37,86.24a3.88,3.88,0,0,1,1.18-.79,3.66,3.66,0,0,1,1.39-.26,2.57,2.57,0,0,1,1,.19,2.16,2.16,0,0,1,.72.5,2.25,2.25,0,0,1,.44.79,3.29,3.29,0,0,1,.15,1V91.9h-.51a.45.45,0,0,1-.26-.06.43.43,0,0,1-.15-.22L84.19,91a5.87,5.87,0,0,1-.5.42,2.87,2.87,0,0,1-.53.32,2.63,2.63,0,0,1-.58.19,2.84,2.84,0,0,1-.68.07,2.36,2.36,0,0,1-.72-.11,1.6,1.6,0,0,1-.59-.32,1.47,1.47,0,0,1-.4-.54,1.87,1.87,0,0,1-.14-.78,1.47,1.47,0,0,1,.21-.75,1.83,1.83,0,0,1,.7-.64,4.38,4.38,0,0,1,1.25-.46,9.8,9.8,0,0,1,1.9-.2v-.52a1.78,1.78,0,0,0-.33-1.16,1.21,1.21,0,0,0-1-.39,2.1,2.1,0,0,0-.72.11,2.59,2.59,0,0,0-.5.24l-.36.24a.58.58,0,0,1-.31.11.29.29,0,0,1-.2-.07.5.5,0,0,1-.14-.15Zm3.74,2.69a9.52,9.52,0,0,0-1.36.13,4,4,0,0,0-.92.26,1.19,1.19,0,0,0-.51.39.78.78,0,0,0-.16.49,1.06,1.06,0,0,0,.08.45.9.9,0,0,0,.23.31.82.82,0,0,0,.35.17,1.42,1.42,0,0,0,.42.06,2.4,2.4,0,0,0,.56-.06,3.41,3.41,0,0,0,.48-.18,2.87,2.87,0,0,0,.43-.28,4.49,4.49,0,0,0,.4-.37Z" transform="translate(-1 -1)" fill="#666"/><path d="M92.45,82.32V91.9h-.69a.29.29,0,0,1-.31-.24l-.11-.8a3.74,3.74,0,0,1-1,.82,2.54,2.54,0,0,1-1.25.31,2.39,2.39,0,0,1-1-.22,2.21,2.21,0,0,1-.79-.64,3,3,0,0,1-.5-1,5.33,5.33,0,0,1-.18-1.45,4.56,4.56,0,0,1,.2-1.36,3.22,3.22,0,0,1,.56-1.09,2.49,2.49,0,0,1,.89-.72,2.57,2.57,0,0,1,1.19-.27,2.35,2.35,0,0,1,1,.21,2.53,2.53,0,0,1,.77.57V82.32Zm-1.16,4.56a2,2,0,0,0-.7-.61,2.08,2.08,0,0,0-.85-.17,1.68,1.68,0,0,0-1.41.65,3.09,3.09,0,0,0-.49,1.88,5,5,0,0,0,.11,1.1,2.15,2.15,0,0,0,.32.75,1.28,1.28,0,0,0,.53.43,1.61,1.61,0,0,0,.71.14,1.93,1.93,0,0,0,1-.26,3,3,0,0,0,.78-.73Z" transform="translate(-1 -1)" fill="#666"/><path d="M97.06,85.21a3.38,3.38,0,0,1,1.3.24,2.83,2.83,0,0,1,1,.68A2.86,2.86,0,0,1,100,87.2a4.56,4.56,0,0,1,0,2.8,2.79,2.79,0,0,1-.63,1.07,2.83,2.83,0,0,1-1,.68,3.67,3.67,0,0,1-2.61,0A2.75,2.75,0,0,1,94.13,90a4.56,4.56,0,0,1,0-2.8,3,3,0,0,1,.62-1.07,2.91,2.91,0,0,1,1-.68A3.36,3.36,0,0,1,97.06,85.21Zm0,5.87a1.66,1.66,0,0,0,1.45-.65A3,3,0,0,0,99,88.61a3.07,3.07,0,0,0-.48-1.84,1.69,1.69,0,0,0-1.45-.65,2,2,0,0,0-.87.17,1.67,1.67,0,0,0-.61.48,2.3,2.3,0,0,0-.36.79,4.21,4.21,0,0,0-.12,1,3,3,0,0,0,.48,1.82A1.72,1.72,0,0,0,97.06,91.08Z" transform="translate(-1 -1)" fill="#666"/><path d="M84.77,23.05H48.42A2.41,2.41,0,0,0,46,25.41V30.6a2.36,2.36,0,0,0,4.72,0V27.77H61.59V62.08H58.81a2.36,2.36,0,0,0,0,4.72H74.39a2.36,2.36,0,0,0,0-4.72H71.5V27.77H82.36V30.6a2.36,2.36,0,0,0,4.72,0V25.41a2.32,2.32,0,0,0-2.31-2.36Zm0,0" transform="translate(-1 -1)" fill="none" stroke="#666" stroke-miterlimit="10"/></svg>