<svg id="Capa_1" data-name="Capa 1" xmlns="http://www.w3.org/2000/svg" viewBox="0 0 131.09 111.25"><title>Espaciador</title><rect width="131.09" height="111.25" rx="3.1" fill="#fff"/><path d="M42.55,90.17v1H36.81V81.89h5.74v1H38.07V86H41.7v1H38.07v3.18Z" transform="translate(-1 -1)" fill="#666"/><path d="M47.77,85.7a.24.24,0,0,1-.24.14.43.43,0,0,1-.22-.07l-.3-.16a2.61,2.61,0,0,0-.43-.16,2,2,0,0,0-.58-.07,1.74,1.74,0,0,0-.53.07,1.5,1.5,0,0,0-.4.2.93.93,0,0,0-.25.31.78.78,0,0,0-.09.37.6.6,0,0,0,.15.42,1.3,1.3,0,0,0,.38.3,3.93,3.93,0,0,0,.55.21l.63.21.63.23a2.44,2.44,0,0,1,.54.33,1.53,1.53,0,0,1,.39.48,1.4,1.4,0,0,1,.14.68A2.13,2.13,0,0,1,48,90a2,2,0,0,1-.48.67,2.44,2.44,0,0,1-.78.44,3.17,3.17,0,0,1-1.07.16,3.3,3.3,0,0,1-1.24-.22,3,3,0,0,1-.95-.58l.27-.44a.77.77,0,0,1,.12-.13.36.36,0,0,1,.19,0,.42.42,0,0,1,.24.09,3.71,3.71,0,0,0,.32.2,2.4,2.4,0,0,0,.45.2,2.1,2.1,0,0,0,.66.09,1.7,1.7,0,0,0,.59-.09,1.18,1.18,0,0,0,.43-.23A1.07,1.07,0,0,0,47,89.8a1.15,1.15,0,0,0,.08-.41.69.69,0,0,0-.15-.46,1.06,1.06,0,0,0-.38-.3,2.74,2.74,0,0,0-.55-.22l-.63-.2a5.87,5.87,0,0,1-.63-.24,2.29,2.29,0,0,1-.55-.33,1.51,1.51,0,0,1-.54-1.22,1.8,1.8,0,0,1,.16-.72,1.67,1.67,0,0,1,.45-.61,2.14,2.14,0,0,1,.74-.42,2.78,2.78,0,0,1,1-.16,3.05,3.05,0,0,1,1.17.21,2.64,2.64,0,0,1,.89.56Z" transform="translate(-1 -1)" fill="#666"/><path d="M50.67,85.64a3.42,3.42,0,0,1,1-.83,2.49,2.49,0,0,1,1.25-.31,2.36,2.36,0,0,1,1,.22,2.08,2.08,0,0,1,.78.64,2.9,2.9,0,0,1,.5,1.06,5.25,5.25,0,0,1,.18,1.44,4.56,4.56,0,0,1-.2,1.36,3.22,3.22,0,0,1-.56,1.09,2.66,2.66,0,0,1-.9.72,2.7,2.7,0,0,1-1.19.26,2.46,2.46,0,0,1-1-.2,2.53,2.53,0,0,1-.77-.57v2.91H49.57V84.61h.69a.3.3,0,0,1,.31.25Zm.06,4a1.88,1.88,0,0,0,.7.61,1.91,1.91,0,0,0,.84.17,1.66,1.66,0,0,0,1.42-.65,3.07,3.07,0,0,0,.49-1.88,4.49,4.49,0,0,0-.11-1.1,2.32,2.32,0,0,0-.33-.76,1.3,1.3,0,0,0-.53-.43,1.71,1.71,0,0,0-.7-.14,1.93,1.93,0,0,0-1,.26,3,3,0,0,0-.78.74Z" transform="translate(-1 -1)" fill="#666"/><path d="M56.69,85.54a3.63,3.63,0,0,1,1.17-.78,3.53,3.53,0,0,1,1.4-.26,2.52,2.52,0,0,1,1,.18,1.89,1.89,0,0,1,.72.51,2.06,2.06,0,0,1,.44.78,3.31,3.31,0,0,1,.15,1V91.2H61a.48.48,0,0,1-.26-.06.34.34,0,0,1-.14-.21l-.13-.63-.51.43a2.75,2.75,0,0,1-.52.31,3.6,3.6,0,0,1-.58.2,3.69,3.69,0,0,1-.69.06,2.46,2.46,0,0,1-.72-.1,1.8,1.8,0,0,1-.59-.33,1.45,1.45,0,0,1-.39-.54,1.86,1.86,0,0,1-.15-.77,1.53,1.53,0,0,1,.21-.76,2,2,0,0,1,.7-.64,4.51,4.51,0,0,1,1.25-.45,9.72,9.72,0,0,1,1.9-.21V87a1.76,1.76,0,0,0-.33-1.16,1.17,1.17,0,0,0-1-.4,2.18,2.18,0,0,0-.72.11,2.59,2.59,0,0,0-.5.24l-.36.24a.53.53,0,0,1-.3.11.32.32,0,0,1-.2-.06.54.54,0,0,1-.15-.15Zm3.73,2.7a9.81,9.81,0,0,0-1.36.12,4.07,4.07,0,0,0-.92.27,1.22,1.22,0,0,0-.51.38.8.8,0,0,0-.16.49,1,1,0,0,0,.09.45.72.72,0,0,0,.23.31.92.92,0,0,0,.34.18,2,2,0,0,0,.43,0,2.47,2.47,0,0,0,.56-.06,1.91,1.91,0,0,0,.47-.18A2.44,2.44,0,0,0,60,90a3.44,3.44,0,0,0,.4-.37Z" transform="translate(-1 -1)" fill="#666"/><path d="M67.9,85.79l-.11.11a.26.26,0,0,1-.14,0,.35.35,0,0,1-.21-.09l-.29-.18a2.57,2.57,0,0,0-.43-.17,1.78,1.78,0,0,0-.61-.09,2,2,0,0,0-.86.18,1.73,1.73,0,0,0-.62.49,2.32,2.32,0,0,0-.38.79,4.1,4.1,0,0,0-.12,1A3.87,3.87,0,0,0,64.26,89a2.38,2.38,0,0,0,.39.78,1.67,1.67,0,0,0,.61.48,1.83,1.83,0,0,0,.79.16,2,2,0,0,0,.7-.1,1.89,1.89,0,0,0,.45-.22,2.89,2.89,0,0,0,.3-.23.42.42,0,0,1,.24-.1.28.28,0,0,1,.22.11l.32.43a2.1,2.1,0,0,1-.49.45,2.78,2.78,0,0,1-.59.32,3.46,3.46,0,0,1-.65.18,4.17,4.17,0,0,1-.71.06,2.87,2.87,0,0,1-1.14-.23,2.52,2.52,0,0,1-.92-.66,2.9,2.9,0,0,1-.61-1.06,4.26,4.26,0,0,1-.23-1.44,4.15,4.15,0,0,1,.21-1.35,3.15,3.15,0,0,1,.6-1.08,2.55,2.55,0,0,1,1-.7A3.2,3.2,0,0,1,66,84.51a3.09,3.09,0,0,1,1.22.23,2.88,2.88,0,0,1,.94.63Z" transform="translate(-1 -1)" fill="#666"/><path d="M71,82.55a.64.64,0,0,1-.07.31.68.68,0,0,1-.18.26.64.64,0,0,1-.27.18.68.68,0,0,1-.32.07.67.67,0,0,1-.31-.07.76.76,0,0,1-.26-.18.78.78,0,0,1-.17-.26.64.64,0,0,1-.07-.31.71.71,0,0,1,.07-.32.83.83,0,0,1,.17-.27.76.76,0,0,1,.26-.18.81.81,0,0,1,.31-.06.83.83,0,0,1,.32.06.64.64,0,0,1,.27.18.88.88,0,0,1,.25.59Zm-.25,2.06V91.2H69.59V84.61Z" transform="translate(-1 -1)" fill="#666"/><path d="M72.47,85.54a3.78,3.78,0,0,1,1.18-.78,3.53,3.53,0,0,1,1.4-.26,2.52,2.52,0,0,1,1,.18,2,2,0,0,1,.72.51,2.06,2.06,0,0,1,.44.78,3.31,3.31,0,0,1,.15,1V91.2h-.51a.48.48,0,0,1-.26-.06.34.34,0,0,1-.14-.21l-.14-.63c-.17.16-.34.3-.5.43a3.1,3.1,0,0,1-.52.31,3.6,3.6,0,0,1-.58.2,3.69,3.69,0,0,1-.69.06,2.37,2.37,0,0,1-.72-.1,1.7,1.7,0,0,1-.59-.33,1.47,1.47,0,0,1-.4-.54,2,2,0,0,1-.14-.77,1.53,1.53,0,0,1,.21-.76,2,2,0,0,1,.7-.64,4.51,4.51,0,0,1,1.25-.45,9.72,9.72,0,0,1,1.9-.21V87a1.76,1.76,0,0,0-.33-1.16,1.17,1.17,0,0,0-1-.4,2.14,2.14,0,0,0-.72.11,2.59,2.59,0,0,0-.5.24l-.36.24a.55.55,0,0,1-.3.11.37.37,0,0,1-.21-.06.67.67,0,0,1-.14-.15Zm3.74,2.7a9.67,9.67,0,0,0-1.36.12,3.92,3.92,0,0,0-.92.27,1.22,1.22,0,0,0-.51.38.8.8,0,0,0-.16.49,1.17,1.17,0,0,0,.08.45.93.93,0,0,0,.23.31,1.06,1.06,0,0,0,.35.18,1.88,1.88,0,0,0,.43,0,2.32,2.32,0,0,0,.55-.06,2,2,0,0,0,.48-.18,2.87,2.87,0,0,0,.43-.28,3.44,3.44,0,0,0,.4-.37Z" transform="translate(-1 -1)" fill="#666"/><path d="M84.55,81.63V91.2h-.69a.29.29,0,0,1-.31-.24l-.1-.8a3.75,3.75,0,0,1-1,.82,2.4,2.4,0,0,1-1.24.31,2.32,2.32,0,0,1-1-.22,2.11,2.11,0,0,1-.79-.64,3,3,0,0,1-.5-1.05,5.3,5.3,0,0,1-.17-1.45,4.56,4.56,0,0,1,.19-1.36,3.35,3.35,0,0,1,.56-1.08,2.63,2.63,0,0,1,.89-.73,2.75,2.75,0,0,1,1.2-.26,2.49,2.49,0,0,1,1,.2,2.53,2.53,0,0,1,.77.57V81.63Zm-1.16,4.55a1.88,1.88,0,0,0-.7-.61,2.07,2.07,0,0,0-.84-.17,1.65,1.65,0,0,0-1.41.66,3.06,3.06,0,0,0-.5,1.87,4.91,4.91,0,0,0,.11,1.1,2.13,2.13,0,0,0,.33.76,1.34,1.34,0,0,0,.52.43,1.8,1.8,0,0,0,.71.13,1.82,1.82,0,0,0,1-.26,2.67,2.67,0,0,0,.78-.73Z" transform="translate(-1 -1)" fill="#666"/><path d="M89.16,84.51a3.38,3.38,0,0,1,1.3.24,3,3,0,0,1,1,.68,3.07,3.07,0,0,1,.62,1.07,4.6,4.6,0,0,1,0,2.81,2.94,2.94,0,0,1-.62,1.06,2.7,2.7,0,0,1-1,.68,3.67,3.67,0,0,1-2.61,0,2.55,2.55,0,0,1-1-.68,3,3,0,0,1-.63-1.06,4.6,4.6,0,0,1,0-2.81,3.09,3.09,0,0,1,.63-1.07,2.78,2.78,0,0,1,1-.68A3.4,3.4,0,0,1,89.16,84.51Zm0,5.88a1.67,1.67,0,0,0,1.45-.66,2.94,2.94,0,0,0,.49-1.82,3,3,0,0,0-.49-1.83,1.67,1.67,0,0,0-1.45-.66,2.06,2.06,0,0,0-.86.17,1.54,1.54,0,0,0-.61.49,2,2,0,0,0-.37.78,4.21,4.21,0,0,0-.12,1,2.94,2.94,0,0,0,.49,1.82A1.7,1.7,0,0,0,89.16,90.39Z" transform="translate(-1 -1)" fill="#666"/><path d="M94.85,85.94a2.94,2.94,0,0,1,.77-1.06,1.63,1.63,0,0,1,1.11-.38,1.75,1.75,0,0,1,.4,0,1,1,0,0,1,.34.15l-.08.86a.19.19,0,0,1-.2.16,1,1,0,0,1-.26,0,2.41,2.41,0,0,0-.4,0,1.64,1.64,0,0,0-.56.09,1.3,1.3,0,0,0-.43.27,2,2,0,0,0-.35.44,3.37,3.37,0,0,0-.27.6V91.2H93.75V84.61h.67a.37.37,0,0,1,.26.08.42.42,0,0,1,.09.24Z" transform="translate(-1 -1)" fill="#666"/><rect x="36.54" y="21.55" width="59" height="16" rx="1.08" fill="none" stroke="#666" stroke-miterlimit="10"/><rect x="36.54" y="49.55" width="59" height="16" rx="1.08" fill="none" stroke="#666" stroke-miterlimit="10"/></svg>