<svg id="Capa_1" data-name="Capa 1" xmlns="http://www.w3.org/2000/svg" viewBox="0 0 130.85 111.05"><title>Estrcutura 5</title><rect width="130.85" height="111.05" rx="3.1" fill="#fff"/><path d="M49.08,28.81a3,3,0,0,1,3,3V83.2a3,3,0,0,1-3,3H26.72a3,3,0,0,1-3-3V31.85a3.05,3.05,0,0,1,3-3H49.08m0-1.3H26.72a4.34,4.34,0,0,0-4.34,4.34V83.2a4.34,4.34,0,0,0,4.34,4.34H49.08a4.34,4.34,0,0,0,4.34-4.34V31.85a4.34,4.34,0,0,0-4.34-4.34Z" transform="translate(-3 -2)" fill="#666"/><path d="M110.13,28.81a3,3,0,0,1,3,3V83.2a3,3,0,0,1-3,3H60.76a3,3,0,0,1-3-3V31.85a3,3,0,0,1,3-3h49.37m0-1.3H60.76a4.34,4.34,0,0,0-4.34,4.34V83.2a4.34,4.34,0,0,0,4.34,4.34h49.37a4.34,4.34,0,0,0,4.34-4.34V31.85a4.34,4.34,0,0,0-4.34-4.34Z" transform="translate(-3 -2)" fill="#666"/></svg>