<svg id="Capa_1" data-name="Capa 1" xmlns="http://www.w3.org/2000/svg" viewBox="0 0 130.85 111.05"><title>Estrcutura 4</title><rect width="130.85" height="111.05" rx="3.1" fill="#fff"/><path d="M38.46,28.81a3,3,0,0,1,3,3V83.2a3,3,0,0,1-3,3H26.7a3,3,0,0,1-3-3V31.85a3.05,3.05,0,0,1,3-3H38.46m0-1.3H26.7a4.34,4.34,0,0,0-4.34,4.34V83.2a4.34,4.34,0,0,0,4.34,4.34H38.46A4.34,4.34,0,0,0,42.8,83.2V31.85a4.34,4.34,0,0,0-4.34-4.34Z" transform="translate(-3 -2)" fill="#666"/><path d="M62.36,28.81a3,3,0,0,1,3,3V83.2a3,3,0,0,1-3,3H50.6a3,3,0,0,1-3-3V31.85a3,3,0,0,1,3-3H62.36m0-1.3H50.6a4.34,4.34,0,0,0-4.34,4.34V83.2a4.34,4.34,0,0,0,4.34,4.34H62.36A4.34,4.34,0,0,0,66.7,83.2V31.85a4.34,4.34,0,0,0-4.34-4.34Z" transform="translate(-3 -2)" fill="#666"/><path d="M86.25,28.81a3,3,0,0,1,3,3V83.2a3,3,0,0,1-3,3H74.49a3,3,0,0,1-3-3V31.85a3.05,3.05,0,0,1,3-3H86.25m0-1.3H74.49a4.34,4.34,0,0,0-4.34,4.34V83.2a4.34,4.34,0,0,0,4.34,4.34H86.25a4.34,4.34,0,0,0,4.34-4.34V31.85a4.34,4.34,0,0,0-4.34-4.34Z" transform="translate(-3 -2)" fill="#666"/><path d="M110.15,28.81a3,3,0,0,1,3,3V83.2a3,3,0,0,1-3,3H98.39a3,3,0,0,1-3-3V31.85a3,3,0,0,1,3-3h11.76m0-1.3H98.39a4.34,4.34,0,0,0-4.34,4.34V83.2a4.34,4.34,0,0,0,4.34,4.34h11.76a4.34,4.34,0,0,0,4.34-4.34V31.85a4.34,4.34,0,0,0-4.34-4.34Z" transform="translate(-3 -2)" fill="#666"/></svg>