<svg id="Capa_1" data-name="Capa 1" xmlns="http://www.w3.org/2000/svg" viewBox="0 0 130.85 111.05"><title>Estrcutura 2</title><rect width="130.85" height="111.05" rx="3.1" fill="#fff"/><path d="M62.11,28.81a3.05,3.05,0,0,1,3,3V83.2a3,3,0,0,1-3,3H26.72a3,3,0,0,1-3-3V31.85a3.05,3.05,0,0,1,3-3H62.11m0-1.3H26.72a4.34,4.34,0,0,0-4.34,4.34V83.2a4.34,4.34,0,0,0,4.34,4.34H62.11a4.34,4.34,0,0,0,4.34-4.34V31.85a4.34,4.34,0,0,0-4.34-4.34Z" transform="translate(-3 -2)" fill="#666"/><path d="M110.13,28.81a3,3,0,0,1,3,3V83.2a3,3,0,0,1-3,3H74.74a3,3,0,0,1-3-3V31.85a3.05,3.05,0,0,1,3-3h35.39m0-1.3H74.74a4.34,4.34,0,0,0-4.34,4.34V83.2a4.34,4.34,0,0,0,4.34,4.34h35.39a4.34,4.34,0,0,0,4.34-4.34V31.85a4.34,4.34,0,0,0-4.34-4.34Z" transform="translate(-3 -2)" fill="#666"/></svg>