<svg id="Capa_1" data-name="Capa 1" xmlns="http://www.w3.org/2000/svg" viewBox="0 0 131.09 111.25"><title>Imagen</title><rect width="131.09" height="111.25" rx="3.1" fill="#fff"/><path d="M48.26,91.57H47V82.26h1.26Z" transform="translate(-1 -1)" fill="#666"/><path d="M50.27,91.57V85H51a.29.29,0,0,1,.31.24l.08.67a3.5,3.5,0,0,1,.82-.73,2,2,0,0,1,1.06-.29,1.56,1.56,0,0,1,1.07.37,2.06,2.06,0,0,1,.6,1,2,2,0,0,1,.36-.61,1.88,1.88,0,0,1,.51-.43,1.81,1.81,0,0,1,.59-.25,2.8,2.8,0,0,1,.64-.08,2.45,2.45,0,0,1,.93.17,1.87,1.87,0,0,1,.69.48,2.15,2.15,0,0,1,.43.79,3.43,3.43,0,0,1,.15,1.06v4.19H58V87.38a1.82,1.82,0,0,0-.34-1.18,1.23,1.23,0,0,0-1-.39,1.4,1.4,0,0,0-.54.1,1.2,1.2,0,0,0-.45.29,1.52,1.52,0,0,0-.31.49,1.85,1.85,0,0,0-.11.69v4.19H54.14V87.38a1.84,1.84,0,0,0-.32-1.19,1.14,1.14,0,0,0-.92-.38,1.41,1.41,0,0,0-.8.23,2.76,2.76,0,0,0-.67.62v4.91Z" transform="translate(-1 -1)" fill="#666"/><path d="M60.79,85.92A3.65,3.65,0,0,1,62,85.13a3.71,3.71,0,0,1,1.4-.26,2.52,2.52,0,0,1,1,.18,2.05,2.05,0,0,1,.72.51,2.16,2.16,0,0,1,.44.79,3.2,3.2,0,0,1,.15,1v4.21h-.51a.57.57,0,0,1-.26,0,.43.43,0,0,1-.15-.22l-.13-.63a6.08,6.08,0,0,1-.5.43,3.1,3.1,0,0,1-.52.31,2.84,2.84,0,0,1-.58.2,3.69,3.69,0,0,1-.69.06,2.37,2.37,0,0,1-.72-.1,1.68,1.68,0,0,1-.59-.32,1.59,1.59,0,0,1-.4-.55,2,2,0,0,1-.14-.77,1.47,1.47,0,0,1,.21-.75,1.83,1.83,0,0,1,.7-.64,4.49,4.49,0,0,1,1.25-.46,9.72,9.72,0,0,1,1.9-.21v-.51a1.76,1.76,0,0,0-.33-1.16,1.19,1.19,0,0,0-1-.39,2.12,2.12,0,0,0-.72.1,2.59,2.59,0,0,0-.5.24l-.36.24a.49.49,0,0,1-.31.11.36.36,0,0,1-.2-.06.67.67,0,0,1-.14-.15Zm3.74,2.69a9.67,9.67,0,0,0-1.36.12,3.92,3.92,0,0,0-.92.27,1.16,1.16,0,0,0-.51.38.8.8,0,0,0-.16.49,1.17,1.17,0,0,0,.08.45.93.93,0,0,0,.23.31,1.06,1.06,0,0,0,.35.18,1.86,1.86,0,0,0,.42,0,2.4,2.4,0,0,0,.56-.06,2,2,0,0,0,.48-.18,2.87,2.87,0,0,0,.43-.28,3.44,3.44,0,0,0,.4-.37Z" transform="translate(-1 -1)" fill="#666"/><path d="M73,85.25v.43q0,.21-.27.27l-.75.1a2,2,0,0,1,.22.94,1.93,1.93,0,0,1-.19.88,2,2,0,0,1-.5.67,2.23,2.23,0,0,1-.79.43,3.1,3.1,0,0,1-1,.15,3.45,3.45,0,0,1-.87-.11,1.13,1.13,0,0,0-.32.28.42.42,0,0,0-.11.29.39.39,0,0,0,.19.36,1.46,1.46,0,0,0,.5.17,7,7,0,0,0,.71.06l.82,0a5.41,5.41,0,0,1,.82.1,2.12,2.12,0,0,1,.71.23,1.39,1.39,0,0,1,.51.45,1.29,1.29,0,0,1,.19.74,1.75,1.75,0,0,1-.21.82,2.24,2.24,0,0,1-.61.7,3.16,3.16,0,0,1-1,.5,4.35,4.35,0,0,1-1.3.18,4.76,4.76,0,0,1-1.26-.14,3.13,3.13,0,0,1-.9-.38,1.75,1.75,0,0,1-.53-.56,1.31,1.31,0,0,1-.18-.66,1.18,1.18,0,0,1,.3-.82,2.11,2.11,0,0,1,.84-.54,1.28,1.28,0,0,1-.46-.35.9.9,0,0,1-.17-.59.86.86,0,0,1,0-.3,1.1,1.1,0,0,1,.16-.3,1.75,1.75,0,0,1,.26-.29,1.88,1.88,0,0,1,.36-.24,2,2,0,0,1-.76-.73A2,2,0,0,1,67.22,87a1.92,1.92,0,0,1,.19-.87,2,2,0,0,1,.51-.67,2.72,2.72,0,0,1,.79-.43,3.57,3.57,0,0,1,1-.14,3.44,3.44,0,0,1,.8.09,2.5,2.5,0,0,1,.67.28ZM71.8,91.93a.56.56,0,0,0-.13-.39,1,1,0,0,0-.37-.24,3.12,3.12,0,0,0-.54-.12l-.64-.05-.7,0a4.74,4.74,0,0,1-.67-.07,2.1,2.1,0,0,0-.6.43.88.88,0,0,0-.23.6.73.73,0,0,0,.12.41,1,1,0,0,0,.34.34A2.51,2.51,0,0,0,69,93a4.13,4.13,0,0,0,.84.08,3.61,3.61,0,0,0,.84-.09,1.82,1.82,0,0,0,.62-.24,1,1,0,0,0,.4-.37A.85.85,0,0,0,71.8,91.93Zm-2.08-3.58a1.87,1.87,0,0,0,.61-.09,1.28,1.28,0,0,0,.45-.28,1.15,1.15,0,0,0,.28-.42,1.51,1.51,0,0,0,.09-.53,1.31,1.31,0,0,0-.37-1,1.8,1.8,0,0,0-2.13,0,1.27,1.27,0,0,0-.37,1,1.51,1.51,0,0,0,.09.53,1.15,1.15,0,0,0,.28.42,1.28,1.28,0,0,0,.45.28A1.93,1.93,0,0,0,69.72,88.35Z" transform="translate(-1 -1)" fill="#666"/><path d="M79.42,90.65a2.22,2.22,0,0,1-.51.45,3.15,3.15,0,0,1-.64.31,3.38,3.38,0,0,1-.71.19,4.37,4.37,0,0,1-.72.06,3.48,3.48,0,0,1-1.26-.23,2.8,2.8,0,0,1-1-.67,3,3,0,0,1-.65-1.11,4.33,4.33,0,0,1-.24-1.5,3.88,3.88,0,0,1,.21-1.29,3.07,3.07,0,0,1,.61-1,2.85,2.85,0,0,1,1-.69,3.3,3.3,0,0,1,1.29-.25,3,3,0,0,1,1.09.2,2.35,2.35,0,0,1,.87.57,2.58,2.58,0,0,1,.58.93,3.45,3.45,0,0,1,.21,1.25.72.72,0,0,1-.06.36.25.25,0,0,1-.22.09h-4.4A3.84,3.84,0,0,0,75,89.37a2.19,2.19,0,0,0,.42.77,1.84,1.84,0,0,0,.65.46,2.3,2.3,0,0,0,.85.15,2.39,2.39,0,0,0,.75-.1,3.54,3.54,0,0,0,.54-.22l.38-.21a.5.5,0,0,1,.27-.11.26.26,0,0,1,.22.12Zm-.93-3.09a2.21,2.21,0,0,0-.12-.74,1.59,1.59,0,0,0-.33-.58,1.45,1.45,0,0,0-.53-.37,1.76,1.76,0,0,0-.71-.14,1.78,1.78,0,0,0-1.31.49,2.24,2.24,0,0,0-.61,1.34Z" transform="translate(-1 -1)" fill="#666"/><path d="M82,85.94a4.6,4.6,0,0,1,.46-.43,3.48,3.48,0,0,1,.51-.34,2.78,2.78,0,0,1,.57-.21,2.71,2.71,0,0,1,.66-.08,2.4,2.4,0,0,1,1,.18,1.94,1.94,0,0,1,.69.51,2.2,2.2,0,0,1,.41.79,3.31,3.31,0,0,1,.15,1v4.19H85.26V87.38a1.75,1.75,0,0,0-.34-1.16,1.23,1.23,0,0,0-1-.41,2,2,0,0,0-1,.24,3.22,3.22,0,0,0-.82.67v4.85H80.94V85h.7a.28.28,0,0,1,.3.24Z" transform="translate(-1 -1)" fill="#666"/><rect x="35.53" y="22.55" width="60" height="43" rx="1.08" fill="none" stroke="#666" stroke-miterlimit="10"/><polygon points="95.22 57.24 80.5 45.17 69.01 52.66 50.51 38.17 35.81 48.11 35.25 47.28 50.55 36.93 69.06 51.44 80.57 43.93 95.85 56.47 95.22 57.24" fill="#666"/><path d="M71.53,41.05a5.5,5.5,0,1,1,5.5-5.5A5.51,5.51,0,0,1,71.53,41.05Zm0-10a4.5,4.5,0,1,0,4.5,4.5A4.51,4.51,0,0,0,71.53,31.05Z" transform="translate(-1 -1)" fill="#666"/></svg>