<svg id="Capa_1" data-name="Capa 1" xmlns="http://www.w3.org/2000/svg" viewBox="0 0 131.09 111.25"><title>Imagen y texto</title><rect width="131.09" height="111.25" rx="3.1" fill="#fff"/><path d="M26.22,91.9H25V82.58h1.26Z" transform="translate(-1 -1)" fill="#666"/><path d="M28.23,91.9V85.31h.7a.28.28,0,0,1,.3.24l.09.68a3.19,3.19,0,0,1,.82-.74,1.92,1.92,0,0,1,1.05-.28,1.52,1.52,0,0,1,1.07.37,2,2,0,0,1,.6,1,2.13,2.13,0,0,1,.37-.62,2.28,2.28,0,0,1,.5-.43,2.15,2.15,0,0,1,.59-.24,2.34,2.34,0,0,1,.64-.08,2.45,2.45,0,0,1,.93.16,1.89,1.89,0,0,1,.69.49,2.1,2.1,0,0,1,.43.78,3.48,3.48,0,0,1,.15,1.06v4.2H36V87.7a1.76,1.76,0,0,0-.34-1.17,1.18,1.18,0,0,0-1-.4,1.42,1.42,0,0,0-.55.1,1.37,1.37,0,0,0-.45.3,1.42,1.42,0,0,0-.31.49,2,2,0,0,0-.11.68v4.2H32.11V87.7a1.87,1.87,0,0,0-.32-1.18,1.15,1.15,0,0,0-.93-.39,1.52,1.52,0,0,0-.8.23,2.81,2.81,0,0,0-.67.63V91.9Z" transform="translate(-1 -1)" fill="#666"/><path d="M38.75,86.24a4,4,0,0,1,1.18-.79,3.71,3.71,0,0,1,1.4-.25,2.52,2.52,0,0,1,1,.18,2,2,0,0,1,.72.5,2.1,2.1,0,0,1,.44.79,3.29,3.29,0,0,1,.15,1V91.9h-.51a.48.48,0,0,1-.26-.06.37.37,0,0,1-.14-.22L42.58,91q-.27.24-.51.42a3.17,3.17,0,0,1-.52.32,2.81,2.81,0,0,1-.58.19,3,3,0,0,1-.69.07,2.46,2.46,0,0,1-.72-.11,1.77,1.77,0,0,1-.59-.32,1.45,1.45,0,0,1-.39-.54,1.87,1.87,0,0,1-.15-.78,1.47,1.47,0,0,1,.21-.75,2,2,0,0,1,.7-.64,4.49,4.49,0,0,1,1.25-.46,9.8,9.8,0,0,1,1.9-.2v-.52a1.78,1.78,0,0,0-.33-1.16,1.19,1.19,0,0,0-1-.39,2.18,2.18,0,0,0-.72.11,2.59,2.59,0,0,0-.5.24l-.36.24a.53.53,0,0,1-.3.11.27.27,0,0,1-.2-.07.54.54,0,0,1-.15-.15Zm3.74,2.69a9.67,9.67,0,0,0-1.36.13,4.11,4.11,0,0,0-.92.26,1.32,1.32,0,0,0-.51.39.78.78,0,0,0-.16.49,1.06,1.06,0,0,0,.09.45.82.82,0,0,0,.57.48,1.44,1.44,0,0,0,.43.06,2.47,2.47,0,0,0,.56-.06,2.68,2.68,0,0,0,.47-.18,2.44,2.44,0,0,0,.43-.28,3.44,3.44,0,0,0,.4-.37Z" transform="translate(-1 -1)" fill="#666"/><path d="M50.94,85.57V86c0,.14-.09.24-.27.27l-.75.1a2,2,0,0,1,.22.95,2.05,2.05,0,0,1-.18.87,2.17,2.17,0,0,1-.51.68,2.45,2.45,0,0,1-.78.43,3.21,3.21,0,0,1-1,.15,3.45,3.45,0,0,1-.87-.11,1,1,0,0,0-.32.27.53.53,0,0,0-.11.3.39.39,0,0,0,.19.35,1.34,1.34,0,0,0,.5.17,4.88,4.88,0,0,0,.72.07l.82,0a7.17,7.17,0,0,1,.81.1,2.54,2.54,0,0,1,.72.24,1.22,1.22,0,0,1,.69,1.19,1.69,1.69,0,0,1-.21.81,2.14,2.14,0,0,1-.61.71,3,3,0,0,1-1,.49,4,4,0,0,1-1.3.19,5.21,5.21,0,0,1-1.26-.14,2.94,2.94,0,0,1-.89-.39,1.66,1.66,0,0,1-.54-.55,1.31,1.31,0,0,1-.18-.66,1.17,1.17,0,0,1,.31-.83,2.22,2.22,0,0,1,.83-.54,1.17,1.17,0,0,1-.46-.35.93.93,0,0,1-.17-.58,1,1,0,0,1,0-.3,1.31,1.31,0,0,1,.16-.31,1.69,1.69,0,0,1,.26-.28,1.6,1.6,0,0,1,.37-.25,2,2,0,0,1-.76-.72,2.1,2.1,0,0,1-.09-1.92,1.79,1.79,0,0,1,.51-.67,2.42,2.42,0,0,1,.79-.43,3.29,3.29,0,0,1,1-.15,3,3,0,0,1,.8.1,2.35,2.35,0,0,1,.67.27Zm-1.17,6.68a.56.56,0,0,0-.14-.39.9.9,0,0,0-.37-.23,2,2,0,0,0-.53-.12l-.65-.06-.69,0c-.24,0-.46,0-.68-.06a1.77,1.77,0,0,0-.59.43.85.85,0,0,0-.24.6.78.78,0,0,0,.12.41.86.86,0,0,0,.35.33,2,2,0,0,0,.58.22,3.52,3.52,0,0,0,.84.08,3.63,3.63,0,0,0,.84-.08,2.44,2.44,0,0,0,.63-.24,1.27,1.27,0,0,0,.39-.37A.87.87,0,0,0,49.77,92.25Zm-2.09-3.57a1.72,1.72,0,0,0,.62-.1,1.16,1.16,0,0,0,.44-.27,1.07,1.07,0,0,0,.28-.42,1.53,1.53,0,0,0,.09-.54,1.27,1.27,0,0,0-.37-1,1.76,1.76,0,0,0-2.13,0,1.27,1.27,0,0,0-.37,1,1.33,1.33,0,0,0,.1.54,1.17,1.17,0,0,0,.27.42,1.13,1.13,0,0,0,.45.27A1.68,1.68,0,0,0,47.68,88.68Z" transform="translate(-1 -1)" fill="#666"/><path d="M57.38,91a1.84,1.84,0,0,1-.51.45,3,3,0,0,1-.64.32,5.28,5.28,0,0,1-.71.19,4.37,4.37,0,0,1-.72.06,3.39,3.39,0,0,1-1.25-.23,2.78,2.78,0,0,1-1-.68A3,3,0,0,1,51.9,90a4.39,4.39,0,0,1-.24-1.51,3.64,3.64,0,0,1,.22-1.29,3,3,0,0,1,.6-1,2.69,2.69,0,0,1,1-.69,3.13,3.13,0,0,1,1.29-.25,2.78,2.78,0,0,1,1.09.2,2.35,2.35,0,0,1,.87.57,2.54,2.54,0,0,1,.58.92,3.49,3.49,0,0,1,.21,1.25.77.77,0,0,1-.06.37.24.24,0,0,1-.22.09h-4.4A3.76,3.76,0,0,0,53,89.69a2,2,0,0,0,.43.77,1.58,1.58,0,0,0,.65.46,2.06,2.06,0,0,0,.84.16,2.72,2.72,0,0,0,.75-.1,3.54,3.54,0,0,0,.54-.22,3,3,0,0,0,.38-.22.5.5,0,0,1,.27-.1.27.27,0,0,1,.22.11Zm-.93-3.08a2.17,2.17,0,0,0-.12-.74,1.44,1.44,0,0,0-.33-.58,1.47,1.47,0,0,0-.53-.38,2,2,0,0,0-2,.35,2.26,2.26,0,0,0-.6,1.35Z" transform="translate(-1 -1)" fill="#666"/><path d="M60,86.27a3.73,3.73,0,0,1,.45-.44A2.78,2.78,0,0,1,61,85.5a2.32,2.32,0,0,1,.57-.22,2.73,2.73,0,0,1,.66-.07,2.37,2.37,0,0,1,1,.18,1.92,1.92,0,0,1,.69.5,2.48,2.48,0,0,1,.42.79,3.64,3.64,0,0,1,.14,1v4.2H63.23V87.7a1.84,1.84,0,0,0-.34-1.16,1.3,1.3,0,0,0-1-.41,1.91,1.91,0,0,0-1,.25,3,3,0,0,0-.82.67V91.9H58.9V85.31h.7a.29.29,0,0,1,.31.24Z" transform="translate(-1 -1)" fill="#666"/><path d="M75.46,88H72.81v2.8h-.94V88H69.23v-.88h2.64V84.32h.94v2.77h2.65Z" transform="translate(-1 -1)" fill="#666"/><path d="M82.38,92a1.59,1.59,0,0,1-1.2-.43,1.76,1.76,0,0,1-.42-1.26v-4H80a.27.27,0,0,1-.17-.06.24.24,0,0,1-.07-.19v-.46l1.08-.14.26-2a.38.38,0,0,1,.09-.15.24.24,0,0,1,.18-.07h.58v2.27h1.91v.84H81.91v4a.82.82,0,0,0,.21.62.7.7,0,0,0,.52.2A1,1,0,0,0,83,91l.23-.1.17-.11a.17.17,0,0,1,.28.06l.34.55a2,2,0,0,1-.72.44A2.39,2.39,0,0,1,82.38,92Z" transform="translate(-1 -1)" fill="#666"/><path d="M90.32,91a1.84,1.84,0,0,1-.51.45,3,3,0,0,1-.64.32,5.56,5.56,0,0,1-.7.19,4.59,4.59,0,0,1-.73.06,3.39,3.39,0,0,1-1.25-.23,2.78,2.78,0,0,1-1-.68,3.15,3.15,0,0,1-.65-1.1,4.4,4.4,0,0,1-.23-1.51,3.88,3.88,0,0,1,.21-1.29,3,3,0,0,1,.6-1,2.69,2.69,0,0,1,1-.69,3.13,3.13,0,0,1,1.29-.25,2.87,2.87,0,0,1,1.1.2,2.53,2.53,0,0,1,.87.57,2.66,2.66,0,0,1,.57.92,3.49,3.49,0,0,1,.21,1.25.77.77,0,0,1-.06.37.24.24,0,0,1-.22.09h-4.4a3.76,3.76,0,0,0,.17,1.08,2.12,2.12,0,0,0,.43.77,1.65,1.65,0,0,0,.65.46,2.06,2.06,0,0,0,.84.16,2.72,2.72,0,0,0,.75-.1,4.19,4.19,0,0,0,.55-.22l.38-.22a.48.48,0,0,1,.26-.1.27.27,0,0,1,.22.11Zm-.93-3.08a2.45,2.45,0,0,0-.11-.74,1.59,1.59,0,0,0-.34-.58,1.47,1.47,0,0,0-.53-.38,1.71,1.71,0,0,0-.7-.13,1.78,1.78,0,0,0-1.32.48,2.32,2.32,0,0,0-.6,1.35Z" transform="translate(-1 -1)" fill="#666"/><path d="M97.17,91.9H96.06a.34.34,0,0,1-.23-.08,1,1,0,0,1-.13-.16L94,89.07a.78.78,0,0,1-.05.18.6.6,0,0,1-.08.16l-1.54,2.25a1.07,1.07,0,0,1-.14.16.28.28,0,0,1-.2.08H91l2.31-3.38-2.21-3.21H92.2a.41.41,0,0,1,.21,0,.36.36,0,0,1,.11.13L94.14,88a1.73,1.73,0,0,1,.16-.37l1.42-2.08a.44.44,0,0,1,.13-.14.23.23,0,0,1,.16-.06h1.07l-2.22,3.15Z" transform="translate(-1 -1)" fill="#666"/><path d="M100.26,92a1.59,1.59,0,0,1-1.2-.43,1.76,1.76,0,0,1-.42-1.26v-4h-.79a.28.28,0,0,1-.18-.06A.24.24,0,0,1,97.6,86v-.46l1.08-.14.26-2a.38.38,0,0,1,.09-.15.24.24,0,0,1,.18-.07h.59v2.27h1.9v.84H99.8v4a.81.81,0,0,0,.2.62.72.72,0,0,0,.52.2,1,1,0,0,0,.31,0l.23-.1.17-.11a.17.17,0,0,1,.28.06l.34.55a2,2,0,0,1-.72.44A2.35,2.35,0,0,1,100.26,92Z" transform="translate(-1 -1)" fill="#666"/><path d="M105.64,85.21a3.38,3.38,0,0,1,1.3.24,3,3,0,0,1,1,.68,3.16,3.16,0,0,1,.63,1.07,4.77,4.77,0,0,1,0,2.8,3.06,3.06,0,0,1-.63,1.07,2.83,2.83,0,0,1-1,.68,3.67,3.67,0,0,1-2.61,0,2.66,2.66,0,0,1-1-.68,3.06,3.06,0,0,1-.63-1.07,4.33,4.33,0,0,1-.22-1.4,4.37,4.37,0,0,1,.22-1.4,3.16,3.16,0,0,1,.63-1.07,2.78,2.78,0,0,1,1-.68A3.4,3.4,0,0,1,105.64,85.21Zm0,5.87a1.68,1.68,0,0,0,1.46-.65,3,3,0,0,0,.48-1.82,3.07,3.07,0,0,0-.48-1.84,1.71,1.71,0,0,0-1.46-.65,1.91,1.91,0,0,0-.86.17,1.52,1.52,0,0,0-.61.48,2.14,2.14,0,0,0-.37.79,4.21,4.21,0,0,0-.12,1,3,3,0,0,0,.49,1.82A1.69,1.69,0,0,0,105.64,91.08Z" transform="translate(-1 -1)" fill="#666"/><rect x="70.94" y="22.56" width="25" height="1" rx="0.3" fill="#666"/><rect x="70.94" y="27.56" width="15.67" height="1" rx="0.3" fill="#666"/><rect x="70.94" y="64.56" width="25" height="1" rx="0.3" fill="#666"/><rect x="70.94" y="36.56" width="25" height="1" rx="0.3" fill="#666"/><rect x="70.94" y="41.56" width="15.67" height="1" rx="0.3" fill="#666"/><rect x="70.94" y="46.56" width="15.67" height="1" rx="0.3" fill="#666"/><rect x="70.94" y="51.56" width="25" height="1" rx="0.3" fill="#666"/><rect x="70.94" y="56.56" width="15.67" height="1" rx="0.3" fill="#666"/><rect x="35.44" y="22.28" width="30" height="43" rx="1.08" fill="none" stroke="#666" stroke-miterlimit="10"/><polygon points="65.61 52.78 58.14 45.69 52.3 50.09 42.91 41.58 35.44 47.42 35.16 46.93 42.93 40.85 52.33 49.37 58.17 44.96 65.94 52.32 65.61 52.78" fill="#666"/><path d="M58.44,37.78a4.5,4.5,0,1,1,4.5-4.5A4.5,4.5,0,0,1,58.44,37.78Zm0-8.18a3.68,3.68,0,1,0,3.68,3.68A3.69,3.69,0,0,0,58.44,29.6Z" transform="translate(-1 -1)" fill="#666"/></svg>