<svg id="Capa_1" data-name="Capa 1" xmlns="http://www.w3.org/2000/svg" viewBox="0 0 131.09 111.25"><title>Redes sociales</title><rect width="131.09" height="111.25" rx="3.1" fill="#fff"/><path d="M59.66,91.5H58.54a.55.55,0,0,1-.51-.26l-2.42-3.33a.68.68,0,0,0-.23-.22.84.84,0,0,0-.4-.07H54V91.5H52.77V82.19H55.4a5.74,5.74,0,0,1,1.53.18,2.91,2.91,0,0,1,1.06.51,2.18,2.18,0,0,1,.63.82,2.83,2.83,0,0,1,.2,1.07,2.51,2.51,0,0,1-.16.92,2.2,2.2,0,0,1-.45.77,2.74,2.74,0,0,1-.72.58,3.31,3.31,0,0,1-1,.37,1.22,1.22,0,0,1,.42.4Zm-4.31-4.8a3.16,3.16,0,0,0,1-.13,2,2,0,0,0,.7-.38,1.63,1.63,0,0,0,.43-.58,2,2,0,0,0,.14-.75A1.47,1.47,0,0,0,57,83.61a2.66,2.66,0,0,0-1.64-.43H54V86.7Z" transform="translate(-1.23 -0.93)" fill="#666"/><path d="M67.8,91.5H66.68a.52.52,0,0,1-.5-.26l-2.42-3.33a.65.65,0,0,0-.63-.29h-1V91.5H60.92V82.19h2.63a5.74,5.74,0,0,1,1.53.18,3,3,0,0,1,1.06.51,2.06,2.06,0,0,1,.62.82,2.83,2.83,0,0,1,.2,1.07,2.73,2.73,0,0,1-.15.92,2.39,2.39,0,0,1-.46.77,2.45,2.45,0,0,1-.72.58,3.15,3.15,0,0,1-1,.37,1.12,1.12,0,0,1,.41.4Zm-4.3-4.8a3.14,3.14,0,0,0,1-.13,2,2,0,0,0,.7-.38,1.63,1.63,0,0,0,.43-.58,1.86,1.86,0,0,0,.14-.75,1.49,1.49,0,0,0-.54-1.25,2.68,2.68,0,0,0-1.64-.43H62.17V86.7Z" transform="translate(-1.23 -0.93)" fill="#666"/><path d="M73.83,83.65a.6.6,0,0,1-.13.14.31.31,0,0,1-.17,0,.5.5,0,0,1-.26-.11l-.37-.24a3.44,3.44,0,0,0-.54-.25,2.39,2.39,0,0,0-.76-.11,2.19,2.19,0,0,0-.75.12,1.76,1.76,0,0,0-.54.3A1.62,1.62,0,0,0,70,84a1.56,1.56,0,0,0-.11.57,1,1,0,0,0,.2.65,1.54,1.54,0,0,0,.5.44,4,4,0,0,0,.72.31l.82.28a8.18,8.18,0,0,1,.82.32,3.06,3.06,0,0,1,.71.45,2.13,2.13,0,0,1,.51.67,2.23,2.23,0,0,1,.19,1,3.08,3.08,0,0,1-.21,1.14,2.68,2.68,0,0,1-.61.94,2.79,2.79,0,0,1-1,.62,3.65,3.65,0,0,1-1.32.23,4,4,0,0,1-1.65-.33,3.73,3.73,0,0,1-1.27-.89l.36-.6.13-.12a.34.34,0,0,1,.17,0,.45.45,0,0,1,.19.07l.24.18.31.22a2,2,0,0,0,.41.23,2.09,2.09,0,0,0,.5.17,2.64,2.64,0,0,0,.65.07,2.49,2.49,0,0,0,.8-.12,1.65,1.65,0,0,0,.59-.35,1.47,1.47,0,0,0,.38-.54,1.84,1.84,0,0,0,.13-.69,1.15,1.15,0,0,0-.2-.69,1.59,1.59,0,0,0-.5-.46,3.52,3.52,0,0,0-.71-.3l-.82-.26a8.11,8.11,0,0,1-.82-.31,2.68,2.68,0,0,1-.72-.46,2.16,2.16,0,0,1-.5-.7,2.7,2.7,0,0,1,0-2,2.4,2.4,0,0,1,.56-.82,2.57,2.57,0,0,1,.9-.57,3.37,3.37,0,0,1,1.23-.21,4,4,0,0,1,1.42.24,3.41,3.41,0,0,1,1.13.72Z" transform="translate(-1.23 -0.93)" fill="#666"/><path d="M80.88,83.65a.44.44,0,0,1-.13.14.28.28,0,0,1-.16,0,.47.47,0,0,1-.26-.11L80,83.49a3.44,3.44,0,0,0-.54-.25,2.39,2.39,0,0,0-.76-.11,2.19,2.19,0,0,0-.75.12,1.76,1.76,0,0,0-.54.3A1.42,1.42,0,0,0,77,84a1.38,1.38,0,0,0-.11.57,1,1,0,0,0,.19.65,1.65,1.65,0,0,0,.5.44,4,4,0,0,0,.72.31l.82.28a8.18,8.18,0,0,1,.82.32,3.06,3.06,0,0,1,.71.45,2.13,2.13,0,0,1,.51.67,2.23,2.23,0,0,1,.19,1,3.08,3.08,0,0,1-.21,1.14,2.8,2.8,0,0,1-.6.94,2.93,2.93,0,0,1-1,.62,3.58,3.58,0,0,1-1.32.23,4,4,0,0,1-1.65-.33,3.83,3.83,0,0,1-1.27-.89l.37-.6a.68.68,0,0,1,.12-.12.34.34,0,0,1,.17,0,.4.4,0,0,1,.19.07l.24.18.32.22a1.91,1.91,0,0,0,.4.23,2.35,2.35,0,0,0,.51.17,2.51,2.51,0,0,0,.64.07,2.45,2.45,0,0,0,.8-.12,1.65,1.65,0,0,0,.59-.35,1.47,1.47,0,0,0,.38-.54,1.67,1.67,0,0,0,.13-.69,1.15,1.15,0,0,0-.19-.69,1.75,1.75,0,0,0-.51-.46,3.09,3.09,0,0,0-.71-.3L78,87.15a8.11,8.11,0,0,1-.82-.31,2.68,2.68,0,0,1-.72-.46,2.16,2.16,0,0,1-.5-.7,2.7,2.7,0,0,1,0-2,2.55,2.55,0,0,1,.56-.82,2.66,2.66,0,0,1,.9-.57,3.39,3.39,0,0,1,1.24-.21,4,4,0,0,1,1.42.24,3.47,3.47,0,0,1,1.12.72Z" transform="translate(-1.23 -0.93)" fill="#666"/><path d="M79.86,67.78h0A10.12,10.12,0,0,1,69.74,57.65h0A10.12,10.12,0,0,1,79.86,47.53h0A10.12,10.12,0,0,1,90,57.65h0A10.12,10.12,0,0,1,79.86,67.78Z" transform="translate(-1.23 -0.93)" fill="none" stroke="#666" stroke-miterlimit="10"/><path d="M79.86,62.9a41,41,0,0,1-5.55-.31,2.07,2.07,0,0,1-1.46-1.46,20.28,20.28,0,0,1,0-7,2.07,2.07,0,0,1,1.46-1.46,41,41,0,0,1,5.55-.31,41.09,41.09,0,0,1,5.56.31,2,2,0,0,1,1.45,1.46,19.63,19.63,0,0,1,0,7,2,2,0,0,1-1.45,1.46A41.09,41.09,0,0,1,79.86,62.9Zm0-9.89a42.41,42.41,0,0,0-5.4.29,1.47,1.47,0,0,0-1,1,19.88,19.88,0,0,0,0,6.65,1.47,1.47,0,0,0,1,1,42.41,42.41,0,0,0,5.4.29A42.47,42.47,0,0,0,85.27,62a1.44,1.44,0,0,0,1-1,19.21,19.21,0,0,0,0-6.65h0a1.44,1.44,0,0,0-1-1A42.47,42.47,0,0,0,79.86,53Zm-1.73,7.25V55.05l4.57,2.6Zm.6-4.18v3.15l2.76-1.58Z" transform="translate(-1.23 -0.93)" fill="#666"/><path d="M53.78,67.78h0A10.12,10.12,0,0,1,43.66,57.65h0A10.12,10.12,0,0,1,53.78,47.53h0A10.12,10.12,0,0,1,63.9,57.65h0A10.12,10.12,0,0,1,53.78,67.78Z" transform="translate(-1.23 -0.93)" fill="none" stroke="#666" stroke-miterlimit="10"/><path d="M54.92,38.73H51.85V32.58H50.57V29.89h1.28V28.55c0-1.77,1-2.66,3-2.66h2v2.75H55.18c-.24,0-.26,0-.26.38v.87h1.93l-.24,2.67H54.92Zm-2.47-.6h1.87V32h1.74l.13-1.47H54.32V29c0-.49.1-1,.86-1h1V26.49H54.81c-1.63,0-2.36.64-2.36,2.06v1.94H51.17V32h1.28Z" transform="translate(-1.23 -0.93)" fill="#666"/><path d="M79.86,42.44h0A10.13,10.13,0,0,1,69.74,32.31h0A10.12,10.12,0,0,1,79.86,22.19h0A10.12,10.12,0,0,1,90,32.31h0A10.13,10.13,0,0,1,79.86,42.44Z" transform="translate(-1.23 -0.93)" fill="none" stroke="#666" stroke-miterlimit="10"/><path d="M53.69,42.44h0A10.13,10.13,0,0,1,43.57,32.31h0A10.12,10.12,0,0,1,53.69,22.19h0A10.12,10.12,0,0,1,63.82,32.31h0A10.13,10.13,0,0,1,53.69,42.44Z" transform="translate(-1.23 -0.93)" fill="none" stroke="#666" stroke-miterlimit="10"/><path d="M79.86,37.66c-1.5,0-1.69,0-2.28,0a3.73,3.73,0,0,1-1.28-.25,2.51,2.51,0,0,1-.91-.59,2.41,2.41,0,0,1-.6-.91,4.06,4.06,0,0,1-.24-1.29c0-.59,0-.78,0-2.28s0-1.69,0-2.28a3.94,3.94,0,0,1,.24-1.28,2.45,2.45,0,0,1,.6-.92,2.51,2.51,0,0,1,.91-.59A4,4,0,0,1,77.58,27c.59,0,.78,0,2.28,0s1.69,0,2.28,0a4,4,0,0,1,1.29.25,2.51,2.51,0,0,1,.91.59,2.57,2.57,0,0,1,.6.92A3.94,3.94,0,0,1,85.18,30c0,.59,0,.78,0,2.28s0,1.69,0,2.28a4.06,4.06,0,0,1-.24,1.29,2.65,2.65,0,0,1-1.51,1.5,3.79,3.79,0,0,1-1.29.25C81.55,37.66,81.37,37.66,79.86,37.66Zm0-10.1c-1.48,0-1.66,0-2.25,0a3.34,3.34,0,0,0-1.09.21A2,2,0,0,0,75.35,29a3.15,3.15,0,0,0-.2,1.09c0,.59,0,.76,0,2.25s0,1.67,0,2.25a3.22,3.22,0,0,0,.2,1.1,1.94,1.94,0,0,0,.46.7,1.78,1.78,0,0,0,.71.46,3.09,3.09,0,0,0,1.09.21c.59,0,.77,0,2.25,0s1.67,0,2.26,0a3.09,3.09,0,0,0,1.09-.21,1.85,1.85,0,0,0,.71-.46,1.94,1.94,0,0,0,.46-.7,3.22,3.22,0,0,0,.2-1.1c0-.58,0-.76,0-2.25s0-1.66,0-2.25a3.09,3.09,0,0,0-.2-1.09,1.9,1.9,0,0,0-.46-.71,2,2,0,0,0-.71-.46,3.34,3.34,0,0,0-1.09-.21C81.53,27.57,81.35,27.56,79.86,27.56Z" transform="translate(-1.23 -0.93)" fill="#666"/><path d="M79.86,35a2.65,2.65,0,1,1,2.65-2.65A2.65,2.65,0,0,1,79.86,35Zm0-4.7a2.05,2.05,0,1,0,2,2.05A2.05,2.05,0,0,0,79.86,30.26Z" transform="translate(-1.23 -0.93)" fill="#666"/><path d="M83.49,29.35a.65.65,0,0,1-.66.66.66.66,0,0,1-.67-.66.67.67,0,0,1,.67-.67.66.66,0,0,1,.66.67" transform="translate(-1.23 -0.93)" fill="#666"/><path d="M59.91,53.74a.29.29,0,0,0-.33,0,1.12,1.12,0,0,1-.29.14,1.37,1.37,0,0,0,.39-.88.28.28,0,0,0-.16-.23.27.27,0,0,0-.29,0,2.44,2.44,0,0,1-1.35.47,2.69,2.69,0,0,0-4.52,2c0,.11,0,.21,0,.32-2.47-.06-4.47-2.39-4.49-2.42a.3.3,0,0,0-.46,0A2.63,2.63,0,0,0,48.49,56a.3.3,0,0,0-.26,0,.26.26,0,0,0-.16.25,2.57,2.57,0,0,0,1,2.2.26.26,0,0,0-.11.07.29.29,0,0,0-.06.27,2.53,2.53,0,0,0,1.81,1.77,3.81,3.81,0,0,1-2.17.6,4.55,4.55,0,0,1-.7,0,.28.28,0,0,0-.31.16.29.29,0,0,0,.09.34,6.58,6.58,0,0,0,3.93,1.18,8.53,8.53,0,0,0,1.48-.13,7.14,7.14,0,0,0,5.74-7.17c1-1,1.2-1.33,1.23-1.42a.29.29,0,0,0-.11-.31Zm-1.6,1.4a.26.26,0,0,0-.09.22,6.6,6.6,0,0,1-5.3,6.72,7.11,7.11,0,0,1-1.35.12,6.61,6.61,0,0,1-2.64-.51,3.82,3.82,0,0,0,2.65-1.14.29.29,0,0,0,0-.31.28.28,0,0,0-.26-.17,2,2,0,0,1-1.72-1,1.45,1.45,0,0,0,.66-.11.27.27,0,0,0,.17-.28.28.28,0,0,0-.22-.25,2.09,2.09,0,0,1-1.58-1.66,1.3,1.3,0,0,0,.68.09.27.27,0,0,0,.23-.2.27.27,0,0,0-.09-.29,2.37,2.37,0,0,1-.74-2.51c.71.73,2.65,2.43,5,2.3A.27.27,0,0,0,54,56a.27.27,0,0,0,0-.23,1.88,1.88,0,0,1-.07-.53,2.12,2.12,0,0,1,3.63-1.49.25.25,0,0,0,.2.09h0a3,3,0,0,0,.91-.15,4.43,4.43,0,0,1-.48.43.28.28,0,0,0-.09.32.3.3,0,0,0,.29.19l.5-.07-.62.59Zm0,0" transform="translate(-1.23 -0.93)" fill="#666" fill-rule="evenodd"/></svg>