<svg id="Capa_1" data-name="Capa 1" xmlns="http://www.w3.org/2000/svg" viewBox="0 0 131.09 111.25"><title>Separador</title><rect width="131.09" height="111.25" rx="3.1" fill="#fff"/><path d="M43.5,83.71a.39.39,0,0,1-.13.15.28.28,0,0,1-.16,0A.47.47,0,0,1,43,83.8a3.59,3.59,0,0,0-.38-.25,2.73,2.73,0,0,0-.54-.24,2.39,2.39,0,0,0-.76-.11,2.35,2.35,0,0,0-.74.11,1.56,1.56,0,0,0-.54.31,1.15,1.15,0,0,0-.33.46,1.38,1.38,0,0,0-.11.57,1.06,1.06,0,0,0,.19.65,1.67,1.67,0,0,0,.51.43,3.31,3.31,0,0,0,.71.32l.82.28a8.18,8.18,0,0,1,.82.32,2.86,2.86,0,0,1,.71.45,2,2,0,0,1,.51.67,2.18,2.18,0,0,1,.19,1,3.13,3.13,0,0,1-.21,1.15,2.53,2.53,0,0,1-.6.93,2.85,2.85,0,0,1-1,.63,3.67,3.67,0,0,1-1.33.22,4,4,0,0,1-1.65-.32A4.1,4.1,0,0,1,38,90.46l.37-.6a.37.37,0,0,1,.13-.12.28.28,0,0,1,.16,0,.4.4,0,0,1,.19.07l.25.17.31.23a3,3,0,0,0,.4.23,3,3,0,0,0,.51.17,2.51,2.51,0,0,0,.64.07,2.2,2.2,0,0,0,.8-.13,1.68,1.68,0,0,0,.6-.34,1.58,1.58,0,0,0,.37-.54,1.73,1.73,0,0,0,.13-.69,1.16,1.16,0,0,0-.19-.7,1.59,1.59,0,0,0-.51-.45,3.61,3.61,0,0,0-.71-.31l-.82-.26a8.11,8.11,0,0,1-.82-.31,2.26,2.26,0,0,1-.71-.45,2.15,2.15,0,0,1-.51-.7,2.45,2.45,0,0,1-.19-1,2.41,2.41,0,0,1,.19-.95,2.55,2.55,0,0,1,.56-.82,2.71,2.71,0,0,1,.91-.57,3.11,3.11,0,0,1,1.23-.22,4,4,0,0,1,1.42.25,3.29,3.29,0,0,1,1.12.71Z" transform="translate(-1 -1)" fill="#666"/><path d="M50.82,90.65a2.28,2.28,0,0,1-.52.45,2.84,2.84,0,0,1-.63.31,3.55,3.55,0,0,1-.71.19,4.37,4.37,0,0,1-.72.06A3.4,3.4,0,0,1,47,91.43a2.72,2.72,0,0,1-1-.67,3.21,3.21,0,0,1-.66-1.11,4.59,4.59,0,0,1-.23-1.5,3.88,3.88,0,0,1,.21-1.29,2.92,2.92,0,0,1,.61-1,2.85,2.85,0,0,1,1-.69,3.28,3.28,0,0,1,1.28-.25,3,3,0,0,1,1.1.2,2.53,2.53,0,0,1,.87.57,2.56,2.56,0,0,1,.57.93,3.45,3.45,0,0,1,.21,1.25.72.72,0,0,1-.06.36c0,.06-.11.09-.22.09h-4.4a3.82,3.82,0,0,0,.18,1.09,2.19,2.19,0,0,0,.42.77,1.75,1.75,0,0,0,.65.46,2.26,2.26,0,0,0,.85.15,2.39,2.39,0,0,0,.75-.1,3.54,3.54,0,0,0,.54-.22,4,4,0,0,0,.38-.21.5.5,0,0,1,.26-.11.24.24,0,0,1,.22.12Zm-.94-3.09a2.21,2.21,0,0,0-.11-.74,1.94,1.94,0,0,0-.33-.58,1.54,1.54,0,0,0-.53-.37,2,2,0,0,0-2,.35,2.29,2.29,0,0,0-.6,1.34Z" transform="translate(-1 -1)" fill="#666"/><path d="M53.44,86a3.33,3.33,0,0,1,1-.83,2.43,2.43,0,0,1,1.24-.31,2.33,2.33,0,0,1,1,.22,2,2,0,0,1,.78.64,2.9,2.9,0,0,1,.5,1.06,5.27,5.27,0,0,1,.18,1.45A4.54,4.54,0,0,1,58,89.59a3.23,3.23,0,0,1-.57,1.09,2.56,2.56,0,0,1-2.09,1,2.46,2.46,0,0,1-1-.2,2.53,2.53,0,0,1-.77-.57V93.8H52.34V85H53a.29.29,0,0,1,.31.24Zm.06,4a2,2,0,0,0,.7.6,1.92,1.92,0,0,0,.84.18,1.66,1.66,0,0,0,1.42-.66A3.06,3.06,0,0,0,57,88.24a4.53,4.53,0,0,0-.11-1.11,2.13,2.13,0,0,0-.33-.76,1.34,1.34,0,0,0-.52-.43,2,2,0,0,0-1.7.13,2.7,2.7,0,0,0-.79.73Z" transform="translate(-1 -1)" fill="#666"/><path d="M59.46,85.92a3.67,3.67,0,0,1,1.17-.79,3.71,3.71,0,0,1,1.4-.26,2.48,2.48,0,0,1,1,.18,1.89,1.89,0,0,1,.72.51,2.12,2.12,0,0,1,.45.79,3.2,3.2,0,0,1,.15,1v4.21h-.52a.6.6,0,0,1-.26,0,.37.37,0,0,1-.14-.22l-.13-.63a4.85,4.85,0,0,1-.51.43,2.75,2.75,0,0,1-.52.31,2.64,2.64,0,0,1-.58.2,3.62,3.62,0,0,1-.69.06,2.46,2.46,0,0,1-.72-.1,1.64,1.64,0,0,1-.58-.32,1.59,1.59,0,0,1-.4-.55,1.82,1.82,0,0,1-.15-.77,1.39,1.39,0,0,1,.22-.75,1.8,1.8,0,0,1,.69-.64,4.45,4.45,0,0,1,1.26-.46,9.52,9.52,0,0,1,1.89-.21v-.51a1.76,1.76,0,0,0-.33-1.16,1.19,1.19,0,0,0-1-.39,2.09,2.09,0,0,0-.71.1,2.33,2.33,0,0,0-.5.24l-.37.24a.47.47,0,0,1-.3.11.32.32,0,0,1-.2-.06.4.4,0,0,1-.14-.15Zm3.73,2.69a9.81,9.81,0,0,0-1.36.12,3.82,3.82,0,0,0-.91.27,1.28,1.28,0,0,0-.52.38.87.87,0,0,0-.16.49,1,1,0,0,0,.09.45.72.72,0,0,0,.23.31,1,1,0,0,0,.34.18,2,2,0,0,0,.43,0,2.47,2.47,0,0,0,.56-.06,2,2,0,0,0,.48-.18,3.49,3.49,0,0,0,.43-.28,4.43,4.43,0,0,0,.39-.37Z" transform="translate(-1 -1)" fill="#666"/><path d="M67.19,86.31A2.89,2.89,0,0,1,68,85.25a1.72,1.72,0,0,1,1.11-.38,1.7,1.7,0,0,1,.4,0,1.06,1.06,0,0,1,.34.15l-.08.86a.18.18,0,0,1-.19.16l-.27,0a1.64,1.64,0,0,0-.4,0,1.55,1.55,0,0,0-.55.09,1.25,1.25,0,0,0-.44.27,1.71,1.71,0,0,0-.34.44,4.17,4.17,0,0,0-.28.6v4.16H66.09V85h.66a.35.35,0,0,1,.26.07.45.45,0,0,1,.1.25Z" transform="translate(-1 -1)" fill="#666"/><path d="M70.55,85.92a3.67,3.67,0,0,1,1.17-.79,3.71,3.71,0,0,1,1.4-.26,2.48,2.48,0,0,1,1,.18,1.89,1.89,0,0,1,.72.51,2,2,0,0,1,.44.79,3.2,3.2,0,0,1,.15,1v4.21H74.9a.6.6,0,0,1-.26,0,.37.37,0,0,1-.14-.22l-.13-.63a6.14,6.14,0,0,1-.51.43,2.75,2.75,0,0,1-.52.31,2.64,2.64,0,0,1-.58.2,3.69,3.69,0,0,1-.69.06,2.46,2.46,0,0,1-.72-.1,1.77,1.77,0,0,1-.59-.32,1.57,1.57,0,0,1-.39-.55,1.82,1.82,0,0,1-.15-.77,1.39,1.39,0,0,1,.22-.75,1.8,1.8,0,0,1,.69-.64,4.45,4.45,0,0,1,1.26-.46,9.52,9.52,0,0,1,1.89-.21v-.51A1.76,1.76,0,0,0,74,86.2a1.19,1.19,0,0,0-1-.39,2.2,2.2,0,0,0-.72.1,2.9,2.9,0,0,0-.5.24l-.36.24a.47.47,0,0,1-.3.11.32.32,0,0,1-.2-.06.54.54,0,0,1-.15-.15Zm3.73,2.69a9.81,9.81,0,0,0-1.36.12A3.82,3.82,0,0,0,72,89a1.28,1.28,0,0,0-.52.38.87.87,0,0,0-.16.49,1,1,0,0,0,.09.45.72.72,0,0,0,.23.31,1,1,0,0,0,.34.18,2,2,0,0,0,.43,0A2.47,2.47,0,0,0,73,90.8a1.91,1.91,0,0,0,.47-.18,2.44,2.44,0,0,0,.43-.28,3.44,3.44,0,0,0,.4-.37Z" transform="translate(-1 -1)" fill="#666"/><path d="M82.62,82v9.57h-.69a.3.3,0,0,1-.31-.24l-.1-.8a3.55,3.55,0,0,1-1,.82,2.44,2.44,0,0,1-1.25.31,2.32,2.32,0,0,1-1-.22,2,2,0,0,1-.79-.64,3.2,3.2,0,0,1-.5-1,5.71,5.71,0,0,1-.17-1.45A4.5,4.5,0,0,1,77,87a3.3,3.3,0,0,1,.56-1.09,2.57,2.57,0,0,1,.9-.73,2.7,2.7,0,0,1,1.19-.26,2.54,2.54,0,0,1,1,.2,2.8,2.8,0,0,1,.77.57V82Zm-1.15,4.55a1.86,1.86,0,0,0-.71-.6,1.92,1.92,0,0,0-.84-.18,1.66,1.66,0,0,0-1.41.66A3.06,3.06,0,0,0,78,88.3a4.35,4.35,0,0,0,.12,1.1,2.13,2.13,0,0,0,.32.76,1.3,1.3,0,0,0,.53.43,1.71,1.71,0,0,0,.7.14,1.88,1.88,0,0,0,1-.26,2.89,2.89,0,0,0,.79-.74Z" transform="translate(-1 -1)" fill="#666"/><path d="M87.23,84.88a3.35,3.35,0,0,1,1.3.24,2.68,2.68,0,0,1,1,.69,3.11,3.11,0,0,1,.63,1.06,4.44,4.44,0,0,1,.21,1.41,4.38,4.38,0,0,1-.21,1.4,3.16,3.16,0,0,1-.63,1.07,2.63,2.63,0,0,1-1,.67,3.35,3.35,0,0,1-1.3.24,3.43,3.43,0,0,1-1.31-.24,2.63,2.63,0,0,1-1-.67,3.16,3.16,0,0,1-.63-1.07,4.38,4.38,0,0,1-.21-1.4,4.44,4.44,0,0,1,.21-1.41,3.11,3.11,0,0,1,.63-1.06,2.68,2.68,0,0,1,1-.69A3.43,3.43,0,0,1,87.23,84.88Zm0,5.88a1.71,1.71,0,0,0,1.46-.65,3.73,3.73,0,0,0,0-3.66,1.69,1.69,0,0,0-1.46-.66,2.06,2.06,0,0,0-.86.17,1.62,1.62,0,0,0-.61.49,2.17,2.17,0,0,0-.37.78,4.21,4.21,0,0,0-.12,1,3.06,3.06,0,0,0,.49,1.83A1.72,1.72,0,0,0,87.23,90.76Z" transform="translate(-1 -1)" fill="#666"/><path d="M92.93,86.31a2.89,2.89,0,0,1,.76-1.06,1.72,1.72,0,0,1,1.11-.38,1.7,1.7,0,0,1,.4,0,1.17,1.17,0,0,1,.34.15l-.08.86a.19.19,0,0,1-.2.16l-.26,0a1.64,1.64,0,0,0-.4,0,1.55,1.55,0,0,0-.55.09,1.25,1.25,0,0,0-.44.27,1.71,1.71,0,0,0-.34.44,3.32,3.32,0,0,0-.28.6v4.16H91.83V85h.66a.35.35,0,0,1,.26.07.45.45,0,0,1,.1.25Z" transform="translate(-1 -1)" fill="#666"/><rect x="35.04" y="43.42" width="61" height="1" rx="0.3" fill="#666"/><rect x="36.54" y="21.92" width="59" height="16" rx="1.08" fill="none" stroke="#666" stroke-miterlimit="10"/><rect x="36.54" y="49.92" width="59" height="16" rx="1.08" fill="none" stroke="#666" stroke-miterlimit="10"/></svg>