<svg id="Capa_1" data-name="Capa 1" xmlns="http://www.w3.org/2000/svg" viewBox="0 0 352.37 254.17"><title>Imagen</title><path d="M347.52,257.26H13.4a9.14,9.14,0,0,1-9.12-9.13V12.22A9.13,9.13,0,0,1,13.4,3.09H347.52a9.14,9.14,0,0,1,9.13,9.13V248.13A9.15,9.15,0,0,1,347.52,257.26ZM13.4,8.86a3.36,3.36,0,0,0-3.35,3.36V248.13a3.35,3.35,0,0,0,3.35,3.35H347.52a3.35,3.35,0,0,0,3.35-3.35V12.22a3.36,3.36,0,0,0-3.35-3.36Z" transform="translate(-4.28 -3.09)" fill="#666"/><polygon points="347.65 203.3 262.64 133.55 196.25 176.85 89.41 93.11 4.5 150.54 1.27 145.75 89.66 85.97 196.56 169.75 263.03 126.4 351.31 198.83 347.65 203.3" fill="#666"/><path d="M209.34,107.06a31.77,31.77,0,1,1,31.77-31.77A31.8,31.8,0,0,1,209.34,107.06Zm0-57.76a26,26,0,1,0,26,26A26,26,0,0,0,209.34,49.3Z" transform="translate(-4.28 -3.09)" fill="#666"/></svg>