<svg id="Capa_1" data-name="Capa 1" xmlns="http://www.w3.org/2000/svg" viewBox="0 0 131.09 111.25"><title>Tarjeta</title><rect width="131.09" height="111.25" rx="3.1" fill="#fff"/><path d="M54.81,82.32h-3v8.25H50.54V82.32h-3V81.26h7.29Z" transform="translate(-1 -1)" fill="#666"/><path d="M54.26,84.92a3.82,3.82,0,0,1,1.18-.79,3.71,3.71,0,0,1,1.4-.26,2.52,2.52,0,0,1,1,.18,2,2,0,0,1,.72.51,2.1,2.1,0,0,1,.44.79,3.2,3.2,0,0,1,.15,1v4.21h-.51a.6.6,0,0,1-.26,0,.37.37,0,0,1-.14-.22l-.13-.63c-.18.16-.35.31-.51.43a3.1,3.1,0,0,1-.52.31,2.84,2.84,0,0,1-.58.2,3.69,3.69,0,0,1-.69.06,2.37,2.37,0,0,1-.72-.1,1.68,1.68,0,0,1-.59-.32,1.59,1.59,0,0,1-.4-.55,2,2,0,0,1-.14-.77,1.47,1.47,0,0,1,.21-.75,1.91,1.91,0,0,1,.7-.64,4.49,4.49,0,0,1,1.25-.46,9.72,9.72,0,0,1,1.9-.21v-.51a1.76,1.76,0,0,0-.33-1.16,1.19,1.19,0,0,0-1-.39,2.16,2.16,0,0,0-.72.1,2.59,2.59,0,0,0-.5.24l-.36.24a.47.47,0,0,1-.3.11.37.37,0,0,1-.21-.06.67.67,0,0,1-.14-.15ZM58,87.61a9.67,9.67,0,0,0-1.36.12,3.92,3.92,0,0,0-.92.27,1.24,1.24,0,0,0-.51.38.8.8,0,0,0-.16.49,1.17,1.17,0,0,0,.08.45.93.93,0,0,0,.23.31,1.06,1.06,0,0,0,.35.18,1.88,1.88,0,0,0,.43,0,2.38,2.38,0,0,0,.55-.06,2,2,0,0,0,.48-.18,2.87,2.87,0,0,0,.43-.28A3.44,3.44,0,0,0,58,89Z" transform="translate(-1 -1)" fill="#666"/><path d="M62,85.31a3,3,0,0,1,.77-1.06,1.68,1.68,0,0,1,1.11-.38,1.75,1.75,0,0,1,.4,0,1.17,1.17,0,0,1,.34.15l-.08.86a.19.19,0,0,1-.2.16l-.27,0a1.51,1.51,0,0,0-.39,0,1.64,1.64,0,0,0-.56.09,1.21,1.21,0,0,0-.43.27,1.74,1.74,0,0,0-.35.44,4.17,4.17,0,0,0-.27.6v4.16H60.89V84h.67a.37.37,0,0,1,.26.07.45.45,0,0,1,.09.25Z" transform="translate(-1 -1)" fill="#666"/><path d="M66.85,84v7.07a2.55,2.55,0,0,1-.11.74,1.63,1.63,0,0,1-.33.59,1.54,1.54,0,0,1-.58.4,2.19,2.19,0,0,1-.85.15,2.25,2.25,0,0,1-.38,0l-.35-.1,0-.63a.12.12,0,0,1,0-.08.09.09,0,0,1,.08,0,.56.56,0,0,1,.13,0h.2a1,1,0,0,0,.73-.24,1.13,1.13,0,0,0,.21-.76V84Zm.24-2.07a.88.88,0,0,1-.07.32,1.14,1.14,0,0,1-.18.25.8.8,0,0,1-.27.18.67.67,0,0,1-.31.07.68.68,0,0,1-.32-.07.76.76,0,0,1-.26-.18.85.85,0,0,1-.17-.25.77.77,0,0,1,0-.64,1,1,0,0,1,.17-.27,1.2,1.2,0,0,1,.26-.18.83.83,0,0,1,.32-.06.81.81,0,0,1,.31.06.83.83,0,0,1,.45.45A.88.88,0,0,1,67.09,81.92Z" transform="translate(-1 -1)" fill="#666"/><path d="M74.09,89.65a2.28,2.28,0,0,1-.52.45,2.71,2.71,0,0,1-.64.31,3.29,3.29,0,0,1-.7.19,4.37,4.37,0,0,1-.72.06,3.4,3.4,0,0,1-1.26-.23,2.72,2.72,0,0,1-1-.67,3.21,3.21,0,0,1-.66-1.11,4.59,4.59,0,0,1-.23-1.5,3.88,3.88,0,0,1,.21-1.29,2.92,2.92,0,0,1,.61-1,2.76,2.76,0,0,1,1-.69,3.28,3.28,0,0,1,1.28-.25,3,3,0,0,1,1.1.2,2.53,2.53,0,0,1,.87.57,2.56,2.56,0,0,1,.57.93,3.45,3.45,0,0,1,.21,1.25.72.72,0,0,1-.06.36c0,.06-.11.09-.22.09h-4.4a3.84,3.84,0,0,0,.17,1.09,2.38,2.38,0,0,0,.43.77,1.75,1.75,0,0,0,.65.46,2.24,2.24,0,0,0,.84.15,2.41,2.41,0,0,0,.76-.1,3.54,3.54,0,0,0,.54-.22,4,4,0,0,0,.38-.21.5.5,0,0,1,.26-.11.24.24,0,0,1,.22.12Zm-.94-3.09a2.5,2.5,0,0,0-.11-.74,1.94,1.94,0,0,0-.33-.58,1.54,1.54,0,0,0-.53-.37,2,2,0,0,0-2,.35,2.29,2.29,0,0,0-.6,1.34Z" transform="translate(-1 -1)" fill="#666"/><path d="M77.59,90.67a1.57,1.57,0,0,1-1.2-.43A1.73,1.73,0,0,1,76,89V85h-.8a.25.25,0,0,1-.17-.06.22.22,0,0,1-.07-.19v-.46L76,84.1l.26-2a.28.28,0,0,1,.09-.16.28.28,0,0,1,.18-.06h.58v2.27H79V85H77.12v4a.81.81,0,0,0,.21.61.67.67,0,0,0,.52.21,1,1,0,0,0,.31,0,1,1,0,0,0,.23-.11l.17-.11a.17.17,0,0,1,.28.06l.34.56a2.36,2.36,0,0,1-.72.44A2.65,2.65,0,0,1,77.59,90.67Z" transform="translate(-1 -1)" fill="#666"/><path d="M80.05,84.92a3.82,3.82,0,0,1,1.18-.79,3.71,3.71,0,0,1,1.4-.26,2.52,2.52,0,0,1,1,.18,1.89,1.89,0,0,1,.72.51,2.1,2.1,0,0,1,.44.79,3.2,3.2,0,0,1,.15,1v4.21h-.51a.6.6,0,0,1-.26,0A.37.37,0,0,1,84,90.3l-.13-.63c-.18.16-.35.31-.51.43a2.75,2.75,0,0,1-.52.31,2.84,2.84,0,0,1-.58.2,3.69,3.69,0,0,1-.69.06,2.46,2.46,0,0,1-.72-.1,1.77,1.77,0,0,1-.59-.32,1.57,1.57,0,0,1-.39-.55,1.82,1.82,0,0,1-.15-.77,1.47,1.47,0,0,1,.21-.75,1.91,1.91,0,0,1,.7-.64,4.49,4.49,0,0,1,1.25-.46,9.72,9.72,0,0,1,1.9-.21v-.51a1.76,1.76,0,0,0-.33-1.16,1.19,1.19,0,0,0-1-.39,2.2,2.2,0,0,0-.72.1,2.59,2.59,0,0,0-.5.24l-.36.24a.47.47,0,0,1-.3.11.32.32,0,0,1-.2-.06.54.54,0,0,1-.15-.15Zm3.74,2.69a9.81,9.81,0,0,0-1.36.12,4.07,4.07,0,0,0-.92.27,1.31,1.31,0,0,0-.51.38.8.8,0,0,0-.16.49,1,1,0,0,0,.09.45.72.72,0,0,0,.23.31.92.92,0,0,0,.34.18,2,2,0,0,0,.43,0,2.47,2.47,0,0,0,.56-.06,1.91,1.91,0,0,0,.47-.18,2.44,2.44,0,0,0,.43-.28,3.44,3.44,0,0,0,.4-.37Z" transform="translate(-1 -1)" fill="#666"/><rect x="36.53" y="21.76" width="60" height="25" rx="1.08" fill="none" stroke="#666" stroke-miterlimit="10"/><polygon points="95.03 47.26 81.5 36.38 70.01 43.88 51.51 29.38 36.81 39.32 36.25 38.5 51.55 28.15 70.06 42.65 81.57 35.15 95.85 46.68 95.03 47.26" fill="#666"/><path d="M72.53,35.26a4.5,4.5,0,1,1,4.5-4.5A4.5,4.5,0,0,1,72.53,35.26Zm0-8.18a3.69,3.69,0,1,0,3.68,3.68A3.68,3.68,0,0,0,72.53,27.08Z" transform="translate(-1 -1)" fill="#666"/><rect x="35.89" y="53.26" width="61.14" height="1" rx="0.3" fill="#666"/><rect x="35.89" y="58.26" width="61.14" height="1" rx="0.3" fill="#666"/><rect x="35.89" y="63.26" width="61" height="1" rx="0.3" fill="#666"/></svg>