<svg id="Capa_1" data-name="Capa 1" xmlns="http://www.w3.org/2000/svg" viewBox="0 0 131.09 111.25"><title>Texto</title><rect width="131.09" height="111.25" rx="3.1" fill="#fff"/><path d="M31.09,90.87v1H25.35V82.58h5.74v1H26.61V86.7h3.63v1H26.61v3.18Z" transform="translate(-1 -1)" fill="#666"/><path d="M37.76,82.32V91.9h-.69a.29.29,0,0,1-.31-.24l-.11-.8a3.74,3.74,0,0,1-1,.82,2.54,2.54,0,0,1-1.25.31,2.47,2.47,0,0,1-1-.22,2.18,2.18,0,0,1-.78-.64,2.85,2.85,0,0,1-.5-1A5.33,5.33,0,0,1,32,88.63a4.56,4.56,0,0,1,.2-1.36,3.22,3.22,0,0,1,.56-1.09,2.49,2.49,0,0,1,.89-.72,2.57,2.57,0,0,1,1.19-.26,2.36,2.36,0,0,1,1,.2,2.66,2.66,0,0,1,.77.57V82.32ZM36.6,86.88a2,2,0,0,0-.7-.61,2.11,2.11,0,0,0-.85-.17,1.68,1.68,0,0,0-1.41.65,3.09,3.09,0,0,0-.49,1.88,4.44,4.44,0,0,0,.11,1.1,2.15,2.15,0,0,0,.32.75,1.28,1.28,0,0,0,.53.43,1.61,1.61,0,0,0,.71.14,1.93,1.93,0,0,0,1-.26,3,3,0,0,0,.78-.73Z" transform="translate(-1 -1)" fill="#666"/><path d="M41.06,83.24a.68.68,0,0,1-.07.32,1.2,1.2,0,0,1-.18.26.8.8,0,0,1-.27.18.88.88,0,0,1-.64,0,.72.72,0,0,1-.25-.18.93.93,0,0,1-.18-.26.83.83,0,0,1-.06-.32.91.91,0,0,1,.06-.32.81.81,0,0,1,.18-.26.72.72,0,0,1,.25-.18.77.77,0,0,1,.64,0,.8.8,0,0,1,.27.18,1,1,0,0,1,.18.26A.74.74,0,0,1,41.06,83.24Zm-.25,2.07V91.9H39.65V85.31Z" transform="translate(-1 -1)" fill="#666"/><path d="M44.73,92a1.59,1.59,0,0,1-1.2-.43,1.76,1.76,0,0,1-.42-1.26v-4h-.79a.28.28,0,0,1-.18-.06.27.27,0,0,1-.07-.19v-.46l1.08-.14.27-2a.24.24,0,0,1,.09-.15.21.21,0,0,1,.17-.07h.59v2.27h1.9v.84h-1.9v4a.85.85,0,0,0,.2.62.73.73,0,0,0,.52.2,1,1,0,0,0,.32,0l.23-.1.16-.11a.28.28,0,0,1,.12-.05.22.22,0,0,1,.17.11l.33.55a2,2,0,0,1-.72.44A2.35,2.35,0,0,1,44.73,92Z" transform="translate(-1 -1)" fill="#666"/><path d="M50.11,85.21a3.35,3.35,0,0,1,1.3.24,2.78,2.78,0,0,1,1,.68A3.16,3.16,0,0,1,53,87.2a4.37,4.37,0,0,1,.22,1.4A4.33,4.33,0,0,1,53,90a3.06,3.06,0,0,1-.63,1.07,2.78,2.78,0,0,1-1,.68,3.35,3.35,0,0,1-1.3.24,3.43,3.43,0,0,1-1.31-.24,2.78,2.78,0,0,1-1-.68A3.06,3.06,0,0,1,47.18,90a4.77,4.77,0,0,1,0-2.8,3.16,3.16,0,0,1,.63-1.07,2.78,2.78,0,0,1,1-.68A3.43,3.43,0,0,1,50.11,85.21Zm0,5.87a1.68,1.68,0,0,0,1.46-.65,3,3,0,0,0,.48-1.82,3.07,3.07,0,0,0-.48-1.84,1.71,1.71,0,0,0-1.46-.65,1.94,1.94,0,0,0-.86.17,1.59,1.59,0,0,0-.61.48,2.3,2.3,0,0,0-.36.79,4.21,4.21,0,0,0-.12,1,3,3,0,0,0,.48,1.82A1.69,1.69,0,0,0,50.11,91.08Z" transform="translate(-1 -1)" fill="#666"/><path d="M55.81,86.63a3,3,0,0,1,.76-1.06,1.89,1.89,0,0,1,1.51-.33,1.22,1.22,0,0,1,.35.14l-.09.87a.18.18,0,0,1-.19.16,1.16,1.16,0,0,1-.27,0,2.35,2.35,0,0,0-.4,0,1.59,1.59,0,0,0-.55.09,1.25,1.25,0,0,0-.44.27,1.91,1.91,0,0,0-.34.44,3.85,3.85,0,0,0-.28.61V91.9H54.71V85.31h.66a.4.4,0,0,1,.26.07.45.45,0,0,1,.1.25Z" transform="translate(-1 -1)" fill="#666"/><path d="M67.94,82.32V91.9h-.69a.29.29,0,0,1-.31-.24l-.1-.8a4,4,0,0,1-1,.82,2.51,2.51,0,0,1-1.24.31,2.47,2.47,0,0,1-1-.22,2.21,2.21,0,0,1-.79-.64,3.2,3.2,0,0,1-.5-1,5.77,5.77,0,0,1-.17-1.45,4.56,4.56,0,0,1,.19-1.36,3.4,3.4,0,0,1,.56-1.09,2.49,2.49,0,0,1,.89-.72A2.64,2.64,0,0,1,65,85.2a2.31,2.31,0,0,1,1,.2,2.53,2.53,0,0,1,.77.57V82.32Zm-1.16,4.56a1.88,1.88,0,0,0-.7-.61,2.07,2.07,0,0,0-.84-.17,1.68,1.68,0,0,0-1.41.65,3.09,3.09,0,0,0-.5,1.88,5,5,0,0,0,.11,1.1,2.36,2.36,0,0,0,.33.75,1.22,1.22,0,0,0,.53.43,1.56,1.56,0,0,0,.7.14,1.88,1.88,0,0,0,1-.26,2.68,2.68,0,0,0,.78-.73Z" transform="translate(-1 -1)" fill="#666"/><path d="M75.12,91a2,2,0,0,1-.52.45,2.74,2.74,0,0,1-.64.32,5.13,5.13,0,0,1-.7.19,4.37,4.37,0,0,1-.72.06,3.4,3.4,0,0,1-1.26-.23,2.87,2.87,0,0,1-1-.68,3.31,3.31,0,0,1-.65-1.1,4.65,4.65,0,0,1-.23-1.51,3.88,3.88,0,0,1,.21-1.29,2.88,2.88,0,0,1,.61-1,2.53,2.53,0,0,1,1-.69,3.11,3.11,0,0,1,1.28-.25,2.83,2.83,0,0,1,1.1.2,2.53,2.53,0,0,1,.87.57,2.66,2.66,0,0,1,.57.92,3.49,3.49,0,0,1,.21,1.25.77.77,0,0,1-.06.37.24.24,0,0,1-.22.09h-4.4a3.76,3.76,0,0,0,.17,1.08,2.27,2.27,0,0,0,.43.77,1.65,1.65,0,0,0,.65.46,2.06,2.06,0,0,0,.84.16,2.75,2.75,0,0,0,.76-.1,3.54,3.54,0,0,0,.54-.22,3.9,3.9,0,0,0,.38-.22.48.48,0,0,1,.26-.1.25.25,0,0,1,.22.11Zm-.94-3.08a2.45,2.45,0,0,0-.11-.74,1.72,1.72,0,0,0-.33-.58,1.66,1.66,0,0,0-.53-.38,2,2,0,0,0-2,.35,2.32,2.32,0,0,0-.6,1.35Z" transform="translate(-1 -1)" fill="#666"/><path d="M82,92a1.59,1.59,0,0,1-1.2-.43,1.76,1.76,0,0,1-.42-1.26v-4h-.79a.28.28,0,0,1-.18-.06.24.24,0,0,1-.07-.19v-.46l1.08-.14.27-2a.28.28,0,0,1,.08-.15.24.24,0,0,1,.18-.07h.59v2.27h1.9v.84h-1.9v4a.81.81,0,0,0,.2.62.72.72,0,0,0,.52.2,1,1,0,0,0,.31,0l.23-.1.17-.11a.28.28,0,0,1,.12-.05.21.21,0,0,1,.16.11l.34.55a2,2,0,0,1-.72.44A2.35,2.35,0,0,1,82,92Z" transform="translate(-1 -1)" fill="#666"/><path d="M89.94,91a2,2,0,0,1-.52.45,3,3,0,0,1-.64.32,5.13,5.13,0,0,1-.7.19,4.37,4.37,0,0,1-.72.06,3.4,3.4,0,0,1-1.26-.23,2.87,2.87,0,0,1-1-.68,3.31,3.31,0,0,1-.65-1.1,4.65,4.65,0,0,1-.23-1.51,3.88,3.88,0,0,1,.21-1.29,2.88,2.88,0,0,1,.61-1,2.53,2.53,0,0,1,1-.69,3.11,3.11,0,0,1,1.28-.25,2.83,2.83,0,0,1,1.1.2,2.53,2.53,0,0,1,.87.57,2.66,2.66,0,0,1,.57.92A3.49,3.49,0,0,1,90,88.15a.77.77,0,0,1-.06.37.24.24,0,0,1-.22.09h-4.4a3.76,3.76,0,0,0,.17,1.08,2.27,2.27,0,0,0,.43.77,1.65,1.65,0,0,0,.65.46,2.06,2.06,0,0,0,.84.16,2.86,2.86,0,0,0,.76-.1,3.54,3.54,0,0,0,.54-.22,3.9,3.9,0,0,0,.38-.22.48.48,0,0,1,.26-.1.25.25,0,0,1,.22.11ZM89,87.89a2.45,2.45,0,0,0-.11-.74,1.72,1.72,0,0,0-.33-.58,1.66,1.66,0,0,0-.53-.38,2,2,0,0,0-2,.35,2.32,2.32,0,0,0-.6,1.35Z" transform="translate(-1 -1)" fill="#666"/><path d="M96.78,91.9H95.67a.31.31,0,0,1-.22-.08.7.7,0,0,1-.14-.16l-1.65-2.59a1.89,1.89,0,0,1-.06.18.6.6,0,0,1-.08.16L92,91.66c0,.06-.09.11-.13.16a.29.29,0,0,1-.21.08h-1l2.3-3.38L90.7,85.31h1.11a.41.41,0,0,1,.21,0,.36.36,0,0,1,.11.13L93.75,88a1.37,1.37,0,0,1,.17-.37l1.41-2.08a.44.44,0,0,1,.13-.14.23.23,0,0,1,.16-.06h1.07l-2.22,3.15Z" transform="translate(-1 -1)" fill="#666"/><path d="M99.87,92a1.59,1.59,0,0,1-1.2-.43,1.76,1.76,0,0,1-.42-1.26v-4h-.79a.28.28,0,0,1-.18-.06.24.24,0,0,1-.07-.19v-.46l1.08-.14.27-2a.28.28,0,0,1,.08-.15.24.24,0,0,1,.18-.07h.59v2.27h1.9v.84h-1.9v4a.81.81,0,0,0,.2.62.72.72,0,0,0,.52.2.91.91,0,0,0,.31,0l.24-.1.16-.11a.28.28,0,0,1,.12-.05.19.19,0,0,1,.16.11l.34.55a2,2,0,0,1-.72.44A2.35,2.35,0,0,1,99.87,92Z" transform="translate(-1 -1)" fill="#666"/><path d="M105.25,85.21a3.35,3.35,0,0,1,1.3.24,2.78,2.78,0,0,1,1,.68,3.16,3.16,0,0,1,.63,1.07,4.77,4.77,0,0,1,0,2.8,3.06,3.06,0,0,1-.63,1.07,2.78,2.78,0,0,1-1,.68,3.35,3.35,0,0,1-1.3.24,3.43,3.43,0,0,1-1.31-.24,2.78,2.78,0,0,1-1-.68,3.06,3.06,0,0,1-.63-1.07,4.33,4.33,0,0,1-.22-1.4,4.37,4.37,0,0,1,.22-1.4,3.16,3.16,0,0,1,.63-1.07,2.78,2.78,0,0,1,1-.68A3.43,3.43,0,0,1,105.25,85.21Zm0,5.87a1.68,1.68,0,0,0,1.46-.65,3,3,0,0,0,.48-1.82,3.07,3.07,0,0,0-.48-1.84,1.71,1.71,0,0,0-1.46-.65,1.91,1.91,0,0,0-.86.17,1.52,1.52,0,0,0-.61.48,2.31,2.31,0,0,0-.37.79,4.21,4.21,0,0,0-.12,1,3,3,0,0,0,.49,1.82A1.69,1.69,0,0,0,105.25,91.08Z" transform="translate(-1 -1)" fill="#666"/><rect x="35.04" y="23.05" width="61" height="1" rx="0.3" fill="#666"/><rect x="35.04" y="28.05" width="38.23" height="1" rx="0.3" fill="#666"/><rect x="35.04" y="65.05" width="61" height="1" rx="0.3" fill="#666"/><rect x="35.04" y="37.05" width="61" height="1" rx="0.3" fill="#666"/><rect x="35.04" y="42.05" width="38.23" height="1" rx="0.3" fill="#666"/><rect x="35.04" y="47.05" width="38.23" height="1" rx="0.3" fill="#666"/><rect x="35.04" y="52.05" width="61" height="1" rx="0.3" fill="#666"/><rect x="35.04" y="57.05" width="38.23" height="1" rx="0.3" fill="#666"/></svg>