<svg id="Capa_1" data-name="Capa 1" xmlns="http://www.w3.org/2000/svg" viewBox="0 0 131.09 111.25"><title>Vídeo</title><rect width="131.09" height="111.25" rx="3.1" fill="#fff"/><path d="M58.74,81.58l-3.8,9.32H53.81L50,81.58h1a.4.4,0,0,1,.27.09.49.49,0,0,1,.16.21l2.62,6.57c.06.15.12.31.17.48l.15.55c0-.19.09-.37.13-.55s.1-.33.16-.48l2.62-6.57a.46.46,0,0,1,.15-.2.4.4,0,0,1,.28-.1Z" transform="translate(-1 -1)" fill="#666"/><path d="M62,81.48l-1.52,1.67a.44.44,0,0,1-.18.14.48.48,0,0,1-.22,0h-.69l1-1.58a.58.58,0,0,1,.2-.21.55.55,0,0,1,.31-.07Zm-1.34,2.83V90.9H59.46V84.31Z" transform="translate(-1 -1)" fill="#666"/><path d="M68,81.32V90.9h-.69a.3.3,0,0,1-.32-.24l-.1-.8a3.74,3.74,0,0,1-1,.82,2.54,2.54,0,0,1-1.25.31,2.47,2.47,0,0,1-1-.22,2.18,2.18,0,0,1-.78-.64,2.85,2.85,0,0,1-.5-1,5.33,5.33,0,0,1-.18-1.45,4.56,4.56,0,0,1,.2-1.36,3.39,3.39,0,0,1,.55-1.09,2.61,2.61,0,0,1,.9-.72A2.57,2.57,0,0,1,65,84.19a2.38,2.38,0,0,1,1,.21,2.66,2.66,0,0,1,.77.57V81.32Zm-1.16,4.56a2,2,0,0,0-.7-.61,2.15,2.15,0,0,0-.85-.17,1.68,1.68,0,0,0-1.41.65,3.09,3.09,0,0,0-.49,1.88,4.44,4.44,0,0,0,.11,1.1,2.15,2.15,0,0,0,.32.75,1.28,1.28,0,0,0,.53.43,1.61,1.61,0,0,0,.71.14,1.93,1.93,0,0,0,1-.26,3,3,0,0,0,.78-.73Z" transform="translate(-1 -1)" fill="#666"/><path d="M75.14,90a1.84,1.84,0,0,1-.51.45,3.19,3.19,0,0,1-.64.32,5.28,5.28,0,0,1-.71.19,4.37,4.37,0,0,1-.72.06,3.48,3.48,0,0,1-1.26-.23,2.83,2.83,0,0,1-1-.68,3,3,0,0,1-.65-1.1,4.39,4.39,0,0,1-.24-1.51,3.88,3.88,0,0,1,.21-1.29,3,3,0,0,1,.61-1,2.61,2.61,0,0,1,1-.69,3.13,3.13,0,0,1,1.29-.25,2.78,2.78,0,0,1,1.09.2,2.35,2.35,0,0,1,.87.57,2.54,2.54,0,0,1,.58.92,3.49,3.49,0,0,1,.2,1.25.8.8,0,0,1,0,.37.25.25,0,0,1-.22.09h-4.4a3.76,3.76,0,0,0,.17,1.08,2.1,2.1,0,0,0,.42.77,1.72,1.72,0,0,0,.65.46,2.11,2.11,0,0,0,.85.16,2.72,2.72,0,0,0,.75-.1,3.54,3.54,0,0,0,.54-.22,3.9,3.9,0,0,0,.38-.22.48.48,0,0,1,.27-.1.28.28,0,0,1,.22.11Zm-.93-3.08a2.17,2.17,0,0,0-.12-.74,1.44,1.44,0,0,0-.33-.58,1.56,1.56,0,0,0-.53-.38,2,2,0,0,0-2,.35,2.27,2.27,0,0,0-.61,1.35Z" transform="translate(-1 -1)" fill="#666"/><path d="M79.44,84.21a3.38,3.38,0,0,1,1.3.24,2.77,2.77,0,0,1,1.61,1.75,4.56,4.56,0,0,1,0,2.8,2.9,2.9,0,0,1-.62,1.07,3,3,0,0,1-1,.68,3.67,3.67,0,0,1-2.61,0,2.78,2.78,0,0,1-1-.68A2.92,2.92,0,0,1,76.51,89a4.56,4.56,0,0,1,0-2.8,3,3,0,0,1,.63-1.07,2.78,2.78,0,0,1,1-.68A3.4,3.4,0,0,1,79.44,84.21Zm0,5.87a1.66,1.66,0,0,0,1.45-.65,3,3,0,0,0,.48-1.82,3.07,3.07,0,0,0-.48-1.84,1.69,1.69,0,0,0-1.45-.65,1.91,1.91,0,0,0-.86.17,1.52,1.52,0,0,0-.61.48,2.14,2.14,0,0,0-.37.79,4.21,4.21,0,0,0-.12,1A3,3,0,0,0,78,89.43,1.69,1.69,0,0,0,79.44,90.08Z" transform="translate(-1 -1)" fill="#666"/><rect x="35.54" y="21.55" width="60" height="43" rx="1.08" fill="none" stroke="#666" stroke-miterlimit="10"/><path d="M57,57.9a1.76,1.76,0,0,1-1.68-2V32.17a1.76,1.76,0,0,1,1.68-2,2.27,2.27,0,0,1,1.16.34L78.7,42.41a1.78,1.78,0,0,1,0,3.28L58.13,57.56A2.27,2.27,0,0,1,57,57.9Zm0-26.47c-.38,0-.44.47-.44.74V55.92c0,.28.06.75.44.75a1.06,1.06,0,0,0,.54-.18L78.08,44.62c.3-.18.48-.39.48-.57s-.18-.39-.48-.57L57.51,31.61a1.06,1.06,0,0,0-.54-.18Zm0,0" transform="translate(-1 -1)" fill="#666"/></svg>