<svg id="Capa_1" data-name="Capa 1" xmlns="http://www.w3.org/2000/svg" viewBox="0 0 334.07 271.86"><title>Elementos</title><path d="M17.38,54.37H327.59c6.59,0,11.93-5,11.93-11.1V15.53c0-6.13-5.34-11.1-11.93-11.1H17.38c-6.59,0-11.93,5-11.93,11.1V43.27C5.45,49.4,10.79,54.37,17.38,54.37Zm0,111H327.59c6.59,0,11.93-5,11.93-11.09V126.5c0-6.13-5.34-11.1-11.93-11.1H17.38c-6.59,0-11.93,5-11.93,11.1v27.74C5.45,160.36,10.79,165.33,17.38,165.33Zm0,111H327.59c6.59,0,11.93-5,11.93-11.1V237.46c0-6.13-5.34-11.1-11.93-11.1H17.38c-6.59,0-11.93,5-11.93,11.1V265.2C5.45,271.33,10.79,276.3,17.38,276.3Z" transform="translate(-5.45 -4.43)" fill="#666"/></svg>