<svg id="Capa_1" data-name="Capa 1" xmlns="http://www.w3.org/2000/svg" viewBox="0 0 310.94 276.34"><title>Estilos</title><path d="M222.35,47.06,271,95.75a5.26,5.26,0,0,1,0,7.45L153.15,221.1l-50.1,5.56a10.5,10.5,0,0,1-11.61-11.61L97,165,214.9,47.06a5.26,5.26,0,0,1,7.45,0ZM309.8,34.69,283.46,8.35a21.11,21.11,0,0,0-29.8,0L234.55,27.46a5.28,5.28,0,0,0,0,7.45l48.7,48.69a5.27,5.27,0,0,0,7.44,0L309.8,64.49A21.11,21.11,0,0,0,309.8,34.69ZM212.31,189v55H39.56V71.24H163.62a6.64,6.64,0,0,0,4.59-1.89L189.8,47.76a6.48,6.48,0,0,0-4.59-11.07H30.93A25.92,25.92,0,0,0,5,62.6v190a25.93,25.93,0,0,0,25.92,25.92H221a25.92,25.92,0,0,0,25.91-25.92V167.44a6.49,6.49,0,0,0-11.07-4.59L214.2,184.44A6.62,6.62,0,0,0,212.31,189Z" transform="translate(-5.01 -2.2)" fill="white" stroke-width="17" stroke="#406D63"/></svg>