<svg id="Capa_1" data-name="Capa 1" xmlns="http://www.w3.org/2000/svg" viewBox="0 0 131.09 111.25"><title>Compartir</title><rect width="131.09" height="111.25" rx="3.1" fill="#fff"/><path d="M20.37,91a.25.25,0,0,1,.18.08l.5.54a4,4,0,0,1-1.39,1,4.68,4.68,0,0,1-2,.38,4.61,4.61,0,0,1-1.82-.35,4,4,0,0,1-1.4-1,4.51,4.51,0,0,1-.9-1.5,5.7,5.7,0,0,1-.31-1.93,5.43,5.43,0,0,1,.33-1.93,4.37,4.37,0,0,1,.93-1.51,4.14,4.14,0,0,1,1.44-1,4.84,4.84,0,0,1,1.85-.35,4.6,4.6,0,0,1,1.76.32,4.42,4.42,0,0,1,1.34.87l-.42.57a.36.36,0,0,1-.1.11.29.29,0,0,1-.17,0,.5.5,0,0,1-.28-.12c-.12-.09-.26-.18-.44-.29a4.27,4.27,0,0,0-.69-.28,3.6,3.6,0,0,0-1-.12,3.27,3.27,0,0,0-1.32.25,2.67,2.67,0,0,0-1,.72,3.33,3.33,0,0,0-.68,1.16,5,5,0,0,0,0,3.09A3.5,3.5,0,0,0,15.48,91a2.72,2.72,0,0,0,1,.71,3.13,3.13,0,0,0,1.27.25,5.78,5.78,0,0,0,.75,0,2.72,2.72,0,0,0,.61-.15,2.9,2.9,0,0,0,.53-.26,5.31,5.31,0,0,0,.48-.38A.34.34,0,0,1,20.37,91Z" transform="translate(-1.46 -2.35)" fill="#666"/><path d="M24.88,86.23a3.35,3.35,0,0,1,1.3.24,2.68,2.68,0,0,1,1,.69,3.06,3.06,0,0,1,.63,1.07,4.33,4.33,0,0,1,.22,1.4A4.37,4.37,0,0,1,27.8,91a3.16,3.16,0,0,1-.63,1.07,2.78,2.78,0,0,1-1,.68,3.54,3.54,0,0,1-1.3.23,3.64,3.64,0,0,1-1.31-.23A2.77,2.77,0,0,1,22,91a4.56,4.56,0,0,1,0-2.8,2.9,2.9,0,0,1,.62-1.07,2.85,2.85,0,0,1,1-.69A3.43,3.43,0,0,1,24.88,86.23Zm0,5.88a1.71,1.71,0,0,0,1.46-.65,3.73,3.73,0,0,0,0-3.66,1.69,1.69,0,0,0-1.46-.66,2.09,2.09,0,0,0-.86.17,1.62,1.62,0,0,0-.61.49,2.16,2.16,0,0,0-.36.78,4.21,4.21,0,0,0-.12,1,3.06,3.06,0,0,0,.48,1.83A1.73,1.73,0,0,0,24.88,92.11Z" transform="translate(-1.46 -2.35)" fill="#666"/><path d="M29.48,92.92V86.34h.69a.29.29,0,0,1,.31.24l.08.67a3.5,3.5,0,0,1,.82-.73,2,2,0,0,1,1.06-.29,1.56,1.56,0,0,1,1.07.37,2.06,2.06,0,0,1,.6,1,2,2,0,0,1,.36-.61,1.88,1.88,0,0,1,.51-.43,1.81,1.81,0,0,1,.59-.25,2.8,2.8,0,0,1,.64-.08,2.45,2.45,0,0,1,.93.17,1.87,1.87,0,0,1,.69.48,2.23,2.23,0,0,1,.43.79,3.43,3.43,0,0,1,.15,1.06v4.19H37.25V88.73a1.77,1.77,0,0,0-.34-1.17,1.2,1.2,0,0,0-1-.4,1.4,1.4,0,0,0-.54.1,1.2,1.2,0,0,0-.45.29,1.52,1.52,0,0,0-.31.49,1.85,1.85,0,0,0-.11.69v4.19H33.35V88.73A1.79,1.79,0,0,0,33,87.55a1.12,1.12,0,0,0-.93-.39,1.4,1.4,0,0,0-.79.23,2.76,2.76,0,0,0-.67.62v4.91Z" transform="translate(-1.46 -2.35)" fill="#666"/><path d="M41.28,87.36a3.31,3.31,0,0,1,1-.83,2.44,2.44,0,0,1,1.25-.31,2.32,2.32,0,0,1,1,.22,2.11,2.11,0,0,1,.79.64,3.26,3.26,0,0,1,.5,1.06A5.71,5.71,0,0,1,46,89.59a4.54,4.54,0,0,1-.19,1.35A3.4,3.4,0,0,1,45.23,92a2.86,2.86,0,0,1-.9.72,2.7,2.7,0,0,1-1.19.26,2.5,2.5,0,0,1-1-.2,2.66,2.66,0,0,1-.77-.57v2.91H40.17V86.34h.7a.28.28,0,0,1,.3.24Zm0,4a2,2,0,0,0,.7.6,1.93,1.93,0,0,0,.85.18,1.66,1.66,0,0,0,1.41-.66,3.06,3.06,0,0,0,.5-1.87,4.49,4.49,0,0,0-.12-1.11,1.85,1.85,0,0,0-.33-.75,1.22,1.22,0,0,0-.52-.44,2,2,0,0,0-1.7.13,2.7,2.7,0,0,0-.79.73Z" transform="translate(-1.46 -2.35)" fill="#666"/><path d="M47.29,87.27a3.6,3.6,0,0,1,1.18-.79,3.66,3.66,0,0,1,1.39-.26,2.48,2.48,0,0,1,1,.18,2,2,0,0,1,.73.51,2.25,2.25,0,0,1,.44.79,3.2,3.2,0,0,1,.15,1v4.21h-.52a.6.6,0,0,1-.26,0,.42.42,0,0,1-.14-.22L51.11,92a3.88,3.88,0,0,1-.51.43,2.47,2.47,0,0,1-.52.31,2.64,2.64,0,0,1-.58.2,3.47,3.47,0,0,1-.68.07,2.36,2.36,0,0,1-.72-.11,1.53,1.53,0,0,1-1-.87,1.82,1.82,0,0,1-.15-.77,1.48,1.48,0,0,1,.22-.75,1.8,1.8,0,0,1,.69-.64,4.45,4.45,0,0,1,1.26-.46,9.63,9.63,0,0,1,1.9-.21v-.51a1.71,1.71,0,0,0-.34-1.16,1.19,1.19,0,0,0-1-.39,2.12,2.12,0,0,0-.72.1,2.59,2.59,0,0,0-.5.24l-.37.24a.47.47,0,0,1-.3.11.34.34,0,0,1-.2-.06.5.5,0,0,1-.14-.15ZM51,90a11.64,11.64,0,0,0-1.37.12,3.82,3.82,0,0,0-.91.27,1.28,1.28,0,0,0-.52.38.87.87,0,0,0-.15.5,1,1,0,0,0,.08.44.81.81,0,0,0,.23.31,1,1,0,0,0,.35.18,1.86,1.86,0,0,0,.42,0,2.47,2.47,0,0,0,.56-.06A2,2,0,0,0,50.2,92a2.87,2.87,0,0,0,.43-.28,4.49,4.49,0,0,0,.4-.37Z" transform="translate(-1.46 -2.35)" fill="#666"/><path d="M55,87.66a3,3,0,0,1,.76-1.06,1.73,1.73,0,0,1,1.12-.38,1.83,1.83,0,0,1,.4,0,1,1,0,0,1,.34.14l-.09.86a.19.19,0,0,1-.19.17l-.27,0a1.64,1.64,0,0,0-.4,0,1.59,1.59,0,0,0-.55.09,1.34,1.34,0,0,0-.44.27,2.23,2.23,0,0,0-.34.44,4.17,4.17,0,0,0-.28.6v4.16H53.92V86.34h.66a.35.35,0,0,1,.26.07.45.45,0,0,1,.1.25Z" transform="translate(-1.46 -2.35)" fill="#666"/><path d="M64.76,92.92H63.6V87.31H60.21v4a.84.84,0,0,0,.2.61.7.7,0,0,0,.52.21,1,1,0,0,0,.32,0,1.23,1.23,0,0,0,.23-.11,1.11,1.11,0,0,0,.16-.11.28.28,0,0,1,.12,0,.21.21,0,0,1,.17.11l.33.56a2.14,2.14,0,0,1-.72.44,2.58,2.58,0,0,1-.87.16,1.59,1.59,0,0,1-1.2-.44,1.73,1.73,0,0,1-.42-1.25v-4h-.79a.24.24,0,0,1-.17-.07.23.23,0,0,1-.08-.19v-.46l1.08-.14.27-2a.24.24,0,0,1,.09-.16.24.24,0,0,1,.18-.06h.58v2.27h4.55Zm.29-8.7a.83.83,0,0,1-.07.32,1.2,1.2,0,0,1-.18.26,1,1,0,0,1-.27.17.68.68,0,0,1-.32.07A.67.67,0,0,1,63.9,85a.76.76,0,0,1-.43-.43.68.68,0,0,1-.07-.32.71.71,0,0,1,.07-.32.78.78,0,0,1,.17-.26.76.76,0,0,1,.26-.18.67.67,0,0,1,.31-.07.68.68,0,0,1,.32.07.8.8,0,0,1,.27.18,1,1,0,0,1,.18.26A.88.88,0,0,1,65.05,84.22Z" transform="translate(-1.46 -2.35)" fill="#666"/><path d="M67.76,87.66a3,3,0,0,1,.76-1.06,1.73,1.73,0,0,1,1.12-.38,1.83,1.83,0,0,1,.4,0,1,1,0,0,1,.34.14l-.09.86a.19.19,0,0,1-.19.17l-.27,0a1.64,1.64,0,0,0-.4,0,1.59,1.59,0,0,0-.55.09,1.34,1.34,0,0,0-.44.27,1.91,1.91,0,0,0-.34.44,4.17,4.17,0,0,0-.28.6v4.16H66.66V86.34h.66a.35.35,0,0,1,.26.07.45.45,0,0,1,.1.25Z" transform="translate(-1.46 -2.35)" fill="#666"/><path d="M79.79,92a2.22,2.22,0,0,1-.51.45,3.82,3.82,0,0,1-.64.32,4.41,4.41,0,0,1-1.43.24A3.21,3.21,0,0,1,76,92.78a2.8,2.8,0,0,1-1-.67A3.21,3.21,0,0,1,74.3,91a4.59,4.59,0,0,1-.23-1.5,3.88,3.88,0,0,1,.21-1.29,2.92,2.92,0,0,1,.61-1,2.85,2.85,0,0,1,1-.69,3.28,3.28,0,0,1,1.28-.25,3,3,0,0,1,1.1.2,2.53,2.53,0,0,1,.87.57,2.56,2.56,0,0,1,.57.93,3.45,3.45,0,0,1,.21,1.25.72.72,0,0,1-.06.36c0,.06-.11.09-.22.09h-4.4a3.82,3.82,0,0,0,.18,1.09,2.19,2.19,0,0,0,.42.77,1.75,1.75,0,0,0,.65.46,2.26,2.26,0,0,0,.85.15,2.39,2.39,0,0,0,.75-.1,3.54,3.54,0,0,0,.54-.22,4,4,0,0,0,.38-.21.48.48,0,0,1,.26-.1.23.23,0,0,1,.22.11Zm-.94-3.09a2.5,2.5,0,0,0-.11-.74,1.94,1.94,0,0,0-.33-.58,1.54,1.54,0,0,0-.53-.37,2,2,0,0,0-2,.35,2.29,2.29,0,0,0-.6,1.34Z" transform="translate(-1.46 -2.35)" fill="#666"/><path d="M82.4,87.29a3.72,3.72,0,0,1,.46-.43,3.48,3.48,0,0,1,.51-.34,2.78,2.78,0,0,1,.57-.21,2.69,2.69,0,0,1,.65-.08,2.33,2.33,0,0,1,1,.18,1.78,1.78,0,0,1,.69.51,2.07,2.07,0,0,1,.42.79,3.31,3.31,0,0,1,.15,1v4.19H85.63V88.73a1.75,1.75,0,0,0-.34-1.16,1.25,1.25,0,0,0-1-.41,1.94,1.94,0,0,0-1,.24,3.26,3.26,0,0,0-.83.67v4.85H81.31V86.34H82a.28.28,0,0,1,.3.24Z" transform="translate(-1.46 -2.35)" fill="#666"/><path d="M99.05,92.92H97.93a.56.56,0,0,1-.51-.27L95,89.33a.85.85,0,0,0-.24-.23,1,1,0,0,0-.4-.07h-1v3.89H92.16V83.61H94.8a5.61,5.61,0,0,1,1.52.18,2.88,2.88,0,0,1,1.07.51,2.15,2.15,0,0,1,.62.82,2.79,2.79,0,0,1,.2,1.07,2.54,2.54,0,0,1-.16.92,2.3,2.3,0,0,1-.45.77,2.74,2.74,0,0,1-.72.58,3.91,3.91,0,0,1-1,.37,1.26,1.26,0,0,1,.41.39Zm-4.3-4.8a3.48,3.48,0,0,0,1-.13,2,2,0,0,0,.7-.38,1.72,1.72,0,0,0,.43-.58,2,2,0,0,0,.14-.75A1.49,1.49,0,0,0,96.43,85a2.65,2.65,0,0,0-1.63-.42H93.42v3.52Z" transform="translate(-1.46 -2.35)" fill="#666"/><path d="M107.19,92.92h-1.12a.55.55,0,0,1-.5-.27l-2.42-3.32a.65.65,0,0,0-.24-.23.9.9,0,0,0-.39-.07h-1v3.89h-1.25V83.61h2.63a5.74,5.74,0,0,1,1.53.18,2.83,2.83,0,0,1,1.06.51,2.06,2.06,0,0,1,.62.82,2.62,2.62,0,0,1,.2,1.07,2.77,2.77,0,0,1-.15.92,2.69,2.69,0,0,1-.45.77,2.63,2.63,0,0,1-.73.58,3.76,3.76,0,0,1-1,.37,1.29,1.29,0,0,1,.42.39Zm-4.3-4.8a3.43,3.43,0,0,0,1-.13,2.09,2.09,0,0,0,.71-.38A1.57,1.57,0,0,0,105,87a1.86,1.86,0,0,0,.15-.75,1.52,1.52,0,0,0-.55-1.26,2.66,2.66,0,0,0-1.64-.42h-1.38v3.52Z" transform="translate(-1.46 -2.35)" fill="#666"/><path d="M113.22,85.06a.39.39,0,0,1-.13.15.28.28,0,0,1-.16.05.47.47,0,0,1-.26-.11,3.59,3.59,0,0,0-.38-.25,3.47,3.47,0,0,0-.54-.24,2.39,2.39,0,0,0-.76-.11,2.47,2.47,0,0,0-.75.11,1.61,1.61,0,0,0-.53.31,1.15,1.15,0,0,0-.33.46,1.38,1.38,0,0,0-.11.57,1.06,1.06,0,0,0,.19.65,1.67,1.67,0,0,0,.51.43,3.31,3.31,0,0,0,.71.32l.82.28a8.18,8.18,0,0,1,.82.32,3.06,3.06,0,0,1,.71.45,2.13,2.13,0,0,1,.51.67,2.18,2.18,0,0,1,.19,1,3.13,3.13,0,0,1-.21,1.15,2.53,2.53,0,0,1-.6.93,2.8,2.8,0,0,1-1,.63,3.58,3.58,0,0,1-1.32.23,3.93,3.93,0,0,1-2.92-1.22l.37-.6a.34.34,0,0,1,.12-.12.34.34,0,0,1,.17,0,.4.4,0,0,1,.19.07l.25.17.31.23a2.48,2.48,0,0,0,.4.23,3,3,0,0,0,.51.17,2.51,2.51,0,0,0,.64.07,2.45,2.45,0,0,0,.8-.12,2,2,0,0,0,.6-.35,1.58,1.58,0,0,0,.37-.54,1.73,1.73,0,0,0,.13-.69,1.23,1.23,0,0,0-.19-.7,1.59,1.59,0,0,0-.51-.45,3.89,3.89,0,0,0-.71-.31l-.82-.26a8.11,8.11,0,0,1-.82-.31,2.26,2.26,0,0,1-.71-.45,2.15,2.15,0,0,1-.51-.7,2.7,2.7,0,0,1,0-2,2.55,2.55,0,0,1,.56-.82,2.77,2.77,0,0,1,.9-.57A3.19,3.19,0,0,1,111,83.5a4,4,0,0,1,1.42.25,3.17,3.17,0,0,1,1.12.72Z" transform="translate(-1.46 -2.35)" fill="#666"/><path d="M120.27,85.06a.39.39,0,0,1-.13.15.28.28,0,0,1-.16.05.47.47,0,0,1-.26-.11,3.59,3.59,0,0,0-.38-.25,3.32,3.32,0,0,0-.53-.24,2.51,2.51,0,0,0-.77-.11,2.35,2.35,0,0,0-.74.11,1.56,1.56,0,0,0-.54.31,1.15,1.15,0,0,0-.33.46,1.38,1.38,0,0,0-.11.57,1.06,1.06,0,0,0,.19.65,1.67,1.67,0,0,0,.51.43,3.55,3.55,0,0,0,.71.32l.82.28a8.18,8.18,0,0,1,.82.32,2.92,2.92,0,0,1,.72.45,2.1,2.1,0,0,1,.5.67,2.18,2.18,0,0,1,.19,1,3.35,3.35,0,0,1-.2,1.15,2.69,2.69,0,0,1-.61.93,2.85,2.85,0,0,1-1,.63,3.67,3.67,0,0,1-1.33.23A4.05,4.05,0,0,1,116,92.7a3.94,3.94,0,0,1-1.26-.89l.36-.6a.37.37,0,0,1,.13-.12.3.3,0,0,1,.16,0,.4.4,0,0,1,.19.07l.25.17.31.23a3,3,0,0,0,.4.23,3,3,0,0,0,.51.17,2.51,2.51,0,0,0,.64.07,2.45,2.45,0,0,0,.8-.12,1.86,1.86,0,0,0,.6-.35,1.58,1.58,0,0,0,.37-.54,1.73,1.73,0,0,0,.13-.69,1.16,1.16,0,0,0-.19-.7,1.67,1.67,0,0,0-.5-.45,4,4,0,0,0-.72-.31l-.82-.26a8.11,8.11,0,0,1-.82-.31,2.38,2.38,0,0,1-.71-.45,2.15,2.15,0,0,1-.51-.7,2.61,2.61,0,0,1-.19-1,2.64,2.64,0,0,1,.19-1,2.55,2.55,0,0,1,.56-.82,2.71,2.71,0,0,1,.91-.57A3.11,3.11,0,0,1,118,83.5a4,4,0,0,1,1.42.25,3.21,3.21,0,0,1,1.13.72Z" transform="translate(-1.46 -2.35)" fill="#666"/><line x1="50.53" y1="43.39" x2="76.56" y2="28.92" fill="none" stroke="#666" stroke-miterlimit="10"/><line x1="50.53" y1="43.39" x2="76.56" y2="57.85" fill="none" stroke="#666" stroke-miterlimit="10"/><circle cx="76.56" cy="28.92" r="7.23" fill="#fff" stroke="#666" stroke-miterlimit="10"/><circle cx="76.56" cy="58.82" r="7.23" fill="#fff" stroke="#666" stroke-miterlimit="10"/><circle cx="50.53" cy="43.87" r="7.23" fill="#fff" stroke="#666" stroke-miterlimit="10"/></svg>