<svg id="Capa_1" data-name="Capa 1" xmlns="http://www.w3.org/2000/svg" viewBox="0 0 130.85 111.05"><title>Estrcutura 3</title><rect width="130.85" height="111.05" rx="3.1" fill="#fff"/><path d="M46.12,28.81a3.05,3.05,0,0,1,3,3V83.2a3,3,0,0,1-3,3H26.55a3,3,0,0,1-3-3V31.85a3,3,0,0,1,3-3H46.12m0-1.3H26.55a4.33,4.33,0,0,0-4.33,4.34V83.2a4.33,4.33,0,0,0,4.33,4.34H46.12a4.34,4.34,0,0,0,4.34-4.34V31.85a4.34,4.34,0,0,0-4.34-4.34Z" transform="translate(-3 -2)" fill="#666"/><path d="M78.21,28.81a3.05,3.05,0,0,1,3,3V83.2a3,3,0,0,1-3,3H58.64a3,3,0,0,1-3-3V31.85a3.05,3.05,0,0,1,3-3H78.21m0-1.3H58.64a4.34,4.34,0,0,0-4.34,4.34V83.2a4.34,4.34,0,0,0,4.34,4.34H78.21a4.34,4.34,0,0,0,4.34-4.34V31.85a4.34,4.34,0,0,0-4.34-4.34Z" transform="translate(-3 -2)" fill="#666"/><path d="M110.3,28.81a3.05,3.05,0,0,1,3,3V83.2a3,3,0,0,1-3,3H90.73a3,3,0,0,1-3-3V31.85a3.05,3.05,0,0,1,3-3H110.3m0-1.3H90.73a4.34,4.34,0,0,0-4.34,4.34V83.2a4.34,4.34,0,0,0,4.34,4.34H110.3a4.34,4.34,0,0,0,4.34-4.34V31.85a4.34,4.34,0,0,0-4.34-4.34Z" transform="translate(-3 -2)" fill="#666"/></svg>