<svg id="Capa_1" data-name="Capa 1" xmlns="http://www.w3.org/2000/svg" viewBox="0 0 130.85 111.05"><title>Estrcutura 6</title><rect width="130.85" height="111.05" rx="3.1" fill="#fff"/><path d="M110.13,28.81a3,3,0,0,1,3,3V83.2a3,3,0,0,1-3,3H87.77a3,3,0,0,1-3-3V31.85a3.05,3.05,0,0,1,3-3h22.36m0-1.3H87.77a4.34,4.34,0,0,0-4.34,4.34V83.2a4.34,4.34,0,0,0,4.34,4.34h22.36a4.34,4.34,0,0,0,4.34-4.34V31.85a4.34,4.34,0,0,0-4.34-4.34Z" transform="translate(-3 -2)" fill="#666"/><path d="M76.09,28.81a3,3,0,0,1,3,3V83.2a3,3,0,0,1-3,3H26.72a3,3,0,0,1-3-3V31.85a3.05,3.05,0,0,1,3-3H76.09m0-1.3H26.72a4.34,4.34,0,0,0-4.34,4.34V83.2a4.34,4.34,0,0,0,4.34,4.34H76.09a4.34,4.34,0,0,0,4.34-4.34V31.85a4.34,4.34,0,0,0-4.34-4.34Z" transform="translate(-3 -2)" fill="#666"/></svg>