<svg id="Capa_1" data-name="Capa 1" xmlns="http://www.w3.org/2000/svg" viewBox="0 0 131.09 111.25"><title>Casilla verificación</title><rect width="131.09" height="111.25" rx="3.1" fill="#fff"/><path d="M47.75,90.29a.23.23,0,0,1,.18.09l.5.54a4,4,0,0,1-1.38,1,4.76,4.76,0,0,1-2,.37A4.69,4.69,0,0,1,43.25,92a4,4,0,0,1-1.4-1A4.44,4.44,0,0,1,41,89.49a5.66,5.66,0,0,1-.32-1.93A5.47,5.47,0,0,1,41,85.63a4.46,4.46,0,0,1,.93-1.51,4.11,4.11,0,0,1,1.44-1,4.67,4.67,0,0,1,1.86-.35,4.37,4.37,0,0,1,1.75.32,4.46,4.46,0,0,1,1.34.86l-.42.58a.35.35,0,0,1-.1.11.34.34,0,0,1-.16,0,.48.48,0,0,1-.29-.13,4.34,4.34,0,0,0-.44-.28A2.9,2.9,0,0,0,46.2,84a3.3,3.3,0,0,0-1-.13,3.34,3.34,0,0,0-1.32.25,3,3,0,0,0-1,.72A3.4,3.4,0,0,0,42.17,86a4.65,4.65,0,0,0-.24,1.54,4.48,4.48,0,0,0,.25,1.56,3.28,3.28,0,0,0,.68,1.15,3.05,3.05,0,0,0,1,.72,3.34,3.34,0,0,0,1.27.24,5.66,5.66,0,0,0,.75,0,3.74,3.74,0,0,0,.62-.16,2.61,2.61,0,0,0,.53-.26,4,4,0,0,0,.48-.38A.32.32,0,0,1,47.75,90.29Z" transform="translate(-1.46 -1.32)" fill="#666"/><path d="M49.45,86.56a4,4,0,0,1,1.18-.79,3.71,3.71,0,0,1,1.4-.26,2.52,2.52,0,0,1,1,.19,2.07,2.07,0,0,1,.72.5,2.1,2.1,0,0,1,.44.79,3.29,3.29,0,0,1,.15,1v4.22h-.51a.48.48,0,0,1-.26-.06.37.37,0,0,1-.14-.22l-.13-.62q-.27.24-.51.42a3.17,3.17,0,0,1-.52.32,2.81,2.81,0,0,1-.58.19,3,3,0,0,1-.69.07,2.36,2.36,0,0,1-.72-.11,1.68,1.68,0,0,1-.59-.32,1.47,1.47,0,0,1-.4-.54,2.05,2.05,0,0,1-.14-.78,1.47,1.47,0,0,1,.21-.75,2,2,0,0,1,.7-.64,4.49,4.49,0,0,1,1.25-.46,9.8,9.8,0,0,1,1.9-.2V88a1.78,1.78,0,0,0-.33-1.16,1.19,1.19,0,0,0-1-.39,2.14,2.14,0,0,0-.72.11,2.59,2.59,0,0,0-.5.24l-.36.24a.53.53,0,0,1-.3.11.31.31,0,0,1-.21-.07.67.67,0,0,1-.14-.15Zm3.74,2.69a9.52,9.52,0,0,0-1.36.13,4,4,0,0,0-.92.26,1.32,1.32,0,0,0-.51.39.78.78,0,0,0-.16.49,1.25,1.25,0,0,0,.08.45.92.92,0,0,0,.24.31.78.78,0,0,0,.34.17,1.44,1.44,0,0,0,.43.06,2.32,2.32,0,0,0,.55-.06,2.5,2.5,0,0,0,.48-.18,2.87,2.87,0,0,0,.43-.28,3.44,3.44,0,0,0,.4-.37Z" transform="translate(-1.46 -1.32)" fill="#666"/><path d="M59.92,86.72a.26.26,0,0,1-.24.14.4.4,0,0,1-.22-.07l-.31-.16a2.47,2.47,0,0,0-.42-.16,2.05,2.05,0,0,0-.59-.08,1.67,1.67,0,0,0-.52.08,1.36,1.36,0,0,0-.4.2A1,1,0,0,0,57,87a1,1,0,0,0-.08.38.64.64,0,0,0,.14.42,1.32,1.32,0,0,0,.39.29,3.15,3.15,0,0,0,.55.22l.62.2a5.87,5.87,0,0,1,.63.24,2.48,2.48,0,0,1,.55.32,1.37,1.37,0,0,1,.38.48,1.45,1.45,0,0,1,.15.68,2.28,2.28,0,0,1-.16.84,1.88,1.88,0,0,1-.48.67,2.49,2.49,0,0,1-.78.45,3.21,3.21,0,0,1-1.07.16,3.2,3.2,0,0,1-2.2-.8l.28-.44A.3.3,0,0,1,56,91a.35.35,0,0,1,.18,0,.45.45,0,0,1,.25.09,3.28,3.28,0,0,0,.31.21,3.18,3.18,0,0,0,.45.2,2.13,2.13,0,0,0,.67.09,1.78,1.78,0,0,0,.59-.09,1.22,1.22,0,0,0,.42-.24.91.91,0,0,0,.25-.34,1,1,0,0,0,.08-.42.73.73,0,0,0-.14-.45,1.19,1.19,0,0,0-.39-.3,3.14,3.14,0,0,0-.55-.23l-.63-.19q-.32-.11-.63-.24a2,2,0,0,1-.55-.34,1.57,1.57,0,0,1-.39-.49,1.74,1.74,0,0,1-.14-.72,1.87,1.87,0,0,1,.15-.73,1.93,1.93,0,0,1,.46-.61,2.45,2.45,0,0,1,.73-.42,3.09,3.09,0,0,1,1-.15,3.24,3.24,0,0,1,1.16.2,2.92,2.92,0,0,1,.9.56Z" transform="translate(-1.46 -1.32)" fill="#666"/><path d="M63.18,83.56a.68.68,0,0,1-.07.32.76.76,0,0,1-.18.26.64.64,0,0,1-.27.18.83.83,0,0,1-.32.06.78.78,0,0,1-.31-.06.68.68,0,0,1-.26-.18.9.9,0,0,1-.17-.26.68.68,0,0,1-.07-.32.74.74,0,0,1,.07-.32.78.78,0,0,1,.17-.26A.68.68,0,0,1,62,82.8a.64.64,0,0,1,.31-.07.68.68,0,0,1,.32.07.64.64,0,0,1,.27.18.68.68,0,0,1,.18.26A.74.74,0,0,1,63.18,83.56Zm-.25,2.07v6.59H61.78V85.63Z" transform="translate(-1.46 -1.32)" fill="#666"/><path d="M66,82.64v9.58H64.87V82.64Z" transform="translate(-1.46 -1.32)" fill="#666"/><path d="M69.1,82.64v9.58H67.94V82.64Z" transform="translate(-1.46 -1.32)" fill="#666"/><path d="M70.8,86.56A3.88,3.88,0,0,1,72,85.77a3.66,3.66,0,0,1,1.39-.26,2.48,2.48,0,0,1,1,.19,2.11,2.11,0,0,1,.73.5,2.25,2.25,0,0,1,.44.79,3.29,3.29,0,0,1,.15,1v4.22h-.52a.5.5,0,0,1-.26-.06.42.42,0,0,1-.14-.22l-.13-.62a4.71,4.71,0,0,1-.51.42,2.51,2.51,0,0,1-.52.32,2.63,2.63,0,0,1-.58.19,2.84,2.84,0,0,1-.68.07,2.36,2.36,0,0,1-.72-.11,1.6,1.6,0,0,1-.59-.32,1.47,1.47,0,0,1-.4-.54,1.87,1.87,0,0,1-.15-.78,1.48,1.48,0,0,1,.22-.75,1.87,1.87,0,0,1,.69-.64,4.57,4.57,0,0,1,1.26-.46,9.71,9.71,0,0,1,1.9-.2V88a1.78,1.78,0,0,0-.33-1.16,1.22,1.22,0,0,0-1-.39,2.1,2.1,0,0,0-.72.11,2.59,2.59,0,0,0-.5.24l-.37.24a.53.53,0,0,1-.3.11.29.29,0,0,1-.2-.07.5.5,0,0,1-.14-.15Zm3.74,2.69a9.37,9.37,0,0,0-1.36.13,3.82,3.82,0,0,0-.92.26,1.19,1.19,0,0,0-.51.39.78.78,0,0,0-.16.49,1.06,1.06,0,0,0,.08.45.9.9,0,0,0,.23.31.82.82,0,0,0,.35.17,1.42,1.42,0,0,0,.42.06,2.4,2.4,0,0,0,.56-.06,2.5,2.5,0,0,0,.48-.18,2.87,2.87,0,0,0,.43-.28,4.49,4.49,0,0,0,.4-.37Z" transform="translate(-1.46 -1.32)" fill="#666"/><path d="M86.2,82.64v9.58h-.68A.3.3,0,0,1,85.2,92l-.1-.8a3.74,3.74,0,0,1-1,.82,2.54,2.54,0,0,1-1.25.31,2.47,2.47,0,0,1-1-.22,2.1,2.1,0,0,1-.78-.64,3,3,0,0,1-.51-1A5.77,5.77,0,0,1,80.4,89a4.56,4.56,0,0,1,.19-1.36,3.4,3.4,0,0,1,.56-1.09,2.52,2.52,0,0,1,.9-.72,2.57,2.57,0,0,1,1.19-.27,2.38,2.38,0,0,1,1,.21,2.8,2.8,0,0,1,.77.57V82.64ZM85.05,87.2a2,2,0,0,0-.7-.61,2.15,2.15,0,0,0-.85-.17,1.68,1.68,0,0,0-1.41.65A3.09,3.09,0,0,0,81.6,89a4.44,4.44,0,0,0,.11,1.1,2.15,2.15,0,0,0,.32.75,1.22,1.22,0,0,0,.53.43,1.61,1.61,0,0,0,.71.14,1.87,1.87,0,0,0,1-.26,2.84,2.84,0,0,0,.79-.73Z" transform="translate(-1.46 -1.32)" fill="#666"/><path d="M93.38,91.29a1.84,1.84,0,0,1-.51.45,3.19,3.19,0,0,1-.64.32,5.71,5.71,0,0,1-.71.19,4.37,4.37,0,0,1-.72.06,3.48,3.48,0,0,1-1.26-.23,2.83,2.83,0,0,1-1-.68,3.16,3.16,0,0,1-.66-1.1,4.65,4.65,0,0,1-.23-1.51,3.88,3.88,0,0,1,.21-1.29,3,3,0,0,1,.61-1,2.61,2.61,0,0,1,1-.69,3.11,3.11,0,0,1,1.28-.25,2.83,2.83,0,0,1,1.1.2,2.35,2.35,0,0,1,.87.57,2.54,2.54,0,0,1,.58.92,3.72,3.72,0,0,1,.2,1.25.8.8,0,0,1,0,.37.26.26,0,0,1-.23.09H88.8A3.74,3.74,0,0,0,89,90a2.1,2.1,0,0,0,.42.77,1.65,1.65,0,0,0,.65.46,2.11,2.11,0,0,0,.85.16,2.72,2.72,0,0,0,.75-.1,3.54,3.54,0,0,0,.54-.22,3.9,3.9,0,0,0,.38-.22.48.48,0,0,1,.26-.1.28.28,0,0,1,.23.11Zm-.94-3.08a2.17,2.17,0,0,0-.11-.74,1.72,1.72,0,0,0-.33-.58,1.56,1.56,0,0,0-.53-.38,1.8,1.8,0,0,0-.71-.13,1.82,1.82,0,0,0-1.32.48,2.32,2.32,0,0,0-.6,1.35Z" transform="translate(-1.46 -1.32)" fill="#666"/><path d="M42.46,95.9l-3.79,9.32H37.54l-3.8-9.32h1A.4.4,0,0,1,35,96a.49.49,0,0,1,.16.21l2.62,6.57c.06.15.11.31.17.48s.1.36.14.55c0-.19.09-.37.14-.55s.1-.33.16-.48L41,96.2a.39.39,0,0,1,.15-.2.4.4,0,0,1,.28-.1Z" transform="translate(-1.46 -1.32)" fill="#666"/><path d="M47.79,104.29a2,2,0,0,1-.52.45,3,3,0,0,1-.64.32,5.13,5.13,0,0,1-.7.19,4.56,4.56,0,0,1-.72.06,3.4,3.4,0,0,1-1.26-.23,2.78,2.78,0,0,1-1-.68,3.15,3.15,0,0,1-.65-1.1,4.4,4.4,0,0,1-.23-1.51,3.88,3.88,0,0,1,.21-1.29,2.88,2.88,0,0,1,.61-1,2.57,2.57,0,0,1,1-.69,3.16,3.16,0,0,1,1.29-.25,2.83,2.83,0,0,1,1.1.2,2.53,2.53,0,0,1,.87.57,2.66,2.66,0,0,1,.57.92,3.49,3.49,0,0,1,.21,1.25.77.77,0,0,1-.06.37.24.24,0,0,1-.22.09h-4.4a3.76,3.76,0,0,0,.17,1.08,2.12,2.12,0,0,0,.43.77,1.65,1.65,0,0,0,.65.46,2.06,2.06,0,0,0,.84.16,2.72,2.72,0,0,0,.75-.1,3.7,3.7,0,0,0,.55-.22l.38-.22a.48.48,0,0,1,.26-.1.25.25,0,0,1,.22.11Zm-.94-3.08a2.45,2.45,0,0,0-.11-.74,1.72,1.72,0,0,0-.33-.58,1.66,1.66,0,0,0-.53-.38,2,2,0,0,0-2,.35,2.32,2.32,0,0,0-.6,1.35Z" transform="translate(-1.46 -1.32)" fill="#666"/><path d="M50.41,100a3,3,0,0,1,.76-1.06,1.72,1.72,0,0,1,1.11-.38,1.68,1.68,0,0,1,.4,0,1.22,1.22,0,0,1,.35.14l-.09.87a.18.18,0,0,1-.19.16,1.16,1.16,0,0,1-.27,0,2.35,2.35,0,0,0-.4,0,1.55,1.55,0,0,0-.55.09,1.25,1.25,0,0,0-.44.27,1.91,1.91,0,0,0-.34.44,3.85,3.85,0,0,0-.28.61v4.16H49.31V98.63H50a.4.4,0,0,1,.26.07.45.45,0,0,1,.1.25Z" transform="translate(-1.46 -1.32)" fill="#666"/><path d="M55.51,96.56a.68.68,0,0,1-.07.32,1.2,1.2,0,0,1-.18.26.8.8,0,0,1-.27.18.88.88,0,0,1-.64,0,.72.72,0,0,1-.25-.18.93.93,0,0,1-.18-.26.83.83,0,0,1-.06-.32.91.91,0,0,1,.06-.32A.81.81,0,0,1,54.1,96a.72.72,0,0,1,.25-.18.77.77,0,0,1,.64,0,.8.8,0,0,1,.27.18,1,1,0,0,1,.18.26A.74.74,0,0,1,55.51,96.56Zm-.25,2.07v6.59H54.1V98.63Z" transform="translate(-1.46 -1.32)" fill="#666"/><path d="M57.6,105.22v-5.6l-.73-.08a.57.57,0,0,1-.22-.11.22.22,0,0,1-.09-.19v-.48h1V98.4a3,3,0,0,1,.19-1.11,2.33,2.33,0,0,1,.56-.87,2.67,2.67,0,0,1,.94-.56,3.75,3.75,0,0,1,1.31-.21,4.38,4.38,0,0,1,.5,0,2.23,2.23,0,0,1,.45.09l0,.61a.13.13,0,0,1,0,.09.2.2,0,0,1-.11,0h-.43a2.4,2.4,0,0,0-1.67.48,1.85,1.85,0,0,0-.52,1.44v.33h4v6.46H61.54V99.6H58.76v5.62Z" transform="translate(-1.46 -1.32)" fill="#666"/><path d="M69.18,99.8a.27.27,0,0,1-.1.11.2.2,0,0,1-.14,0,.42.42,0,0,1-.22-.08l-.29-.18a2.93,2.93,0,0,0-.42-.18,2.15,2.15,0,0,0-.61-.08,2.09,2.09,0,0,0-.86.17,1.6,1.6,0,0,0-.62.5,2.32,2.32,0,0,0-.38.79,4,4,0,0,0-.13,1,3.78,3.78,0,0,0,.14,1.06,2.2,2.2,0,0,0,.39.78,1.64,1.64,0,0,0,.6.48,1.88,1.88,0,0,0,.8.17,1.94,1.94,0,0,0,.69-.1,2.2,2.2,0,0,0,.46-.22l.29-.23a.36.36,0,0,1,.24-.1.25.25,0,0,1,.22.11l.33.42a2.37,2.37,0,0,1-.49.46,3,3,0,0,1-.59.31,2.94,2.94,0,0,1-.66.19,4,4,0,0,1-.7.06,3,3,0,0,1-1.15-.23,2.6,2.6,0,0,1-.92-.66,3.14,3.14,0,0,1-.61-1.06,4.54,4.54,0,0,1-.22-1.44,4.26,4.26,0,0,1,.21-1.36A3,3,0,0,1,65,99.49a2.74,2.74,0,0,1,1-.71,3.29,3.29,0,0,1,1.33-.25,3.09,3.09,0,0,1,1.22.22,2.86,2.86,0,0,1,.94.64Z" transform="translate(-1.46 -1.32)" fill="#666"/><path d="M70.64,99.56a3.88,3.88,0,0,1,1.18-.79,3.66,3.66,0,0,1,1.39-.26,2.57,2.57,0,0,1,1,.19,2.16,2.16,0,0,1,.72.5,2.25,2.25,0,0,1,.44.79,3.29,3.29,0,0,1,.15,1v4.22H75a.51.51,0,0,1-.27-.06.42.42,0,0,1-.14-.22l-.13-.62a5.87,5.87,0,0,1-.5.42,2.87,2.87,0,0,1-.53.32,2.63,2.63,0,0,1-.58.19,2.84,2.84,0,0,1-.68.07,2.36,2.36,0,0,1-.72-.11,1.6,1.6,0,0,1-.59-.32,1.47,1.47,0,0,1-.4-.54,1.87,1.87,0,0,1-.15-.78,1.48,1.48,0,0,1,.22-.75,1.87,1.87,0,0,1,.69-.64,4.57,4.57,0,0,1,1.26-.46,9.8,9.8,0,0,1,1.9-.2V101a1.78,1.78,0,0,0-.33-1.16,1.21,1.21,0,0,0-1-.39,2.1,2.1,0,0,0-.72.11,2.59,2.59,0,0,0-.5.24l-.37.24a.53.53,0,0,1-.3.11.29.29,0,0,1-.2-.07.5.5,0,0,1-.14-.15Zm3.74,2.69a9.52,9.52,0,0,0-1.36.13,4,4,0,0,0-.92.26,1.19,1.19,0,0,0-.51.39.78.78,0,0,0-.16.49,1.06,1.06,0,0,0,.08.45.9.9,0,0,0,.23.31.82.82,0,0,0,.35.17,1.42,1.42,0,0,0,.42.06,2.4,2.4,0,0,0,.56-.06,2.5,2.5,0,0,0,.48-.18A2.87,2.87,0,0,0,74,104a4.49,4.49,0,0,0,.4-.37Z" transform="translate(-1.46 -1.32)" fill="#666"/><path d="M81.85,99.8a.36.36,0,0,1-.1.11.21.21,0,0,1-.14,0,.42.42,0,0,1-.22-.08l-.29-.18a2.93,2.93,0,0,0-.42-.18,2.17,2.17,0,0,0-.62-.08,2,2,0,0,0-.85.17,1.6,1.6,0,0,0-.62.5,2.15,2.15,0,0,0-.38.79,4,4,0,0,0-.13,1,3.78,3.78,0,0,0,.14,1.06,2.2,2.2,0,0,0,.39.78,1.56,1.56,0,0,0,.6.48,1.88,1.88,0,0,0,.8.17,1.94,1.94,0,0,0,.69-.1,2.36,2.36,0,0,0,.45-.22l.3-.23a.36.36,0,0,1,.24-.1.25.25,0,0,1,.22.11l.33.42a2.65,2.65,0,0,1-.49.46,3,3,0,0,1-.59.31,2.94,2.94,0,0,1-.66.19,4,4,0,0,1-.7.06,2.91,2.91,0,0,1-1.15-.23,2.6,2.6,0,0,1-.92-.66,3.14,3.14,0,0,1-.61-1.06,4.27,4.27,0,0,1-.22-1.44,4.56,4.56,0,0,1,.2-1.36,3.19,3.19,0,0,1,.6-1.07,2.65,2.65,0,0,1,1-.71A3.24,3.24,0,0,1,80,98.53a3.11,3.11,0,0,1,1.23.22,2.86,2.86,0,0,1,.94.64Z" transform="translate(-1.46 -1.32)" fill="#666"/><path d="M85,96.56a.83.83,0,0,1-.07.32,1.2,1.2,0,0,1-.18.26.8.8,0,0,1-.27.18.88.88,0,0,1-.64,0,.72.72,0,0,1-.25-.18.76.76,0,0,1-.18-.26.83.83,0,0,1-.06-.32.91.91,0,0,1,.06-.32.68.68,0,0,1,.18-.26.72.72,0,0,1,.25-.18.77.77,0,0,1,.64,0,.8.8,0,0,1,.27.18,1,1,0,0,1,.18.26A.92.92,0,0,1,85,96.56Zm-.25,2.07v6.59H83.54V98.63Z" transform="translate(-1.46 -1.32)" fill="#666"/><path d="M89.37,98.53a3.35,3.35,0,0,1,1.3.24,2.78,2.78,0,0,1,1,.68,3.16,3.16,0,0,1,.63,1.07,4.37,4.37,0,0,1,.22,1.4,4.33,4.33,0,0,1-.22,1.4,3.06,3.06,0,0,1-.63,1.07,2.78,2.78,0,0,1-1,.68,3.35,3.35,0,0,1-1.3.24,3.43,3.43,0,0,1-1.31-.24,3,3,0,0,1-1-.68,3.06,3.06,0,0,1-.63-1.07,4.77,4.77,0,0,1,0-2.8,3.16,3.16,0,0,1,.63-1.07,3,3,0,0,1,1-.68A3.43,3.43,0,0,1,89.37,98.53Zm0,5.87a1.68,1.68,0,0,0,1.46-.65,3,3,0,0,0,.48-1.82,3.07,3.07,0,0,0-.48-1.84,1.71,1.71,0,0,0-1.46-.65,1.94,1.94,0,0,0-.86.17,1.59,1.59,0,0,0-.61.48,2.3,2.3,0,0,0-.36.79,4.21,4.21,0,0,0-.12,1.05,3,3,0,0,0,.48,1.82A1.69,1.69,0,0,0,89.37,104.4Zm1.9-8.6-1.51,1.67a.44.44,0,0,1-.18.14.52.52,0,0,1-.23,0h-.69l1-1.58a.56.56,0,0,1,.19-.21.58.58,0,0,1,.32-.07Z" transform="translate(-1.46 -1.32)" fill="#666"/><path d="M95.06,99.59a3.19,3.19,0,0,1,.46-.44,2.78,2.78,0,0,1,.51-.33,2.32,2.32,0,0,1,.57-.22,2.7,2.7,0,0,1,.65-.07,2.33,2.33,0,0,1,1,.18,1.76,1.76,0,0,1,.69.5,2.14,2.14,0,0,1,.42.79,3.31,3.31,0,0,1,.14,1v4.2H98.29V101A1.78,1.78,0,0,0,98,99.86a1.28,1.28,0,0,0-1-.41,1.91,1.91,0,0,0-1,.25,3.18,3.18,0,0,0-.82.67v4.85H94V98.63h.69a.29.29,0,0,1,.31.24Z" transform="translate(-1.46 -1.32)" fill="#666"/><path d="M43.58,67.61a1.48,1.48,0,0,1-1.48-1.48V19.79a1.49,1.49,0,0,1,1.48-1.48H90.42a1.48,1.48,0,0,1,1.48,1.48V66.13a1.48,1.48,0,0,1-1.48,1.48Zm0-48.5a.69.69,0,0,0-.68.68V66.13a.68.68,0,0,0,.68.68H90.42a.67.67,0,0,0,.68-.68V19.79a.68.68,0,0,0-.68-.68Z" transform="translate(-1.46 -1.32)" fill="#666"/><polygon points="47.72 45.03 48.49 44.4 56.81 54.52 82.61 27.74 83.33 28.43 56.75 56.02 47.72 45.03" fill="#666"/></svg>