<svg id="Capa_1" data-name="Capa 1" xmlns="http://www.w3.org/2000/svg" viewBox="0 0 131.09 111.25"><title>Desplegable</title><rect width="131.09" height="111.25" rx="3.1" fill="#fff"/><path d="M41.3,86.24a5.06,5.06,0,0,1-.34,1.9,4.1,4.1,0,0,1-2.38,2.42,5.15,5.15,0,0,1-1.88.33H33.22V81.58H36.7a5.15,5.15,0,0,1,1.88.33,4.11,4.11,0,0,1,1.45,1A4.29,4.29,0,0,1,41,84.33,5.07,5.07,0,0,1,41.3,86.24Zm-1.3,0a4.89,4.89,0,0,0-.23-1.54,3.35,3.35,0,0,0-.66-1.14,3,3,0,0,0-1-.72,3.75,3.75,0,0,0-1.37-.24H34.48v7.27H36.7a3.56,3.56,0,0,0,1.37-.25,2.88,2.88,0,0,0,1-.71,3.35,3.35,0,0,0,.66-1.14A4.82,4.82,0,0,0,40,86.24Z" transform="translate(-1.46 -1.32)" fill="#666"/><path d="M48.09,90a2.46,2.46,0,0,1-.51.45,3,3,0,0,1-.65.31,3.29,3.29,0,0,1-.7.19,4.37,4.37,0,0,1-.72.06,3.4,3.4,0,0,1-1.26-.23,2.8,2.8,0,0,1-1-.67A3.21,3.21,0,0,1,42.6,89a4.59,4.59,0,0,1-.23-1.5,3.88,3.88,0,0,1,.21-1.29,2.92,2.92,0,0,1,.61-1,2.76,2.76,0,0,1,1-.69,3.28,3.28,0,0,1,1.28-.25,3,3,0,0,1,1.1.2,2.53,2.53,0,0,1,.87.57,2.56,2.56,0,0,1,.57.93,3.45,3.45,0,0,1,.21,1.25.72.72,0,0,1-.06.36c0,.06-.11.09-.22.09h-4.4a4.23,4.23,0,0,0,.17,1.09,2.38,2.38,0,0,0,.43.77,1.75,1.75,0,0,0,.65.46,2.26,2.26,0,0,0,.85.15,2.39,2.39,0,0,0,.75-.1,3.54,3.54,0,0,0,.54-.22,4,4,0,0,0,.38-.21.5.5,0,0,1,.26-.11.24.24,0,0,1,.22.12Zm-.94-3.09a2.5,2.5,0,0,0-.11-.74,1.94,1.94,0,0,0-.33-.58,1.54,1.54,0,0,0-.53-.37,2,2,0,0,0-2,.35,2.29,2.29,0,0,0-.6,1.34Z" transform="translate(-1.46 -1.32)" fill="#666"/><path d="M53.44,85.39a.24.24,0,0,1-.24.14.46.46,0,0,1-.22-.07l-.3-.16c-.12,0-.26-.11-.42-.16a2.08,2.08,0,0,0-.59-.07,1.79,1.79,0,0,0-.53.07,1.27,1.27,0,0,0-.4.21.81.81,0,0,0-.25.3.78.78,0,0,0-.09.37.6.6,0,0,0,.15.42,1.19,1.19,0,0,0,.39.3,4.65,4.65,0,0,0,.54.22l.63.2.63.23a2.44,2.44,0,0,1,.54.33,1.53,1.53,0,0,1,.39.48,1.42,1.42,0,0,1,.15.68,2.14,2.14,0,0,1-.17.84,1.88,1.88,0,0,1-.48.67,2.27,2.27,0,0,1-.78.44,3.15,3.15,0,0,1-1.06.16,3.31,3.31,0,0,1-1.25-.22,3.16,3.16,0,0,1-.95-.57l.27-.45a.53.53,0,0,1,.13-.13.3.3,0,0,1,.18,0,.4.4,0,0,1,.24.09l.32.2a2.4,2.4,0,0,0,.45.2,2.1,2.1,0,0,0,.66.09,2.13,2.13,0,0,0,.6-.08,1.32,1.32,0,0,0,.42-.24,1.07,1.07,0,0,0,.25-.35,1.15,1.15,0,0,0,.08-.41.66.66,0,0,0-.15-.45,1.08,1.08,0,0,0-.38-.31,3.5,3.5,0,0,0-.55-.22L51,87.9a5.87,5.87,0,0,1-.63-.24,2.29,2.29,0,0,1-.55-.33,1.51,1.51,0,0,1-.54-1.22,1.8,1.8,0,0,1,.16-.72,1.7,1.7,0,0,1,.46-.61,2,2,0,0,1,.73-.42,2.78,2.78,0,0,1,1-.16,3.05,3.05,0,0,1,1.17.21,2.54,2.54,0,0,1,.89.56Z" transform="translate(-1.46 -1.32)" fill="#666"/><path d="M56.34,85.33a3.33,3.33,0,0,1,1-.83,2.43,2.43,0,0,1,1.24-.31,2.36,2.36,0,0,1,1,.22,2.08,2.08,0,0,1,.78.64,2.9,2.9,0,0,1,.5,1.06,5.27,5.27,0,0,1,.18,1.45,4.54,4.54,0,0,1-.2,1.35A3.22,3.22,0,0,1,60.29,90a2.72,2.72,0,0,1-.89.72,2.78,2.78,0,0,1-1.2.26,2.46,2.46,0,0,1-1-.2,2.53,2.53,0,0,1-.77-.57v2.91H55.24V84.31h.69a.29.29,0,0,1,.31.24Zm.06,4a1.94,1.94,0,0,0,.7.6,1.92,1.92,0,0,0,.84.18,1.66,1.66,0,0,0,1.42-.66,3.06,3.06,0,0,0,.49-1.87,4.53,4.53,0,0,0-.11-1.11,2.32,2.32,0,0,0-.33-.76,1.34,1.34,0,0,0-.52-.43,2,2,0,0,0-1.7.13,2.7,2.7,0,0,0-.79.73Z" transform="translate(-1.46 -1.32)" fill="#666"/><path d="M63.72,81.32v9.57H62.56V81.32Z" transform="translate(-1.46 -1.32)" fill="#666"/><path d="M70.94,90a2.51,2.51,0,0,1-.52.45,2.91,2.91,0,0,1-.64.31,3.29,3.29,0,0,1-.7.19,4.56,4.56,0,0,1-.72.06,3.4,3.4,0,0,1-1.26-.23,2.75,2.75,0,0,1-1-.67A3.19,3.19,0,0,1,65.45,89a4.34,4.34,0,0,1-.23-1.5,3.88,3.88,0,0,1,.21-1.29,3.05,3.05,0,0,1,.6-1,3,3,0,0,1,1-.69,3.3,3.3,0,0,1,1.29-.25,3.07,3.07,0,0,1,1.1.2,2.53,2.53,0,0,1,.87.57,2.7,2.7,0,0,1,.57.93A3.45,3.45,0,0,1,71,87.15a.72.72,0,0,1-.06.36.24.24,0,0,1-.22.09h-4.4a3.84,3.84,0,0,0,.17,1.09,2.2,2.2,0,0,0,.43.77,1.75,1.75,0,0,0,.65.46,2.24,2.24,0,0,0,.84.15,2.39,2.39,0,0,0,.75-.1,3.7,3.7,0,0,0,.55-.22c.15-.07.27-.15.38-.21a.5.5,0,0,1,.26-.11.25.25,0,0,1,.22.12ZM70,86.88a2.5,2.5,0,0,0-.11-.74,1.94,1.94,0,0,0-.33-.58,1.58,1.58,0,0,0-.54-.37,1.71,1.71,0,0,0-.7-.14,1.79,1.79,0,0,0-1.32.49,2.29,2.29,0,0,0-.6,1.34Z" transform="translate(-1.46 -1.32)" fill="#666"/><path d="M78,84.57V85c0,.14-.1.23-.28.27l-.75.1a2,2,0,0,1,.23.94,2.07,2.07,0,0,1-.19.88,1.87,1.87,0,0,1-.51.67,2.27,2.27,0,0,1-.78.43,3.12,3.12,0,0,1-1,.15,3.45,3.45,0,0,1-.87-.11,1.28,1.28,0,0,0-.32.28.48.48,0,0,0-.11.29.41.41,0,0,0,.19.36,1.52,1.52,0,0,0,.51.17,6.52,6.52,0,0,0,.71.06l.82.05a7.35,7.35,0,0,1,.82.1,2.28,2.28,0,0,1,.71.23,1.36,1.36,0,0,1,.5.45,1.29,1.29,0,0,1,.19.74,1.75,1.75,0,0,1-.21.82,2.2,2.2,0,0,1-.6.7,3.22,3.22,0,0,1-1,.5,4.28,4.28,0,0,1-1.29.18,4.76,4.76,0,0,1-1.26-.14,3.13,3.13,0,0,1-.9-.38,1.69,1.69,0,0,1-.54-.56,1.31,1.31,0,0,1-.18-.66,1.19,1.19,0,0,1,.31-.82,2,2,0,0,1,.84-.54,1.32,1.32,0,0,1-.47-.35,1,1,0,0,1-.17-.59,1,1,0,0,1,0-.29,1.3,1.3,0,0,1,.16-.31,1.45,1.45,0,0,1,.27-.29,1.61,1.61,0,0,1,.36-.24,1.91,1.91,0,0,1-.76-.73,2,2,0,0,1-.27-1,2.05,2.05,0,0,1,.18-.87,2,2,0,0,1,.52-.67,2.38,2.38,0,0,1,.79-.42,3.18,3.18,0,0,1,1-.15,3.38,3.38,0,0,1,.8.09,2.56,2.56,0,0,1,.68.28Zm-1.18,6.68a.56.56,0,0,0-.14-.39.91.91,0,0,0-.37-.24,3.22,3.22,0,0,0-.53-.12l-.65,0-.69,0c-.24,0-.46,0-.68-.06a1.75,1.75,0,0,0-.59.42.84.84,0,0,0-.23.6.81.81,0,0,0,.11.41,1,1,0,0,0,.35.34,2.35,2.35,0,0,0,.59.22,4,4,0,0,0,.83.08,3.61,3.61,0,0,0,.84-.09,1.8,1.8,0,0,0,.63-.24,1.07,1.07,0,0,0,.39-.37A.86.86,0,0,0,76.84,91.25Zm-2.09-3.58a1.93,1.93,0,0,0,.62-.09,1.28,1.28,0,0,0,.45-.28,1,1,0,0,0,.27-.42,1.51,1.51,0,0,0,.09-.53,1.24,1.24,0,0,0-.37-1A1.43,1.43,0,0,0,74.75,85a1.47,1.47,0,0,0-1.07.36,1.27,1.27,0,0,0-.37,1,1.51,1.51,0,0,0,.1.53.94.94,0,0,0,.28.42,1.33,1.33,0,0,0,.44.28A2,2,0,0,0,74.75,87.67Z" transform="translate(-1.46 -1.32)" fill="#666"/><path d="M79.05,85.24a3.67,3.67,0,0,1,1.17-.79,3.71,3.71,0,0,1,1.4-.26,2.48,2.48,0,0,1,1,.18,1.89,1.89,0,0,1,.72.51,2.12,2.12,0,0,1,.45.79,3.2,3.2,0,0,1,.15,1v4.21H83.4a.6.6,0,0,1-.26,0,.37.37,0,0,1-.14-.22L82.87,90a4.85,4.85,0,0,1-.51.43,2.75,2.75,0,0,1-.52.31,2.64,2.64,0,0,1-.58.2,3.51,3.51,0,0,1-.68.06,2.48,2.48,0,0,1-.73-.1,1.64,1.64,0,0,1-.58-.32,1.59,1.59,0,0,1-.4-.55,1.82,1.82,0,0,1-.15-.77,1.39,1.39,0,0,1,.22-.75,1.8,1.8,0,0,1,.69-.64,4.45,4.45,0,0,1,1.26-.46,9.63,9.63,0,0,1,1.9-.21v-.51a1.71,1.71,0,0,0-.34-1.16,1.19,1.19,0,0,0-1-.39,2.12,2.12,0,0,0-.72.1,2.33,2.33,0,0,0-.5.24l-.37.24a.47.47,0,0,1-.3.11.34.34,0,0,1-.2-.06.5.5,0,0,1-.14-.15Zm3.74,2.69a9.83,9.83,0,0,0-1.37.12,3.82,3.82,0,0,0-.91.27,1.28,1.28,0,0,0-.52.38.87.87,0,0,0-.16.49,1,1,0,0,0,.09.45.72.72,0,0,0,.23.31,1,1,0,0,0,.34.18,2,2,0,0,0,.43.05,2.47,2.47,0,0,0,.56-.06,2,2,0,0,0,.48-.18,2.87,2.87,0,0,0,.43-.28,4.49,4.49,0,0,0,.4-.37Z" transform="translate(-1.46 -1.32)" fill="#666"/><path d="M86.84,85.26a3.25,3.25,0,0,1,.94-.77A2.62,2.62,0,0,1,90,84.42a2.21,2.21,0,0,1,.79.64,3,3,0,0,1,.5,1,5.4,5.4,0,0,1,0,2.8A3.19,3.19,0,0,1,90.73,90a2.49,2.49,0,0,1-.89.72,2.57,2.57,0,0,1-1.19.26,2.28,2.28,0,0,1-1.09-.24,2.32,2.32,0,0,1-.78-.69l-.06.59a.27.27,0,0,1-.29.25h-.75V81.32h1.16Zm0,4a1.94,1.94,0,0,0,.7.6,1.92,1.92,0,0,0,.84.18,1.68,1.68,0,0,0,1.42-.66,3.24,3.24,0,0,0,.49-2,2.88,2.88,0,0,0-.44-1.78,1.48,1.48,0,0,0-1.25-.56,1.77,1.77,0,0,0-1,.26,2.8,2.8,0,0,0-.78.73Z" transform="translate(-1.46 -1.32)" fill="#666"/><path d="M94.15,81.32v9.57H93V81.32Z" transform="translate(-1.46 -1.32)" fill="#666"/><path d="M101.37,90a2.22,2.22,0,0,1-.51.45,3.15,3.15,0,0,1-.64.31,3.55,3.55,0,0,1-.71.19,4.37,4.37,0,0,1-.72.06,3.4,3.4,0,0,1-1.26-.23,2.8,2.8,0,0,1-1-.67A3.21,3.21,0,0,1,95.88,89a4.59,4.59,0,0,1-.23-1.5,3.88,3.88,0,0,1,.21-1.29,2.92,2.92,0,0,1,.61-1,2.85,2.85,0,0,1,1-.69,3.28,3.28,0,0,1,1.28-.25,3,3,0,0,1,1.1.2,2.53,2.53,0,0,1,.87.57,2.72,2.72,0,0,1,.58.93,3.68,3.68,0,0,1,.2,1.25.72.72,0,0,1-.06.36c0,.06-.11.09-.22.09h-4.4A3.82,3.82,0,0,0,97,88.69a2.19,2.19,0,0,0,.42.77,1.75,1.75,0,0,0,.65.46,2.26,2.26,0,0,0,.85.15,2.39,2.39,0,0,0,.75-.1,3.54,3.54,0,0,0,.54-.22,4,4,0,0,0,.38-.21.5.5,0,0,1,.26-.11.24.24,0,0,1,.22.12Zm-.94-3.09a2.5,2.5,0,0,0-.11-.74,1.94,1.94,0,0,0-.33-.58,1.54,1.54,0,0,0-.53-.37,2,2,0,0,0-2,.35,2.29,2.29,0,0,0-.6,1.34Z" transform="translate(-1.46 -1.32)" fill="#666"/><circle cx="65.54" cy="40.52" r="24.12" fill="none" stroke="#666" stroke-miterlimit="10"/><polygon points="52.99 36.19 78.1 36.19 65.55 53.24 52.99 36.19" fill="none" stroke="#666" stroke-miterlimit="10"/></svg>