<svg id="Capa_1" data-name="Capa 1" xmlns="http://www.w3.org/2000/svg" viewBox="0 0 131.09 111.25"><title>Fecha</title><rect width="131.09" height="111.25" rx="3.1" fill="#fff"/><path d="M52.67,83.6v3.26H56.5v1H52.67v4H51.41V82.58h5.74v1Z" transform="translate(-1.46 -1.32)" fill="#666"/><path d="M63.26,91a2.22,2.22,0,0,1-.51.45,3.48,3.48,0,0,1-.64.32,4.1,4.1,0,0,1-.71.18,4.37,4.37,0,0,1-.72.06,3.2,3.2,0,0,1-1.25-.23,2.75,2.75,0,0,1-1-.67A3,3,0,0,1,57.78,90a4.33,4.33,0,0,1-.24-1.5,3.88,3.88,0,0,1,.21-1.29,3.25,3.25,0,0,1,.61-1,3,3,0,0,1,1-.69,3.3,3.3,0,0,1,1.29-.25,3,3,0,0,1,1.09.2,2.35,2.35,0,0,1,.87.57,2.58,2.58,0,0,1,.58.93,3.45,3.45,0,0,1,.21,1.25.72.72,0,0,1-.06.36.24.24,0,0,1-.22.09h-4.4a3.84,3.84,0,0,0,.17,1.09,2.06,2.06,0,0,0,.43.77,1.68,1.68,0,0,0,.65.46,2.24,2.24,0,0,0,.84.15,2.39,2.39,0,0,0,.75-.1,3.54,3.54,0,0,0,.54-.22,3.07,3.07,0,0,0,.38-.21.5.5,0,0,1,.27-.1.24.24,0,0,1,.22.11Zm-.93-3.09a2.21,2.21,0,0,0-.12-.74,1.59,1.59,0,0,0-.33-.58,1.45,1.45,0,0,0-.53-.37,2,2,0,0,0-2,.35,2.17,2.17,0,0,0-.6,1.34Z" transform="translate(-1.46 -1.32)" fill="#666"/><path d="M69.37,86.48l-.11.11a.26.26,0,0,1-.14,0,.42.42,0,0,1-.22-.08,1.7,1.7,0,0,0-.28-.18,1.92,1.92,0,0,0-.43-.18,1.8,1.8,0,0,0-.61-.08,1.94,1.94,0,0,0-.86.17,1.58,1.58,0,0,0-.62.5,2.27,2.27,0,0,0-.38.78,4.18,4.18,0,0,0-.12,1,3.8,3.8,0,0,0,.13,1.06,2.2,2.2,0,0,0,.39.78,1.72,1.72,0,0,0,.6.48,1.91,1.91,0,0,0,.8.17,2,2,0,0,0,.7-.11,1.89,1.89,0,0,0,.45-.22l.3-.22a.36.36,0,0,1,.23-.1.26.26,0,0,1,.23.11l.32.42a2.08,2.08,0,0,1-.49.45,3,3,0,0,1-.59.32,2.93,2.93,0,0,1-.66.18,4,4,0,0,1-.7.06,2.86,2.86,0,0,1-1.14-.22,2.77,2.77,0,0,1-.92-.66A3.21,3.21,0,0,1,64.63,90a4.52,4.52,0,0,1-.22-1.43,4.22,4.22,0,0,1,.21-1.36,2.85,2.85,0,0,1,.6-1.08,2.71,2.71,0,0,1,1-.7,3.29,3.29,0,0,1,1.33-.26,3.09,3.09,0,0,1,1.22.23,2.88,2.88,0,0,1,.94.63Z" transform="translate(-1.46 -1.32)" fill="#666"/><path d="M72.15,86.18a3.94,3.94,0,0,1,.94-.71,2.5,2.5,0,0,1,1.18-.27,2.42,2.42,0,0,1,1,.18,1.94,1.94,0,0,1,.69.51,2.2,2.2,0,0,1,.41.79,3.31,3.31,0,0,1,.15,1v4.19H75.31V87.7A1.75,1.75,0,0,0,75,86.54a1.23,1.23,0,0,0-1-.41,2,2,0,0,0-1,.24,3.44,3.44,0,0,0-.83.67v4.85H71V82.32h1.16Z" transform="translate(-1.46 -1.32)" fill="#666"/><path d="M78.08,86.24a3.67,3.67,0,0,1,1.17-.79,3.71,3.71,0,0,1,1.4-.26,2.48,2.48,0,0,1,1,.18,1.89,1.89,0,0,1,.72.51,2.12,2.12,0,0,1,.45.79,3.52,3.52,0,0,1,.14,1v4.21h-.51a.6.6,0,0,1-.26,0,.37.37,0,0,1-.14-.22L81.9,91a4.66,4.66,0,0,1-.51.43,2.75,2.75,0,0,1-.52.31,2.64,2.64,0,0,1-.58.2,3.66,3.66,0,0,1-.69.07,2.46,2.46,0,0,1-.72-.11,1.77,1.77,0,0,1-.59-.32A1.57,1.57,0,0,1,77.9,91a1.79,1.79,0,0,1-.15-.77A1.39,1.39,0,0,1,78,89.5a1.8,1.8,0,0,1,.69-.64,4.45,4.45,0,0,1,1.26-.46,9.52,9.52,0,0,1,1.89-.21v-.51a1.76,1.76,0,0,0-.33-1.16,1.19,1.19,0,0,0-1-.39,2.09,2.09,0,0,0-.71.1,3.93,3.93,0,0,0-.5.24l-.37.24a.47.47,0,0,1-.3.11.32.32,0,0,1-.2-.06.54.54,0,0,1-.15-.15Zm3.73,2.69a9.67,9.67,0,0,0-1.36.13,3.44,3.44,0,0,0-.91.26,1.28,1.28,0,0,0-.52.38.88.88,0,0,0-.16.5,1,1,0,0,0,.09.44.72.72,0,0,0,.23.31,1,1,0,0,0,.34.18,1.49,1.49,0,0,0,.43.05,2.47,2.47,0,0,0,.56-.06,1.76,1.76,0,0,0,.47-.18,2.44,2.44,0,0,0,.43-.28,2.74,2.74,0,0,0,.4-.37Z" transform="translate(-1.46 -1.32)" fill="#666"/><path d="M89.81,27.45H81.66V24.19a3.26,3.26,0,1,0-6.51,0v3.26H58.86V24.19a3.26,3.26,0,1,0-6.52,0v3.26H44.2a3.26,3.26,0,0,0-3.26,3.26V34H93.07V30.71a3.26,3.26,0,0,0-3.26-3.26Zm0,0" transform="translate(-1.46 -1.32)" fill="none" stroke="#666" stroke-miterlimit="10" stroke-width="0.9"/><path d="M40.94,66.55a3.26,3.26,0,0,0,3.26,3.26H89.81a3.26,3.26,0,0,0,3.26-3.26V37.22H40.94Zm17.4-19.79" transform="translate(-1.46 -1.32)" fill="none" stroke="#666" stroke-miterlimit="10" stroke-width="0.9"/></svg>