<svg id="Capa_1" data-name="Capa 1" xmlns="http://www.w3.org/2000/svg" viewBox="0 0 131.09 111.25"><title>Hora</title><rect width="131.09" height="111.25" rx="3.1" fill="#fff"/><path d="M61.65,82.58v9.31H60.39V87.65h-5v4.24H54.1V82.58h1.26v4.15h5V82.58Z" transform="translate(-1.46 -1.32)" fill="#666"/><path d="M66.33,85.2a3.38,3.38,0,0,1,1.3.24,2.85,2.85,0,0,1,1,.69,2.9,2.9,0,0,1,.62,1.07,4.56,4.56,0,0,1,0,2.8,2.77,2.77,0,0,1-1.61,1.75,3.82,3.82,0,0,1-2.61,0,2.78,2.78,0,0,1-1-.68A2.86,2.86,0,0,1,63.4,90a4.56,4.56,0,0,1,0-2.8A2.79,2.79,0,0,1,64,86.13a2.68,2.68,0,0,1,1-.69A3.4,3.4,0,0,1,66.33,85.2Zm0,5.88a1.69,1.69,0,0,0,1.45-.65,3.73,3.73,0,0,0,0-3.66,1.67,1.67,0,0,0-1.45-.66,2.06,2.06,0,0,0-.86.17,1.54,1.54,0,0,0-.61.49,2,2,0,0,0-.37.78,4.21,4.21,0,0,0-.12,1,3,3,0,0,0,.49,1.83A1.72,1.72,0,0,0,66.33,91.08Z" transform="translate(-1.46 -1.32)" fill="#666"/><path d="M72,86.63a2.91,2.91,0,0,1,.77-1.06,1.68,1.68,0,0,1,1.11-.38,1.75,1.75,0,0,1,.4,0,.94.94,0,0,1,.34.14l-.08.86a.19.19,0,0,1-.2.17l-.26,0a1.88,1.88,0,0,0-1,0,1.3,1.3,0,0,0-.43.27,1.94,1.94,0,0,0-.35.44,4.17,4.17,0,0,0-.27.6v4.16H70.92V85.31h.67a.37.37,0,0,1,.26.07.45.45,0,0,1,.09.25Z" transform="translate(-1.46 -1.32)" fill="#666"/><path d="M75.38,86.24a3.82,3.82,0,0,1,1.18-.79,3.68,3.68,0,0,1,1.4-.26,2.55,2.55,0,0,1,1,.18,2.05,2.05,0,0,1,.72.51,2.25,2.25,0,0,1,.44.79,3.2,3.2,0,0,1,.15,1v4.21h-.51a.57.57,0,0,1-.26,0,.43.43,0,0,1-.15-.22L79.2,91a4.61,4.61,0,0,1-.5.43,3.1,3.1,0,0,1-.52.31,3.06,3.06,0,0,1-.58.2,3.66,3.66,0,0,1-.69.07,2.36,2.36,0,0,1-.72-.11,1.68,1.68,0,0,1-.59-.32,1.59,1.59,0,0,1-.4-.55,2,2,0,0,1-.14-.77,1.47,1.47,0,0,1,.21-.75,1.83,1.83,0,0,1,.7-.64,4.49,4.49,0,0,1,1.25-.46,9.72,9.72,0,0,1,1.9-.21v-.51a1.76,1.76,0,0,0-.33-1.16,1.21,1.21,0,0,0-1-.39,2.12,2.12,0,0,0-.72.1,4.73,4.73,0,0,0-.5.24l-.36.24a.49.49,0,0,1-.31.11.36.36,0,0,1-.2-.06.67.67,0,0,1-.14-.15Zm3.74,2.69a9.52,9.52,0,0,0-1.36.13,3.52,3.52,0,0,0-.92.26,1.17,1.17,0,0,0-.51.38.81.81,0,0,0-.16.5,1.15,1.15,0,0,0,.08.44.93.93,0,0,0,.23.31,1.06,1.06,0,0,0,.35.18,1.42,1.42,0,0,0,.42.05,2.4,2.4,0,0,0,.56-.06,2,2,0,0,0,.48-.18,2.87,2.87,0,0,0,.43-.28,2.74,2.74,0,0,0,.4-.37Z" transform="translate(-1.46 -1.32)" fill="#666"/><path d="M67,69.1A23.73,23.73,0,1,1,90.73,45.37,23.76,23.76,0,0,1,67,69.1Zm0-46.4A22.67,22.67,0,1,0,89.67,45.37,22.69,22.69,0,0,0,67,22.7Z" transform="translate(-1.46 -1.32)" fill="#666"/><path d="M67,26.17" transform="translate(-1.46 -1.32)" fill="#666"/><path d="M54.2,46.7a.53.53,0,0,1,0-1.06H66.47V27a.53.53,0,0,1,.53-.53.53.53,0,0,1,.53.53v19.2a.53.53,0,0,1-.53.53Z" transform="translate(-1.46 -1.32)" fill="#666"/></svg>