<svg id="Capa_1" data-name="Capa 1" xmlns="http://www.w3.org/2000/svg" viewBox="0 0 131.09 111.25"><title>Números</title><rect width="131.09" height="111.25" rx="3.1" fill="#fff"/><path d="M52.52,82.58v9.31h-.64a.66.66,0,0,1-.25,0,.53.53,0,0,1-.19-.18l-5.39-7c0,.11,0,.22,0,.32v6.93H45V82.58h.79a.2.2,0,0,1,.11,0l.09.06.09.11,5.39,7c0-.12,0-.23,0-.33s0-.21,0-.3v-6.6Z" transform="translate(-1.46 -1.32)" fill="#666"/><path d="M59.92,85.31v6.58h-.69a.29.29,0,0,1-.31-.24l-.09-.71a3.74,3.74,0,0,1-1,.77,2.53,2.53,0,0,1-1.22.29,2.37,2.37,0,0,1-1-.18,1.86,1.86,0,0,1-.69-.51,2,2,0,0,1-.42-.78,3.64,3.64,0,0,1-.14-1v-4.2H55.6v4.2a1.72,1.72,0,0,0,.34,1.15,1.24,1.24,0,0,0,1,.41,2,2,0,0,0,1-.24,3,3,0,0,0,.82-.67V85.31Zm-.81-2.84-1.52,1.68a.55.55,0,0,1-.18.14.48.48,0,0,1-.22,0H56.5l1-1.57a.72.72,0,0,1,.2-.22.66.66,0,0,1,.32-.07Z" transform="translate(-1.46 -1.32)" fill="#666"/><path d="M61.75,91.89V85.31h.7a.28.28,0,0,1,.3.24l.09.67a3.34,3.34,0,0,1,.82-.73,1.92,1.92,0,0,1,1-.29,1.61,1.61,0,0,1,1.08.37,2.12,2.12,0,0,1,.59,1,2.07,2.07,0,0,1,.37-.61,1.85,1.85,0,0,1,.5-.43,2.24,2.24,0,0,1,.6-.25,2.74,2.74,0,0,1,.64-.08,2.43,2.43,0,0,1,.92.17,1.87,1.87,0,0,1,.69.48,2.23,2.23,0,0,1,.43.79,3.43,3.43,0,0,1,.15,1.06v4.19H69.52V87.7a1.72,1.72,0,0,0-.34-1.17,1.18,1.18,0,0,0-1-.4,1.45,1.45,0,0,0-.55.1,1.2,1.2,0,0,0-.45.29,1.52,1.52,0,0,0-.31.49,2.08,2.08,0,0,0-.11.69v4.19H65.63V87.7a1.85,1.85,0,0,0-.32-1.18,1.12,1.12,0,0,0-.93-.39,1.43,1.43,0,0,0-.8.23,2.56,2.56,0,0,0-.66.62v4.91Z" transform="translate(-1.46 -1.32)" fill="#666"/><path d="M77.79,91a2.51,2.51,0,0,1-.52.45,3.48,3.48,0,0,1-.64.32,4,4,0,0,1-.7.18,4.56,4.56,0,0,1-.72.06A3.21,3.21,0,0,1,74,91.75a2.75,2.75,0,0,1-1-.67A3.36,3.36,0,0,1,72.3,90a4.34,4.34,0,0,1-.23-1.5,3.88,3.88,0,0,1,.21-1.29,2.92,2.92,0,0,1,.61-1,2.81,2.81,0,0,1,1-.69,3.33,3.33,0,0,1,1.29-.25,3,3,0,0,1,1.1.2,2.53,2.53,0,0,1,.87.57,2.7,2.7,0,0,1,.57.93,3.45,3.45,0,0,1,.21,1.25.72.72,0,0,1-.06.36.24.24,0,0,1-.22.09h-4.4a3.84,3.84,0,0,0,.17,1.09,2.2,2.2,0,0,0,.43.77,1.75,1.75,0,0,0,.65.46,2.24,2.24,0,0,0,.84.15,2.5,2.5,0,0,0,.76-.1,3.54,3.54,0,0,0,.54-.22,4,4,0,0,0,.38-.21.48.48,0,0,1,.26-.1.23.23,0,0,1,.22.11Zm-.94-3.09a2.5,2.5,0,0,0-.11-.74,1.94,1.94,0,0,0-.33-.58,1.64,1.64,0,0,0-.53-.37,2,2,0,0,0-2,.35,2.29,2.29,0,0,0-.6,1.34Z" transform="translate(-1.46 -1.32)" fill="#666"/><path d="M80.41,86.63a2.89,2.89,0,0,1,.76-1.06,1.72,1.72,0,0,1,1.11-.38,1.68,1.68,0,0,1,.4,0,1,1,0,0,1,.35.14l-.09.86a.19.19,0,0,1-.19.17l-.27,0a1.64,1.64,0,0,0-.4,0,1.59,1.59,0,0,0-.55.09,1.25,1.25,0,0,0-.44.27,1.91,1.91,0,0,0-.34.44,4.17,4.17,0,0,0-.28.6v4.16H79.31V85.31H80a.35.35,0,0,1,.26.07.45.45,0,0,1,.1.25Z" transform="translate(-1.46 -1.32)" fill="#666"/><path d="M86.55,85.2a3.38,3.38,0,0,1,1.3.24,2.85,2.85,0,0,1,1,.69,2.9,2.9,0,0,1,.62,1.07,4.56,4.56,0,0,1,0,2.8,2.77,2.77,0,0,1-1.61,1.75,3.82,3.82,0,0,1-2.61,0,2.78,2.78,0,0,1-1-.68A3,3,0,0,1,83.62,90a4.37,4.37,0,0,1-.22-1.4,4.33,4.33,0,0,1,.22-1.4,2.92,2.92,0,0,1,.63-1.07,2.68,2.68,0,0,1,1-.69A3.4,3.4,0,0,1,86.55,85.2Zm0,5.88A1.72,1.72,0,0,0,88,90.43a3.73,3.73,0,0,0,0-3.66,1.7,1.7,0,0,0-1.46-.66,2.06,2.06,0,0,0-.86.17,1.54,1.54,0,0,0-.61.49,2,2,0,0,0-.37.78,4.21,4.21,0,0,0-.12,1,3,3,0,0,0,.49,1.83A1.72,1.72,0,0,0,86.55,91.08Z" transform="translate(-1.46 -1.32)" fill="#666"/><path d="M51.54,59.18V60H37.74v-.86h6.5V33.35c0-.21,0-.42,0-.65s0-.44.06-.66l-6.68,6.42a.36.36,0,0,1-.33.14.43.43,0,0,1-.29-.18l-.3-.42,7.79-7.45h.74V59.18Z" transform="translate(-1.46 -1.32)" fill="#666"/><path d="M74.35,59c.25,0,.37.13.37.39V60H57.4v-.4a.6.6,0,0,1,.07-.3,1,1,0,0,1,.16-.24l9.66-10.47c.79-.87,1.53-1.71,2.21-2.53a21.29,21.29,0,0,0,1.82-2.49A13.31,13.31,0,0,0,72.54,41,8.88,8.88,0,0,0,73,38.15a7.61,7.61,0,0,0-.57-3.09,5.85,5.85,0,0,0-3.63-3.38,7.9,7.9,0,0,0-2.48-.4,7.25,7.25,0,0,0-2.64.47,6.94,6.94,0,0,0-2.12,1.32,7.15,7.15,0,0,0-1.52,2,9,9,0,0,0-.82,2.6c-.09.36-.29.52-.59.48l-.48-.06a10.44,10.44,0,0,1,.92-3.25,8.25,8.25,0,0,1,1.76-2.43A7.37,7.37,0,0,1,63.3,30.9a8.39,8.39,0,0,1,3-.53,9.15,9.15,0,0,1,2.86.45,7.18,7.18,0,0,1,2.46,1.41,7,7,0,0,1,1.71,2.42A8.65,8.65,0,0,1,74,38.13a9.52,9.52,0,0,1-.49,3.11A12.6,12.6,0,0,1,72.22,44a20.43,20.43,0,0,1-1.92,2.57c-.72.83-1.49,1.68-2.29,2.55l-9.23,10.1a11,11,0,0,1,1.1-.14c.39,0,.81,0,1.25,0Z" transform="translate(-1.46 -1.32)" fill="#666"/><path d="M80.81,38.11a10.72,10.72,0,0,1,.93-3.25,8.25,8.25,0,0,1,1.76-2.43A7.33,7.33,0,0,1,86,30.9,8.48,8.48,0,0,1,89,30.37a9.2,9.2,0,0,1,2.83.43,6.93,6.93,0,0,1,2.4,1.35,6.67,6.67,0,0,1,1.66,2.3,8,8,0,0,1,.62,3.28,7.16,7.16,0,0,1-.46,2.63,7.41,7.41,0,0,1-1.27,2.1A6.94,6.94,0,0,1,93,44a8.33,8.33,0,0,1-2.23.87,9,9,0,0,1,2.82.85,7,7,0,0,1,2.07,1.58,6.26,6.26,0,0,1,1.25,2.19,8.4,8.4,0,0,1,.42,2.7,8.06,8.06,0,0,1-.65,3.2A7.92,7.92,0,0,1,94.83,58a8.36,8.36,0,0,1-2.73,1.77,9,9,0,0,1-3.44.64A10.92,10.92,0,0,1,85.82,60a7.88,7.88,0,0,1-2.14-.9,6.22,6.22,0,0,1-1.55-1.31,9,9,0,0,1-1.07-1.58,10.18,10.18,0,0,1-.71-1.68C80.16,54,80,53.46,79.9,53l.33-.17a.8.8,0,0,1,.39,0c.16,0,.27.15.35.38s.11.35.2.71a9.65,9.65,0,0,0,.45,1.24,9,9,0,0,0,.83,1.48A6.22,6.22,0,0,0,83.81,58a7,7,0,0,0,2,1.07,8.36,8.36,0,0,0,2.81.42A7.78,7.78,0,0,0,92,58.78,7.48,7.48,0,0,0,94.36,57a7.51,7.51,0,0,0,1.91-4.87,7.58,7.58,0,0,0-.46-2.68,5.35,5.35,0,0,0-1.46-2.16,7.08,7.08,0,0,0-2.59-1.44,12.6,12.6,0,0,0-3.86-.54v-.77A10.55,10.55,0,0,0,91.11,44a7,7,0,0,0,2.41-1.38A6,6,0,0,0,95,40.53a6.66,6.66,0,0,0,.52-2.67,7.5,7.5,0,0,0-.54-3,5.84,5.84,0,0,0-1.45-2,6,6,0,0,0-2.09-1.18A7.73,7.73,0,0,0,89,31.28a7.34,7.34,0,0,0-2.65.47,6.87,6.87,0,0,0-2.13,1.32,7.18,7.18,0,0,0-1.53,2,8.71,8.71,0,0,0-.83,2.6,1,1,0,0,1-.2.41.39.39,0,0,1-.35.07Z" transform="translate(-1.46 -1.32)" fill="#666"/></svg>