<svg id="Capa_1" data-name="Capa 1" xmlns="http://www.w3.org/2000/svg" viewBox="0 0 131.09 111.25"><title>Párrafo</title><rect width="131.09" height="111.25" rx="3.1" fill="#fff"/><rect x="35.04" y="23.05" width="61" height="1" rx="0.3" fill="#666"/><rect x="35.04" y="28.05" width="38.23" height="1" rx="0.3" fill="#666"/><rect x="35.04" y="65.05" width="61" height="1" rx="0.3" fill="#666"/><rect x="35.04" y="37.05" width="61" height="1" rx="0.3" fill="#666"/><rect x="35.04" y="42.05" width="38.23" height="1" rx="0.3" fill="#666"/><rect x="35.04" y="47.05" width="38.23" height="1" rx="0.3" fill="#666"/><rect x="35.04" y="52.05" width="61" height="1" rx="0.3" fill="#666"/><rect x="35.04" y="57.05" width="38.23" height="1" rx="0.3" fill="#666"/><path d="M50.19,82.58a5.38,5.38,0,0,1,1.54.2,2.93,2.93,0,0,1,1.08.58,2.4,2.4,0,0,1,.64.91,3.07,3.07,0,0,1,.22,1.19,3,3,0,0,1-.23,1.19,2.58,2.58,0,0,1-.67.93,3,3,0,0,1-1.08.61,4.56,4.56,0,0,1-1.5.22H48.7v3.48H47.45V82.58Zm0,4.83a2.85,2.85,0,0,0,1-.15,1.82,1.82,0,0,0,.69-.4,1.65,1.65,0,0,0,.43-.61,2.22,2.22,0,0,0,.14-.79,1.79,1.79,0,0,0-.55-1.39,2.42,2.42,0,0,0-1.67-.5H48.7v3.84Z" transform="translate(-1.46 -1.32)" fill="#666"/><path d="M54.6,86.24a3.82,3.82,0,0,1,1.18-.79,3.68,3.68,0,0,1,1.4-.26,2.55,2.55,0,0,1,1,.18,2.05,2.05,0,0,1,.72.51,2.25,2.25,0,0,1,.44.79,3.2,3.2,0,0,1,.15,1v4.21H59a.57.57,0,0,1-.26,0,.43.43,0,0,1-.15-.22L58.42,91a4.61,4.61,0,0,1-.5.43,3.1,3.1,0,0,1-.52.31,3.06,3.06,0,0,1-.58.2,3.66,3.66,0,0,1-.69.07,2.36,2.36,0,0,1-.72-.11,1.68,1.68,0,0,1-.59-.32,1.59,1.59,0,0,1-.4-.55,2,2,0,0,1-.14-.77,1.47,1.47,0,0,1,.21-.75,1.83,1.83,0,0,1,.7-.64,4.49,4.49,0,0,1,1.25-.46,9.72,9.72,0,0,1,1.9-.21v-.51A1.76,1.76,0,0,0,58,86.52a1.21,1.21,0,0,0-1-.39,2.12,2.12,0,0,0-.72.1,4.73,4.73,0,0,0-.5.24l-.36.24a.51.51,0,0,1-.31.11.36.36,0,0,1-.2-.06.67.67,0,0,1-.14-.15Zm3.74,2.69a9.52,9.52,0,0,0-1.36.13,3.52,3.52,0,0,0-.92.26,1.24,1.24,0,0,0-.51.38.81.81,0,0,0-.16.5,1.15,1.15,0,0,0,.08.44.93.93,0,0,0,.23.31,1.06,1.06,0,0,0,.35.18,1.42,1.42,0,0,0,.42.05,2.4,2.4,0,0,0,.56-.06,2,2,0,0,0,.48-.18,2.87,2.87,0,0,0,.43-.28,2.74,2.74,0,0,0,.4-.37Zm.58-6.46-1.51,1.68a.55.55,0,0,1-.18.14.48.48,0,0,1-.22,0h-.69l1-1.57a.72.72,0,0,1,.2-.22.62.62,0,0,1,.31-.07Z" transform="translate(-1.46 -1.32)" fill="#666"/><path d="M62.33,86.63a2.91,2.91,0,0,1,.77-1.06,1.68,1.68,0,0,1,1.11-.38,1.75,1.75,0,0,1,.4,0,.94.94,0,0,1,.34.14l-.08.86a.2.2,0,0,1-.2.17l-.27,0a1.56,1.56,0,0,0-.39,0,1.6,1.6,0,0,0-.56.09,1.21,1.21,0,0,0-.43.27,1.94,1.94,0,0,0-.35.44,4.17,4.17,0,0,0-.27.6v4.16H61.23V85.31h.66c.13,0,.22,0,.26.07a.45.45,0,0,1,.1.25Z" transform="translate(-1.46 -1.32)" fill="#666"/><path d="M67.06,86.63a3,3,0,0,1,.77-1.06,1.68,1.68,0,0,1,1.11-.38,1.75,1.75,0,0,1,.4,0,.94.94,0,0,1,.34.14l-.08.86a.19.19,0,0,1-.2.17l-.26,0a1.88,1.88,0,0,0-1,0,1.3,1.3,0,0,0-.43.27,2.26,2.26,0,0,0-.35.44,4.17,4.17,0,0,0-.27.6v4.16H66V85.31h.67a.37.37,0,0,1,.26.07.45.45,0,0,1,.09.25Z" transform="translate(-1.46 -1.32)" fill="#666"/><path d="M70.42,86.24a3.82,3.82,0,0,1,1.18-.79,3.68,3.68,0,0,1,1.4-.26,2.55,2.55,0,0,1,1,.18,2.05,2.05,0,0,1,.72.51,2.25,2.25,0,0,1,.44.79,3.2,3.2,0,0,1,.15,1v4.21h-.51a.57.57,0,0,1-.26,0,.43.43,0,0,1-.15-.22L74.24,91a4.61,4.61,0,0,1-.5.43,3.1,3.1,0,0,1-.52.31,2.84,2.84,0,0,1-.58.2A3.66,3.66,0,0,1,72,92a2.36,2.36,0,0,1-.72-.11,1.68,1.68,0,0,1-.59-.32,1.59,1.59,0,0,1-.4-.55,2,2,0,0,1-.14-.77,1.47,1.47,0,0,1,.21-.75,1.83,1.83,0,0,1,.7-.64,4.49,4.49,0,0,1,1.25-.46,9.72,9.72,0,0,1,1.9-.21v-.51a1.76,1.76,0,0,0-.33-1.16,1.21,1.21,0,0,0-1-.39,2.12,2.12,0,0,0-.72.1,4.73,4.73,0,0,0-.5.24l-.36.24a.49.49,0,0,1-.31.11.36.36,0,0,1-.2-.06.67.67,0,0,1-.14-.15Zm3.74,2.69a9.52,9.52,0,0,0-1.36.13,3.52,3.52,0,0,0-.92.26,1.24,1.24,0,0,0-.51.38.81.81,0,0,0-.16.5,1.15,1.15,0,0,0,.08.44.93.93,0,0,0,.23.31,1.06,1.06,0,0,0,.35.18,1.42,1.42,0,0,0,.42.05,2.4,2.4,0,0,0,.56-.06,2,2,0,0,0,.48-.18,2.87,2.87,0,0,0,.43-.28,2.74,2.74,0,0,0,.4-.37Z" transform="translate(-1.46 -1.32)" fill="#666"/><path d="M77.38,91.89V86.3l-.72-.09a.49.49,0,0,1-.23-.1.24.24,0,0,1-.09-.2v-.47h1V84.8a3,3,0,0,1,.16-1,2,2,0,0,1,.46-.74,1.78,1.78,0,0,1,.71-.46,2.54,2.54,0,0,1,.94-.16,2.37,2.37,0,0,1,.81.13l0,.58a.17.17,0,0,1-.17.17h-.43a1.85,1.85,0,0,0-.54.08,1.12,1.12,0,0,0-.42.25,1.36,1.36,0,0,0-.27.46,2.41,2.41,0,0,0-.09.71v.61h1.9v.84H78.55v5.61Z" transform="translate(-1.46 -1.32)" fill="#666"/><path d="M84.07,85.2a3.35,3.35,0,0,1,1.3.24,2.68,2.68,0,0,1,1,.69A3.06,3.06,0,0,1,87,87.2a4.33,4.33,0,0,1,.22,1.4A4.37,4.37,0,0,1,87,90a3.16,3.16,0,0,1-.63,1.07,2.78,2.78,0,0,1-1,.68,3.54,3.54,0,0,1-1.3.23,3.64,3.64,0,0,1-1.31-.23,2.78,2.78,0,0,1-1-.68A3.16,3.16,0,0,1,81.14,90a4.77,4.77,0,0,1,0-2.8,3.06,3.06,0,0,1,.63-1.07,2.68,2.68,0,0,1,1-.69A3.43,3.43,0,0,1,84.07,85.2Zm0,5.88a1.71,1.71,0,0,0,1.46-.65,3.73,3.73,0,0,0,0-3.66,1.69,1.69,0,0,0-1.46-.66,2.09,2.09,0,0,0-.86.17,1.62,1.62,0,0,0-.61.49,2.16,2.16,0,0,0-.36.78,4.21,4.21,0,0,0-.12,1,3.06,3.06,0,0,0,.48,1.83A1.72,1.72,0,0,0,84.07,91.08Z" transform="translate(-1.46 -1.32)" fill="#666"/></svg>