<svg id="Capa_1" data-name="Capa 1" xmlns="http://www.w3.org/2000/svg" viewBox="0 0 131.09 111.25"><title>Respuesta corta</title><rect width="131.09" height="111.25" rx="3.1" fill="#fff"/><path d="M29.57,92.22H28.46A.56.56,0,0,1,28,92l-2.42-3.33a.62.62,0,0,0-.24-.22.77.77,0,0,0-.39-.07h-1v3.89H22.69V82.9h2.63a5.74,5.74,0,0,1,1.53.18,2.84,2.84,0,0,1,1.06.52,2,2,0,0,1,.62.81,2.65,2.65,0,0,1,.2,1.07,2.5,2.5,0,0,1-.6,1.7,3,3,0,0,1-.72.58,3.61,3.61,0,0,1-1,.36,1.33,1.33,0,0,1,.42.4Zm-4.3-4.81a3.21,3.21,0,0,0,1-.13,1.89,1.89,0,0,0,.7-.38,1.42,1.42,0,0,0,.42-.58,1.79,1.79,0,0,0,.15-.75A1.5,1.5,0,0,0,27,84.32a2.66,2.66,0,0,0-1.64-.42H23.94v3.51Z" transform="translate(-1.46 -1.32)" fill="#666"/><path d="M35.48,91.29a2,2,0,0,1-.51.46,3.44,3.44,0,0,1-.64.31,4.12,4.12,0,0,1-.71.19,4.37,4.37,0,0,1-.72.06,3.48,3.48,0,0,1-1.26-.23,2.83,2.83,0,0,1-1-.68A3,3,0,0,1,30,90.3a4.39,4.39,0,0,1-.24-1.51A3.88,3.88,0,0,1,30,87.5a3.13,3.13,0,0,1,.61-1,3,3,0,0,1,1-.69,3.13,3.13,0,0,1,1.29-.25,3,3,0,0,1,1.09.2,2.35,2.35,0,0,1,.87.57,2.63,2.63,0,0,1,.58.92,3.52,3.52,0,0,1,.21,1.25.74.74,0,0,1-.06.37.25.25,0,0,1-.22.09h-4.4A3.76,3.76,0,0,0,31.08,90a2.1,2.1,0,0,0,.42.77,1.87,1.87,0,0,0,.65.47,2.34,2.34,0,0,0,.85.15,2.72,2.72,0,0,0,.75-.1,3.54,3.54,0,0,0,.54-.22,3.9,3.9,0,0,0,.38-.22.48.48,0,0,1,.27-.1.28.28,0,0,1,.22.11Zm-.93-3.08a2.17,2.17,0,0,0-.12-.74,1.51,1.51,0,0,0-.33-.58,1.47,1.47,0,0,0-.53-.38,2,2,0,0,0-2,.35,2.23,2.23,0,0,0-.6,1.35Z" transform="translate(-1.46 -1.32)" fill="#666"/><path d="M40.84,86.72a.26.26,0,0,1-.24.14.4.4,0,0,1-.22-.07l-.31-.16a2.85,2.85,0,0,0-.42-.16,2.05,2.05,0,0,0-.59-.08,1.67,1.67,0,0,0-.52.08,1.36,1.36,0,0,0-.4.2,1,1,0,0,0-.26.3,1,1,0,0,0-.08.38.59.59,0,0,0,.14.42,1.32,1.32,0,0,0,.39.29,2.65,2.65,0,0,0,.54.22l.63.2a5.87,5.87,0,0,1,.63.24,2.51,2.51,0,0,1,.55.33,1.42,1.42,0,0,1,.53,1.15,2.24,2.24,0,0,1-.16.84,1.79,1.79,0,0,1-.49.67,2.34,2.34,0,0,1-.77.45,3.21,3.21,0,0,1-1.07.16,3.31,3.31,0,0,1-1.25-.22,3.1,3.1,0,0,1-.95-.58l.27-.44a.4.4,0,0,1,.13-.13.35.35,0,0,1,.18,0,.4.4,0,0,1,.25.1l.31.2a3.18,3.18,0,0,0,.45.2,2.13,2.13,0,0,0,.67.09,1.78,1.78,0,0,0,.59-.09,1.22,1.22,0,0,0,.42-.24.91.91,0,0,0,.25-.34,1,1,0,0,0,.08-.42A.73.73,0,0,0,40,90a1.19,1.19,0,0,0-.39-.3,2.52,2.52,0,0,0-.55-.22l-.63-.2q-.31-.11-.63-.24a2.29,2.29,0,0,1-.55-.33,1.47,1.47,0,0,1-.53-1.22,1.79,1.79,0,0,1,.15-.72,1.86,1.86,0,0,1,.46-.62,2.45,2.45,0,0,1,.73-.42,3,3,0,0,1,1-.15,3.24,3.24,0,0,1,1.16.2,2.77,2.77,0,0,1,.9.57Z" transform="translate(-1.46 -1.32)" fill="#666"/><path d="M43.74,86.65a3.41,3.41,0,0,1,1-.82,2.66,2.66,0,0,1,2.28-.1,2.14,2.14,0,0,1,.79.65,3.2,3.2,0,0,1,.5,1.05,5.77,5.77,0,0,1,.17,1.45,4.56,4.56,0,0,1-.19,1.36,3.25,3.25,0,0,1-.56,1.08,2.76,2.76,0,0,1-.9.73,2.7,2.7,0,0,1-1.19.26,2.35,2.35,0,0,1-1-.21,2.21,2.21,0,0,1-.76-.57v2.92H42.63V85.63h.7a.28.28,0,0,1,.3.24Zm.06,4a1.86,1.86,0,0,0,.69.61,2.08,2.08,0,0,0,.85.17,1.66,1.66,0,0,0,1.41-.66,3,3,0,0,0,.5-1.87,4.4,4.4,0,0,0-.12-1.1,2.13,2.13,0,0,0-.32-.76,1.28,1.28,0,0,0-.53-.43,1.8,1.8,0,0,0-.71-.14,1.87,1.87,0,0,0-1,.26,2.85,2.85,0,0,0-.78.74Z" transform="translate(-1.46 -1.32)" fill="#666"/><path d="M55.33,85.63v6.59h-.69a.29.29,0,0,1-.31-.24l-.09-.71a3.83,3.83,0,0,1-1,.76,2.56,2.56,0,0,1-1.22.29,2.42,2.42,0,0,1-1-.18,1.92,1.92,0,0,1-.69-.5,2.38,2.38,0,0,1-.42-.79,3.64,3.64,0,0,1-.14-1v-4.2H51v4.2A1.75,1.75,0,0,0,51.35,91a1.3,1.3,0,0,0,1,.41,1.86,1.86,0,0,0,1-.25,3,3,0,0,0,.83-.67V85.63Z" transform="translate(-1.46 -1.32)" fill="#666"/><path d="M62.51,91.29a2.24,2.24,0,0,1-.51.46,3.78,3.78,0,0,1-.64.31,4.09,4.09,0,0,1-1.43.25,3.4,3.4,0,0,1-1.26-.23,2.83,2.83,0,0,1-1-.68A3.16,3.16,0,0,1,57,90.3a4.65,4.65,0,0,1-.23-1.51A3.88,3.88,0,0,1,57,87.5a3,3,0,0,1,.61-1,2.85,2.85,0,0,1,1-.69,3.11,3.11,0,0,1,1.28-.25,3,3,0,0,1,1.1.2,2.53,2.53,0,0,1,.87.57,2.6,2.6,0,0,1,.57.92,3.52,3.52,0,0,1,.21,1.25.74.74,0,0,1-.06.37c0,.06-.11.09-.22.09h-4.4A3.74,3.74,0,0,0,58.11,90a2.1,2.1,0,0,0,.42.77,1.78,1.78,0,0,0,.65.47,2.26,2.26,0,0,0,.85.15,2.72,2.72,0,0,0,.75-.1,3.54,3.54,0,0,0,.54-.22,3.9,3.9,0,0,0,.38-.22.48.48,0,0,1,.26-.1.25.25,0,0,1,.22.11Zm-.94-3.08a2.17,2.17,0,0,0-.11-.74,1.83,1.83,0,0,0-.33-.58,1.56,1.56,0,0,0-.53-.38,2,2,0,0,0-2,.35,2.35,2.35,0,0,0-.6,1.35Z" transform="translate(-1.46 -1.32)" fill="#666"/><path d="M67.86,86.72a.26.26,0,0,1-.24.14.46.46,0,0,1-.22-.07l-.3-.16a2.85,2.85,0,0,0-.42-.16,2.05,2.05,0,0,0-.59-.08,1.78,1.78,0,0,0-.53.08,1.5,1.5,0,0,0-.4.2,1,1,0,0,0-.25.3.82.82,0,0,0-.09.38.6.6,0,0,0,.15.42,1.32,1.32,0,0,0,.39.29,2.65,2.65,0,0,0,.54.22l.63.2q.31.1.63.24a2.44,2.44,0,0,1,.54.33,1.49,1.49,0,0,1,.39.47,1.45,1.45,0,0,1,.15.68,2.07,2.07,0,0,1-.17.84,1.88,1.88,0,0,1-.48.67,2.29,2.29,0,0,1-.78.45,3.15,3.15,0,0,1-1.06.16,3.31,3.31,0,0,1-1.25-.22,3,3,0,0,1-1-.58l.27-.44A.4.4,0,0,1,64,91a.3.3,0,0,1,.18,0,.38.38,0,0,1,.24.1l.32.2a2.4,2.4,0,0,0,.45.2,2.1,2.1,0,0,0,.66.09,1.8,1.8,0,0,0,.6-.09,1.32,1.32,0,0,0,.42-.24,1,1,0,0,0,.25-.34,1.16,1.16,0,0,0,.08-.42A.68.68,0,0,0,67,90a1.06,1.06,0,0,0-.38-.3,2.74,2.74,0,0,0-.55-.22l-.63-.2a5.87,5.87,0,0,1-.63-.24,2.29,2.29,0,0,1-.55-.33,1.73,1.73,0,0,1-.39-.5,1.59,1.59,0,0,1-.15-.72,1.8,1.8,0,0,1,.16-.72,1.73,1.73,0,0,1,.46-.62,2.33,2.33,0,0,1,.73-.42,3,3,0,0,1,1-.15,3.26,3.26,0,0,1,1.17.2,2.72,2.72,0,0,1,.89.57Z" transform="translate(-1.46 -1.32)" fill="#666"/><path d="M71.68,92.32a1.59,1.59,0,0,1-1.2-.43,1.74,1.74,0,0,1-.42-1.26v-4h-.79a.28.28,0,0,1-.18-.06.27.27,0,0,1-.07-.19v-.46l1.08-.14.27-2a.27.27,0,0,1,.08-.16.24.24,0,0,1,.18-.07h.59v2.27h1.9v.84h-1.9v4a.85.85,0,0,0,.2.62.68.68,0,0,0,.52.2.8.8,0,0,0,.32-.05l.23-.1.16-.11a.28.28,0,0,1,.12,0,.19.19,0,0,1,.16.11l.34.55a2,2,0,0,1-.72.44A2.35,2.35,0,0,1,71.68,92.32Z" transform="translate(-1.46 -1.32)" fill="#666"/><path d="M74.15,86.56a3.67,3.67,0,0,1,1.18-.78,3.48,3.48,0,0,1,1.39-.26,2.57,2.57,0,0,1,1,.18,2.16,2.16,0,0,1,.72.5,2.25,2.25,0,0,1,.44.79A3.31,3.31,0,0,1,79,88v4.21h-.51a.51.51,0,0,1-.27-.06.38.38,0,0,1-.14-.22L78,91.32c-.17.16-.34.3-.5.43a3.5,3.5,0,0,1-.53.31,2.63,2.63,0,0,1-.58.19,2.84,2.84,0,0,1-.68.07,2.09,2.09,0,0,1-.72-.11,1.55,1.55,0,0,1-1-.86,1.87,1.87,0,0,1-.15-.78,1.48,1.48,0,0,1,.22-.75,1.87,1.87,0,0,1,.69-.64A4.92,4.92,0,0,1,76,88.72a9.8,9.8,0,0,1,1.9-.2V88a1.75,1.75,0,0,0-.33-1.16,1.18,1.18,0,0,0-1-.4,2.1,2.1,0,0,0-.72.11,2.59,2.59,0,0,0-.5.24L75,87a.53.53,0,0,1-.3.11.34.34,0,0,1-.2-.06.7.7,0,0,1-.14-.16Zm3.74,2.69a9.37,9.37,0,0,0-1.36.13,4,4,0,0,0-.92.26,1.19,1.19,0,0,0-.51.39.78.78,0,0,0-.16.49A1.06,1.06,0,0,0,75,91a.81.81,0,0,0,.58.48,1.42,1.42,0,0,0,.42.06,2.4,2.4,0,0,0,.56-.06,2,2,0,0,0,.48-.18,2.87,2.87,0,0,0,.43-.28,4.49,4.49,0,0,0,.4-.37Z" transform="translate(-1.46 -1.32)" fill="#666"/><path d="M88.69,86.8a.36.36,0,0,1-.1.11.24.24,0,0,1-.15,0,.35.35,0,0,1-.21-.08l-.29-.18-.42-.18a2.22,2.22,0,0,0-.62-.08,2.13,2.13,0,0,0-.86.17,1.88,1.88,0,0,0-.62.5,2.31,2.31,0,0,0-.37.79,3.68,3.68,0,0,0-.13,1A3.78,3.78,0,0,0,85.06,90a2.37,2.37,0,0,0,.38.78,1.7,1.7,0,0,0,.61.49,1.83,1.83,0,0,0,.79.16,2,2,0,0,0,.7-.1,2.36,2.36,0,0,0,.45-.22l.3-.23a.36.36,0,0,1,.24-.1.27.27,0,0,1,.22.11l.32.42a2.32,2.32,0,0,1-.48.46,2.77,2.77,0,0,1-.59.31,2.94,2.94,0,0,1-.66.19,4.14,4.14,0,0,1-.7.06,2.88,2.88,0,0,1-1.15-.23,2.6,2.6,0,0,1-.92-.66A3,3,0,0,1,84,90.36a4.27,4.27,0,0,1-.22-1.44,4.56,4.56,0,0,1,.2-1.36,3.19,3.19,0,0,1,.6-1.07,2.68,2.68,0,0,1,1-.71,3.58,3.58,0,0,1,2.55,0,3,3,0,0,1,.94.64Z" transform="translate(-1.46 -1.32)" fill="#666"/><path d="M93,85.53a3.35,3.35,0,0,1,1.3.24,2.78,2.78,0,0,1,1,.68,3.16,3.16,0,0,1,.63,1.07,4.6,4.6,0,0,1,0,2.81,3.11,3.11,0,0,1-.63,1.06,2.66,2.66,0,0,1-1,.68,3.35,3.35,0,0,1-1.3.24,3.43,3.43,0,0,1-1.31-.24,2.83,2.83,0,0,1-1-.68,2.94,2.94,0,0,1-.62-1.06,4.6,4.6,0,0,1,0-2.81,2.77,2.77,0,0,1,1.61-1.75A3.43,3.43,0,0,1,93,85.53Zm0,5.87a1.68,1.68,0,0,0,1.46-.65,3.71,3.71,0,0,0,0-3.65A1.69,1.69,0,0,0,93,86.44a2.09,2.09,0,0,0-.86.17,1.53,1.53,0,0,0-.61.49,2.16,2.16,0,0,0-.36.78A4.21,4.21,0,0,0,91,88.93a3,3,0,0,0,.48,1.82A1.69,1.69,0,0,0,93,91.4Z" transform="translate(-1.46 -1.32)" fill="#666"/><path d="M98.67,87a3,3,0,0,1,.76-1,1.67,1.67,0,0,1,1.12-.38,1.81,1.81,0,0,1,.4,0,1.28,1.28,0,0,1,.34.14l-.09.87a.18.18,0,0,1-.19.16,1.16,1.16,0,0,1-.27,0,2.35,2.35,0,0,0-.4,0,1.59,1.59,0,0,0-.55.09,1.53,1.53,0,0,0-.44.27,1.77,1.77,0,0,0-.34.45,3.36,3.36,0,0,0-.28.6v4.16H97.57V85.63h.66a.4.4,0,0,1,.26.07.45.45,0,0,1,.1.25Z" transform="translate(-1.46 -1.32)" fill="#666"/><path d="M104.32,92.32a1.59,1.59,0,0,1-1.2-.43,1.74,1.74,0,0,1-.42-1.26v-4h-.79a.24.24,0,0,1-.17-.06.24.24,0,0,1-.08-.19v-.46l1.08-.14.27-2a.24.24,0,0,1,.09-.16.21.21,0,0,1,.18-.07h.58v2.27h1.91v.84h-1.91v4a.85.85,0,0,0,.2.62.69.69,0,0,0,.52.2.8.8,0,0,0,.32-.05l.23-.1.16-.11a.28.28,0,0,1,.12,0,.22.22,0,0,1,.17.11l.33.55a1.94,1.94,0,0,1-.72.44A2.35,2.35,0,0,1,104.32,92.32Z" transform="translate(-1.46 -1.32)" fill="#666"/><path d="M106.79,86.56a3.78,3.78,0,0,1,1.18-.78,3.49,3.49,0,0,1,1.4-.26,2.55,2.55,0,0,1,1,.18,2.16,2.16,0,0,1,.72.5,2.1,2.1,0,0,1,.44.79,3.31,3.31,0,0,1,.15,1v4.21h-.51a.45.45,0,0,1-.26-.06.39.39,0,0,1-.15-.22l-.13-.62c-.17.16-.34.3-.5.43a4,4,0,0,1-.52.31,2.81,2.81,0,0,1-.58.19,3,3,0,0,1-.69.07,2.09,2.09,0,0,1-.72-.11,1.54,1.54,0,0,1-.59-.32,1.47,1.47,0,0,1-.4-.54,2.05,2.05,0,0,1-.14-.78,1.47,1.47,0,0,1,.21-.75,1.91,1.91,0,0,1,.7-.64,4.84,4.84,0,0,1,1.25-.46,9.8,9.8,0,0,1,1.9-.2V88a1.75,1.75,0,0,0-.33-1.16,1.18,1.18,0,0,0-1-.4,2.1,2.1,0,0,0-.72.11,2.59,2.59,0,0,0-.5.24l-.36.24a.55.55,0,0,1-.3.11.37.37,0,0,1-.21-.06,1.07,1.07,0,0,1-.14-.16Zm3.74,2.69a9.52,9.52,0,0,0-1.36.13,4,4,0,0,0-.92.26,1.25,1.25,0,0,0-.51.39.78.78,0,0,0-.16.49,1.25,1.25,0,0,0,.08.45.93.93,0,0,0,.23.31.88.88,0,0,0,.35.17,1.42,1.42,0,0,0,.42.06,2.4,2.4,0,0,0,.56-.06,2,2,0,0,0,.48-.18,2.87,2.87,0,0,0,.43-.28,3.44,3.44,0,0,0,.4-.37Z" transform="translate(-1.46 -1.32)" fill="#666"/><rect x="35.04" y="41.55" width="61" height="1" rx="0.3" fill="#666"/><rect x="35.04" y="46.55" width="38.23" height="1" rx="0.3" fill="#666"/></svg>