<svg id="Capa_1" data-name="Capa 1" xmlns="http://www.w3.org/2000/svg" viewBox="0 0 131.09 111.25"><title>Selección Multiple</title><rect width="131.09" height="111.25" rx="3.1" fill="#fff"/><path d="M21.25,84.36a.64.64,0,0,1-.13.15.27.27,0,0,1-.16,0,.41.41,0,0,1-.26-.11l-.38-.24a2.73,2.73,0,0,0-.54-.24,2.14,2.14,0,0,0-.76-.11,2.1,2.1,0,0,0-.74.11,1.42,1.42,0,0,0-.54.31,1.15,1.15,0,0,0-.33.46,1.3,1.3,0,0,0-.11.56,1,1,0,0,0,.19.65,1.69,1.69,0,0,0,.51.44,4.23,4.23,0,0,0,.71.32l.82.27c.28.1.55.2.82.32a2.63,2.63,0,0,1,.71.46,2,2,0,0,1,.51.66,2.23,2.23,0,0,1,.19,1,3.35,3.35,0,0,1-.2,1.15,2.78,2.78,0,0,1-.61.93,3,3,0,0,1-1,.62,3.47,3.47,0,0,1-1.33.23A4.05,4.05,0,0,1,17,92a3.91,3.91,0,0,1-1.26-.88l.36-.6a.37.37,0,0,1,.13-.12.24.24,0,0,1,.16,0,.32.32,0,0,1,.19.07l.25.17.31.23a2.18,2.18,0,0,0,.4.22,3,3,0,0,0,.51.18,3.1,3.1,0,0,0,.64.06,2.45,2.45,0,0,0,.8-.12,1.7,1.7,0,0,0,.6-.35,1.64,1.64,0,0,0,.37-.53,1.75,1.75,0,0,0,.13-.7,1.15,1.15,0,0,0-.19-.69,1.67,1.67,0,0,0-.5-.45,3.39,3.39,0,0,0-.72-.31l-.82-.26a8.11,8.11,0,0,1-.82-.31,2.86,2.86,0,0,1-.71-.45,2.15,2.15,0,0,1-.51-.7,2.72,2.72,0,0,1,0-2,2.51,2.51,0,0,1,.56-.81,2.9,2.9,0,0,1,.91-.58A3.3,3.3,0,0,1,19,82.8a3.82,3.82,0,0,1,1.42.25,3.43,3.43,0,0,1,1.13.71Z" transform="translate(-1.46 -1.32)" fill="#666"/><path d="M28.57,91.29a2,2,0,0,1-.51.46,3.78,3.78,0,0,1-.64.31,4.09,4.09,0,0,1-1.43.25,3.4,3.4,0,0,1-1.26-.23,2.83,2.83,0,0,1-1-.68,3.16,3.16,0,0,1-.66-1.1,4.65,4.65,0,0,1-.23-1.51,3.88,3.88,0,0,1,.21-1.29,3,3,0,0,1,.61-1,2.85,2.85,0,0,1,1-.69,3.11,3.11,0,0,1,1.28-.25,3,3,0,0,1,1.1.2,2.44,2.44,0,0,1,.87.57,2.63,2.63,0,0,1,.58.92,3.77,3.77,0,0,1,.2,1.25.93.93,0,0,1-.05.37.26.26,0,0,1-.23.09H24A3.74,3.74,0,0,0,24.17,90a2.1,2.1,0,0,0,.42.77,1.78,1.78,0,0,0,.65.47,2.26,2.26,0,0,0,.85.15,2.72,2.72,0,0,0,.75-.1,3.54,3.54,0,0,0,.54-.22,3.9,3.9,0,0,0,.38-.22.48.48,0,0,1,.26-.1.25.25,0,0,1,.22.11Zm-.94-3.08a2.17,2.17,0,0,0-.11-.74,1.83,1.83,0,0,0-.33-.58,1.56,1.56,0,0,0-.53-.38,1.8,1.8,0,0,0-.71-.13,1.82,1.82,0,0,0-1.32.48,2.35,2.35,0,0,0-.6,1.35Z" transform="translate(-1.46 -1.32)" fill="#666"/><path d="M31.29,82.64v9.58H30.13V82.64Z" transform="translate(-1.46 -1.32)" fill="#666"/><path d="M38.5,91.29a2,2,0,0,1-.51.46,3.78,3.78,0,0,1-.64.31,4.09,4.09,0,0,1-1.43.25,3.48,3.48,0,0,1-1.26-.23,2.83,2.83,0,0,1-1-.68A3,3,0,0,1,33,90.3a4.39,4.39,0,0,1-.24-1.51A3.88,3.88,0,0,1,33,87.5a3.13,3.13,0,0,1,.61-1,2.85,2.85,0,0,1,1-.69,3.13,3.13,0,0,1,1.29-.25,3,3,0,0,1,1.09.2,2.35,2.35,0,0,1,.87.57,2.63,2.63,0,0,1,.58.92,3.53,3.53,0,0,1,.2,1.25.78.78,0,0,1-.05.37.25.25,0,0,1-.22.09h-4.4A3.76,3.76,0,0,0,34.1,90a2.1,2.1,0,0,0,.42.77,1.78,1.78,0,0,0,.65.47,2.3,2.3,0,0,0,.85.15,2.72,2.72,0,0,0,.75-.1,3.54,3.54,0,0,0,.54-.22,3.9,3.9,0,0,0,.38-.22.48.48,0,0,1,.26-.1.28.28,0,0,1,.23.11Zm-.93-3.08a2.17,2.17,0,0,0-.12-.74,1.51,1.51,0,0,0-.33-.58,1.56,1.56,0,0,0-.53-.38,2,2,0,0,0-2,.35A2.29,2.29,0,0,0,34,88.21Z" transform="translate(-1.46 -1.32)" fill="#666"/><path d="M44.6,86.8a.27.27,0,0,1-.1.11.2.2,0,0,1-.14,0,.35.35,0,0,1-.22-.08l-.29-.18a2.93,2.93,0,0,0-.42-.18,2.15,2.15,0,0,0-.61-.08,2.09,2.09,0,0,0-.86.17,1.78,1.78,0,0,0-.62.5,2.32,2.32,0,0,0-.38.79,4.09,4.09,0,0,0-.13,1A3.78,3.78,0,0,0,41,90a2.2,2.2,0,0,0,.39.78,1.67,1.67,0,0,0,.6.49,1.87,1.87,0,0,0,.8.16,1.94,1.94,0,0,0,.69-.1,2.2,2.2,0,0,0,.46-.22l.29-.23a.38.38,0,0,1,.24-.1.25.25,0,0,1,.22.11l.33.42a2.37,2.37,0,0,1-.49.46,2.55,2.55,0,0,1-.59.31,2.94,2.94,0,0,1-.66.19,4,4,0,0,1-.7.06,3,3,0,0,1-1.15-.23,2.6,2.6,0,0,1-.92-.66,3.14,3.14,0,0,1-.61-1.06,4.54,4.54,0,0,1-.22-1.44,4.26,4.26,0,0,1,.21-1.36,3,3,0,0,1,.59-1.07,2.87,2.87,0,0,1,1-.71,3.29,3.29,0,0,1,1.33-.25,3.09,3.09,0,0,1,1.22.22,2.86,2.86,0,0,1,.94.64Z" transform="translate(-1.46 -1.32)" fill="#666"/><path d="M50.7,86.8a.38.38,0,0,1-.11.11.2.2,0,0,1-.14,0,.35.35,0,0,1-.22-.08l-.29-.18a2.93,2.93,0,0,0-.42-.18,2.15,2.15,0,0,0-.61-.08,2.09,2.09,0,0,0-.86.17,1.78,1.78,0,0,0-.62.5,2.32,2.32,0,0,0-.38.79,4.1,4.1,0,0,0-.12,1A3.8,3.8,0,0,0,47.06,90a2.2,2.2,0,0,0,.39.78,1.75,1.75,0,0,0,.6.49,1.87,1.87,0,0,0,.8.16,1.94,1.94,0,0,0,.69-.1,2.2,2.2,0,0,0,.46-.22l.3-.23a.34.34,0,0,1,.23-.1.25.25,0,0,1,.22.11l.33.42a2.37,2.37,0,0,1-.49.46,2.55,2.55,0,0,1-.59.31,2.94,2.94,0,0,1-.66.19,4,4,0,0,1-.7.06,3,3,0,0,1-1.15-.23,2.6,2.6,0,0,1-.92-.66A3.14,3.14,0,0,1,46,90.36a4.54,4.54,0,0,1-.22-1.44A4.26,4.26,0,0,1,46,87.56a3,3,0,0,1,.59-1.07,2.87,2.87,0,0,1,1-.71,3.29,3.29,0,0,1,1.33-.25,3.09,3.09,0,0,1,1.22.22,2.86,2.86,0,0,1,.94.64Z" transform="translate(-1.46 -1.32)" fill="#666"/><path d="M53.79,83.57a.67.67,0,0,1-.07.31.93.93,0,0,1-.18.26.8.8,0,0,1-.27.18.88.88,0,0,1-.32.07.78.78,0,0,1-.31-.07.68.68,0,0,1-.26-.18,1.2,1.2,0,0,1-.18-.26.81.81,0,0,1-.06-.31.92.92,0,0,1,.06-.33,1,1,0,0,1,.18-.26.68.68,0,0,1,.26-.18.78.78,0,0,1,.31-.07.88.88,0,0,1,.32.07.85.85,0,0,1,.45.44A.75.75,0,0,1,53.79,83.57Zm-.25,2.06v6.59H52.39V85.63Z" transform="translate(-1.46 -1.32)" fill="#666"/><path d="M58.22,85.53a3.38,3.38,0,0,1,1.3.24,2.83,2.83,0,0,1,1,.68,2.86,2.86,0,0,1,.63,1.07,4.6,4.6,0,0,1,0,2.81,2.82,2.82,0,0,1-.63,1.06,2.7,2.7,0,0,1-1,.68,3.67,3.67,0,0,1-2.61,0,2.78,2.78,0,0,1-1-.68,2.94,2.94,0,0,1-.62-1.06,4.6,4.6,0,0,1,0-2.81,3,3,0,0,1,.62-1.07,2.91,2.91,0,0,1,1-.68A3.36,3.36,0,0,1,58.22,85.53Zm0,5.87a1.66,1.66,0,0,0,1.45-.65,3.71,3.71,0,0,0,0-3.65,1.67,1.67,0,0,0-1.45-.66,2.14,2.14,0,0,0-.87.17,1.6,1.6,0,0,0-.61.49,2.16,2.16,0,0,0-.36.78,4.21,4.21,0,0,0-.12,1.05,3,3,0,0,0,.48,1.82A1.72,1.72,0,0,0,58.22,91.4Zm1.89-8.6L58.6,84.48a.73.73,0,0,1-.18.14.67.67,0,0,1-.22,0h-.69l1-1.58a.58.58,0,0,1,.2-.21A.53.53,0,0,1,59,82.8Z" transform="translate(-1.46 -1.32)" fill="#666"/><path d="M63.9,86.59a4.73,4.73,0,0,1,.46-.44,2.78,2.78,0,0,1,.51-.33,2.32,2.32,0,0,1,.57-.22,2.7,2.7,0,0,1,.65-.07,2.42,2.42,0,0,1,1,.18,1.91,1.91,0,0,1,.68.5,2.14,2.14,0,0,1,.42.79,3.31,3.31,0,0,1,.15,1v4.2H67.13V88a1.78,1.78,0,0,0-.34-1.16,1.28,1.28,0,0,0-1-.41,1.86,1.86,0,0,0-1,.25,3.22,3.22,0,0,0-.83.67v4.85H62.81V85.63h.7a.28.28,0,0,1,.3.24Z" transform="translate(-1.46 -1.32)" fill="#666"/><path d="M73.39,92.22V85.63h.7a.28.28,0,0,1,.3.24l.09.68a3.38,3.38,0,0,1,.82-.74,1.92,1.92,0,0,1,1-.28,1.56,1.56,0,0,1,1.08.37,2.12,2.12,0,0,1,.59,1,2.37,2.37,0,0,1,.37-.62,2.53,2.53,0,0,1,.5-.43,2.22,2.22,0,0,1,.6-.24,2.74,2.74,0,0,1,.64-.08,2.43,2.43,0,0,1,.92.16,2,2,0,0,1,.69.49,2.27,2.27,0,0,1,.44.78A3.83,3.83,0,0,1,82.32,88v4.2H81.16V88a1.76,1.76,0,0,0-.34-1.17,1.21,1.21,0,0,0-1-.4,1.62,1.62,0,0,0-.54.1,1.31,1.31,0,0,0-.46.3,1.42,1.42,0,0,0-.31.49,2,2,0,0,0-.11.68v4.2H77.27V88A1.87,1.87,0,0,0,77,86.84a1.12,1.12,0,0,0-.93-.39,1.46,1.46,0,0,0-.79.23,2.65,2.65,0,0,0-.67.63v4.91Z" transform="translate(-1.46 -1.32)" fill="#666"/><path d="M89.5,85.63v6.59h-.69A.29.29,0,0,1,88.5,92l-.09-.71a3.83,3.83,0,0,1-1,.76,2.6,2.6,0,0,1-1.23.29,2.37,2.37,0,0,1-1-.18,1.92,1.92,0,0,1-.69-.5,2.07,2.07,0,0,1-.42-.79,3.64,3.64,0,0,1-.14-1v-4.2h1.16v4.2A1.75,1.75,0,0,0,85.52,91a1.28,1.28,0,0,0,1,.41,1.91,1.91,0,0,0,1-.25,2.85,2.85,0,0,0,.82-.67V85.63Zm-.81-2.83-1.52,1.68a.73.73,0,0,1-.18.14.62.62,0,0,1-.22,0h-.69l1-1.58a.58.58,0,0,1,.2-.21.56.56,0,0,1,.32-.07Z" transform="translate(-1.46 -1.32)" fill="#666"/><path d="M92.53,82.64v9.58H91.37V82.64Z" transform="translate(-1.46 -1.32)" fill="#666"/><path d="M100.51,92.22H99.35V86.6H96v4a.85.85,0,0,0,.2.62.69.69,0,0,0,.52.2.8.8,0,0,0,.32-.05l.23-.1.16-.11a.28.28,0,0,1,.12,0,.21.21,0,0,1,.17.11l.34.55a2,2,0,0,1-.73.44,2.35,2.35,0,0,1-.87.16,1.59,1.59,0,0,1-1.2-.43,1.74,1.74,0,0,1-.42-1.26v-4H94a.24.24,0,0,1-.17-.06.24.24,0,0,1-.08-.19v-.46l1.08-.15.27-2a.24.24,0,0,1,.09-.16.21.21,0,0,1,.18-.07H96v2.27h4.55Zm.29-8.7a.88.88,0,0,1-.07.32,1.14,1.14,0,0,1-.18.25,1,1,0,0,1-.27.18.81.81,0,0,1-.31.06.83.83,0,0,1-.32-.06.93.93,0,0,1-.26-.18.85.85,0,0,1-.17-.25.77.77,0,0,1,0-.64,1,1,0,0,1,.17-.27,1.2,1.2,0,0,1,.26-.18.83.83,0,0,1,.32-.06.81.81,0,0,1,.31.06.83.83,0,0,1,.45.45A.88.88,0,0,1,100.8,83.52Z" transform="translate(-1.46 -1.32)" fill="#666"/><path d="M103.51,86.65a3.45,3.45,0,0,1,1-.82,2.43,2.43,0,0,1,1.24-.31,2.51,2.51,0,0,1,1,.21,2.11,2.11,0,0,1,.78.65,2.85,2.85,0,0,1,.5,1.05,5.33,5.33,0,0,1,.18,1.45,4.56,4.56,0,0,1-.2,1.36,3.08,3.08,0,0,1-.56,1.08,2.63,2.63,0,0,1-.89.73,2.78,2.78,0,0,1-1.2.26,2.31,2.31,0,0,1-1-.21,2.24,2.24,0,0,1-.77-.57v2.92h-1.16V85.63h.69a.29.29,0,0,1,.31.24Zm.06,4a1.88,1.88,0,0,0,.7.61,2.07,2.07,0,0,0,.84.17,1.66,1.66,0,0,0,1.42-.66,3,3,0,0,0,.49-1.87,4.44,4.44,0,0,0-.11-1.1,2.32,2.32,0,0,0-.33-.76,1.26,1.26,0,0,0-.52-.43,1.8,1.8,0,0,0-.71-.14,1.87,1.87,0,0,0-1,.26,2.89,2.89,0,0,0-.79.74Z" transform="translate(-1.46 -1.32)" fill="#666"/><path d="M110.89,82.64v9.58h-1.16V82.64Z" transform="translate(-1.46 -1.32)" fill="#666"/><path d="M118.11,91.29a2.29,2.29,0,0,1-.52.46,3.44,3.44,0,0,1-.64.31,4.26,4.26,0,0,1-.7.19,4.56,4.56,0,0,1-.72.06,3.4,3.4,0,0,1-1.26-.23,2.78,2.78,0,0,1-1-.68,3.15,3.15,0,0,1-.65-1.1,4.4,4.4,0,0,1-.23-1.51,3.88,3.88,0,0,1,.21-1.29,3.1,3.1,0,0,1,.6-1,3,3,0,0,1,1-.69,3.16,3.16,0,0,1,1.29-.25,3.07,3.07,0,0,1,1.1.2,2.53,2.53,0,0,1,.87.57,2.76,2.76,0,0,1,.57.92,3.52,3.52,0,0,1,.21,1.25.74.74,0,0,1-.06.37.24.24,0,0,1-.22.09h-4.4A3.76,3.76,0,0,0,113.7,90a2.12,2.12,0,0,0,.43.77,1.78,1.78,0,0,0,.65.47,2.24,2.24,0,0,0,.84.15,2.72,2.72,0,0,0,.75-.1,3.7,3.7,0,0,0,.55-.22l.38-.22a.48.48,0,0,1,.26-.1.27.27,0,0,1,.22.11Zm-.94-3.08a2.45,2.45,0,0,0-.11-.74,1.68,1.68,0,0,0-.34-.58,1.47,1.47,0,0,0-.53-.38,1.71,1.71,0,0,0-.7-.13,1.78,1.78,0,0,0-1.32.48,2.35,2.35,0,0,0-.6,1.35Z" transform="translate(-1.46 -1.32)" fill="#666"/><circle cx="65.54" cy="44.55" r="24.12" fill="none" stroke="#666" stroke-miterlimit="10"/><circle cx="65.54" cy="44.55" r="10.69" fill="none" stroke="#666" stroke-miterlimit="10"/></svg>