<svg id="Capa_1" data-name="Capa 1" xmlns="http://www.w3.org/2000/svg" viewBox="0 0 131.09 111.25"><title>Subir archivos</title><rect width="131.09" height="111.25" rx="3.1" fill="#fff"/><path d="M33.26,83.36a.58.58,0,0,1-.12.14.25.25,0,0,1-.17,0,.43.43,0,0,1-.26-.11l-.37-.24A3.44,3.44,0,0,0,31.8,83a2.46,2.46,0,0,0-.77-.11,2.09,2.09,0,0,0-.74.12,1.42,1.42,0,0,0-.54.31,1.19,1.19,0,0,0-.33.45,1.56,1.56,0,0,0-.11.57,1,1,0,0,0,.19.65,1.69,1.69,0,0,0,.51.44,3.54,3.54,0,0,0,.71.31l.82.28c.28.1.56.2.82.32a2.92,2.92,0,0,1,.72.45,2.07,2.07,0,0,1,.5.67,2.22,2.22,0,0,1,.2,1,3.13,3.13,0,0,1-.21,1.15,2.73,2.73,0,0,1-.61.93,2.88,2.88,0,0,1-1,.62,3.65,3.65,0,0,1-1.32.23A4.07,4.07,0,0,1,29,91a3.79,3.79,0,0,1-1.26-.89l.36-.59a.49.49,0,0,1,.13-.12.24.24,0,0,1,.16,0,.37.37,0,0,1,.2.07l.24.17.31.23a3,3,0,0,0,.4.22,3,3,0,0,0,.51.18,3.2,3.2,0,0,0,.65.06,2.43,2.43,0,0,0,.79-.12,1.61,1.61,0,0,0,.6-.35,1.5,1.5,0,0,0,.37-.53,1.75,1.75,0,0,0,.13-.7,1.15,1.15,0,0,0-.19-.69,1.56,1.56,0,0,0-.5-.45,3.39,3.39,0,0,0-.72-.31l-.82-.26c-.27-.09-.55-.19-.82-.31a2.79,2.79,0,0,1-.71-.46,1.86,1.86,0,0,1-.5-.69,2.58,2.58,0,0,1,.55-2.82,3.07,3.07,0,0,1,.91-.57A3.37,3.37,0,0,1,31,81.8a4,4,0,0,1,1.42.24,3.52,3.52,0,0,1,1.13.72Z" transform="translate(-1.46 -1.32)" fill="#666"/><path d="M40.56,84.63v6.59h-.69a.29.29,0,0,1-.31-.24l-.09-.71a3.83,3.83,0,0,1-1,.76,2.56,2.56,0,0,1-1.22.29,2.42,2.42,0,0,1-1-.18,2,2,0,0,1-.69-.5,2.21,2.21,0,0,1-.42-.79,3.64,3.64,0,0,1-.14-1v-4.2h1.16v4.2A1.76,1.76,0,0,0,36.58,90a1.3,1.3,0,0,0,1,.41,1.86,1.86,0,0,0,1-.25,2.85,2.85,0,0,0,.82-.67V84.63Z" transform="translate(-1.46 -1.32)" fill="#666"/><path d="M43.56,85.58a3.42,3.42,0,0,1,.94-.77,2.47,2.47,0,0,1,1.2-.28,2.38,2.38,0,0,1,1,.22,2.21,2.21,0,0,1,.79.64,3,3,0,0,1,.49,1,4.62,4.62,0,0,1,.18,1.34,5.15,5.15,0,0,1-.2,1.46,3.36,3.36,0,0,1-.56,1.12,2.58,2.58,0,0,1-.89.72,2.73,2.73,0,0,1-1.19.26,2.14,2.14,0,0,1-1.09-.25,2.32,2.32,0,0,1-.78-.69l-.06.6a.28.28,0,0,1-.3.25h-.75V81.64h1.17Zm0,4a1.7,1.7,0,0,0,.7.6,1.9,1.9,0,0,0,.83.18,1.68,1.68,0,0,0,1.43-.66,3.2,3.2,0,0,0,.49-2A2.93,2.93,0,0,0,46.57,86a1.48,1.48,0,0,0-1.25-.57,1.81,1.81,0,0,0-1,.26,3,3,0,0,0-.78.73Z" transform="translate(-1.46 -1.32)" fill="#666"/><path d="M51.14,82.56a.83.83,0,0,1-.06.32,1,1,0,0,1-.19.26.68.68,0,0,1-.26.18.87.87,0,0,1-.32.06.83.83,0,0,1-.32-.06.76.76,0,0,1-.26-.18.9.9,0,0,1-.17-.26.68.68,0,0,1-.07-.32.74.74,0,0,1,.07-.32.78.78,0,0,1,.17-.26A.76.76,0,0,1,50,81.8a.68.68,0,0,1,.32-.07.71.71,0,0,1,.32.07.68.68,0,0,1,.26.18.83.83,0,0,1,.19.26A.91.91,0,0,1,51.14,82.56Zm-.24,2.07v6.59H49.74V84.63Z" transform="translate(-1.46 -1.32)" fill="#666"/><path d="M53.89,86a3.13,3.13,0,0,1,.77-1.06,1.68,1.68,0,0,1,1.11-.38,1.75,1.75,0,0,1,.4,0,1.16,1.16,0,0,1,.34.14l-.08.87a.19.19,0,0,1-.2.16,1,1,0,0,1-.26,0,2.35,2.35,0,0,0-.4,0,1.64,1.64,0,0,0-.56.09,1.3,1.3,0,0,0-.43.27,2.26,2.26,0,0,0-.35.44,3.85,3.85,0,0,0-.27.61v4.16H52.79V84.63h.67a.43.43,0,0,1,.26.07.45.45,0,0,1,.1.25Z" transform="translate(-1.46 -1.32)" fill="#666"/><path d="M60.41,85.56a4,4,0,0,1,1.18-.79,3.71,3.71,0,0,1,1.4-.26,2.52,2.52,0,0,1,1,.19,2.07,2.07,0,0,1,.72.5,2.1,2.1,0,0,1,.44.79,3.29,3.29,0,0,1,.15,1v4.22h-.51a.48.48,0,0,1-.26-.06.37.37,0,0,1-.14-.22l-.14-.62a5.87,5.87,0,0,1-.5.42,3.17,3.17,0,0,1-.52.32,2.81,2.81,0,0,1-.58.19,3,3,0,0,1-.69.07,2.36,2.36,0,0,1-.72-.11,1.68,1.68,0,0,1-.59-.32,1.47,1.47,0,0,1-.4-.54,2.05,2.05,0,0,1-.14-.78,1.47,1.47,0,0,1,.21-.75,2,2,0,0,1,.7-.64,4.49,4.49,0,0,1,1.25-.46,9.8,9.8,0,0,1,1.9-.2V87a1.78,1.78,0,0,0-.33-1.16,1.19,1.19,0,0,0-1-.39,2.14,2.14,0,0,0-.72.11,2.59,2.59,0,0,0-.5.24l-.36.24a.55.55,0,0,1-.3.11.31.31,0,0,1-.21-.07.67.67,0,0,1-.14-.15Zm3.74,2.69a9.52,9.52,0,0,0-1.36.13,4,4,0,0,0-.92.26,1.25,1.25,0,0,0-.51.39.78.78,0,0,0-.16.49,1.25,1.25,0,0,0,.08.45,1,1,0,0,0,.23.31.88.88,0,0,0,.35.17,1.44,1.44,0,0,0,.43.06,2.38,2.38,0,0,0,.55-.06,2.5,2.5,0,0,0,.48-.18,2.87,2.87,0,0,0,.43-.28,3.44,3.44,0,0,0,.4-.37Z" transform="translate(-1.46 -1.32)" fill="#666"/><path d="M68.14,86a3,3,0,0,1,.77-1.06A1.68,1.68,0,0,1,70,84.51a1.75,1.75,0,0,1,.4,0,1.16,1.16,0,0,1,.34.14l-.08.87a.19.19,0,0,1-.2.16,1.16,1.16,0,0,1-.27,0,2.13,2.13,0,0,0-.39,0,1.64,1.64,0,0,0-.56.09,1.21,1.21,0,0,0-.43.27,1.94,1.94,0,0,0-.35.44,3.85,3.85,0,0,0-.27.61v4.16H67V84.63h.67a.43.43,0,0,1,.26.07.45.45,0,0,1,.09.25Z" transform="translate(-1.46 -1.32)" fill="#666"/><path d="M76.09,85.8a.36.36,0,0,1-.1.11.24.24,0,0,1-.15,0,.43.43,0,0,1-.21-.08l-.29-.18-.42-.18a2.17,2.17,0,0,0-.62-.08,2.13,2.13,0,0,0-.86.17,1.76,1.76,0,0,0-.62.5,2.31,2.31,0,0,0-.37.79,3.63,3.63,0,0,0-.13,1A3.78,3.78,0,0,0,72.46,89a2.37,2.37,0,0,0,.38.78,1.67,1.67,0,0,0,.61.48,1.83,1.83,0,0,0,.79.17,2,2,0,0,0,.7-.1,2.36,2.36,0,0,0,.45-.22l.3-.23a.36.36,0,0,1,.24-.1.27.27,0,0,1,.22.11l.32.42a2.32,2.32,0,0,1-.48.46,3.32,3.32,0,0,1-.59.31,2.94,2.94,0,0,1-.66.19,4.14,4.14,0,0,1-.7.06,2.88,2.88,0,0,1-1.15-.23,2.6,2.6,0,0,1-.92-.66,3.14,3.14,0,0,1-.61-1.06,4.27,4.27,0,0,1-.22-1.44,4.56,4.56,0,0,1,.2-1.36,3.19,3.19,0,0,1,.6-1.07,2.57,2.57,0,0,1,1-.71,3.58,3.58,0,0,1,2.55,0,3,3,0,0,1,.94.64Z" transform="translate(-1.46 -1.32)" fill="#666"/><path d="M78.88,85.51a3.53,3.53,0,0,1,.93-.72A2.67,2.67,0,0,1,81,84.53a2.33,2.33,0,0,1,1,.18,1.83,1.83,0,0,1,.69.5,2.48,2.48,0,0,1,.42.79,3.64,3.64,0,0,1,.14,1v4.2H82V87a1.84,1.84,0,0,0-.34-1.16,1.3,1.3,0,0,0-1-.41,1.91,1.91,0,0,0-1,.25,3,3,0,0,0-.82.67v4.85H77.72V81.64h1.16Z" transform="translate(-1.46 -1.32)" fill="#666"/><path d="M86.44,82.56a.68.68,0,0,1-.07.32,1.2,1.2,0,0,1-.18.26.8.8,0,0,1-.27.18.88.88,0,0,1-.64,0,.72.72,0,0,1-.25-.18.93.93,0,0,1-.18-.26.83.83,0,0,1-.06-.32.91.91,0,0,1,.06-.32A.81.81,0,0,1,85,82a.72.72,0,0,1,.25-.18.77.77,0,0,1,.64,0,.8.8,0,0,1,.27.18,1,1,0,0,1,.18.26A.74.74,0,0,1,86.44,82.56Zm-.25,2.07v6.59H85V84.63Z" transform="translate(-1.46 -1.32)" fill="#666"/><path d="M93.73,84.63l-2.68,6.59H90l-2.69-6.59h1a.42.42,0,0,1,.23.07.38.38,0,0,1,.12.17l1.67,4.24c.06.16.1.32.14.47s.08.3.11.45c0-.15.07-.3.11-.45s.09-.31.14-.47l1.69-4.24a.43.43,0,0,1,.13-.17.34.34,0,0,1,.22-.07Z" transform="translate(-1.46 -1.32)" fill="#666"/><path d="M97.39,84.53a3.35,3.35,0,0,1,1.3.24,2.78,2.78,0,0,1,1,.68,3.16,3.16,0,0,1,.63,1.07,4.77,4.77,0,0,1,0,2.8,3.06,3.06,0,0,1-.63,1.07,2.78,2.78,0,0,1-1,.68,3.35,3.35,0,0,1-1.3.24,3.43,3.43,0,0,1-1.31-.24,2.78,2.78,0,0,1-1-.68,3.06,3.06,0,0,1-.63-1.07,4.33,4.33,0,0,1-.22-1.4,4.37,4.37,0,0,1,.22-1.4,3.16,3.16,0,0,1,.63-1.07,2.78,2.78,0,0,1,1-.68A3.43,3.43,0,0,1,97.39,84.53Zm0,5.87a1.68,1.68,0,0,0,1.46-.65,3,3,0,0,0,.48-1.82,3.07,3.07,0,0,0-.48-1.84,1.71,1.71,0,0,0-1.46-.65,1.91,1.91,0,0,0-.86.17,1.52,1.52,0,0,0-.61.48,2.3,2.3,0,0,0-.36.79,3.77,3.77,0,0,0-.13,1.05,3,3,0,0,0,.49,1.82A1.69,1.69,0,0,0,97.39,90.4Z" transform="translate(-1.46 -1.32)" fill="#666"/><path d="M105.82,85.72a.26.26,0,0,1-.24.14.43.43,0,0,1-.22-.07l-.3-.16a2.61,2.61,0,0,0-.43-.16,2,2,0,0,0-.58-.08,1.74,1.74,0,0,0-.53.08,1.36,1.36,0,0,0-.4.2,1,1,0,0,0-.25.3.82.82,0,0,0-.09.38.6.6,0,0,0,.15.42,1.16,1.16,0,0,0,.38.29,3.15,3.15,0,0,0,.55.22l.62.2a5.87,5.87,0,0,1,.63.24,2.27,2.27,0,0,1,.55.32,1.53,1.53,0,0,1,.39.48,1.59,1.59,0,0,1,.14.68A2.1,2.1,0,0,1,106,90a1.88,1.88,0,0,1-.48.67,2.29,2.29,0,0,1-.78.45,3.21,3.21,0,0,1-1.07.16,3.35,3.35,0,0,1-1.25-.22,3.25,3.25,0,0,1-.94-.58l.27-.44a.3.3,0,0,1,.12-.13.35.35,0,0,1,.18,0,.45.45,0,0,1,.25.09,3.58,3.58,0,0,0,.32.21,2.4,2.4,0,0,0,.45.2,2.06,2.06,0,0,0,.66.09,1.74,1.74,0,0,0,.59-.09,1.22,1.22,0,0,0,.42-.24.81.81,0,0,0,.25-.34,1,1,0,0,0,.09-.42A.68.68,0,0,0,105,89a1.19,1.19,0,0,0-.39-.3,3.14,3.14,0,0,0-.55-.23l-.63-.19q-.31-.11-.63-.24a2.2,2.2,0,0,1-.55-.34,1.41,1.41,0,0,1-.38-.49,1.59,1.59,0,0,1-.15-.72,1.72,1.72,0,0,1,.16-.73,1.76,1.76,0,0,1,.45-.61,2.51,2.51,0,0,1,.74-.42,3,3,0,0,1,1-.15,3.34,3.34,0,0,1,1.17.2,3,3,0,0,1,.89.56Z" transform="translate(-1.46 -1.32)" fill="#666"/><path d="M86.8,36.49A20.13,20.13,0,0,0,67,20.44a19.58,19.58,0,0,0-17.66,10.7A16.09,16.09,0,0,0,51,63.24H85.72A13.25,13.25,0,0,0,99.09,49.86,13.6,13.6,0,0,0,86.8,36.49Zm-14.45,8V55.2H61.66V44.51h-8L67,31.14,80.38,44.51Zm0,0" transform="translate(-1.46 -1.32)" fill="none" stroke="#666" stroke-miterlimit="10"/></svg>